<?xml version="1.0" encoding="UTF-8"?><svg id="b" xmlns="http://www.w3.org/2000/svg" xmlns:xlink="http://www.w3.org/1999/xlink" viewBox="0 0 874.9 805"><defs><style>.bw{fill:url(#at);}.bx{fill:url(#as);}.by{fill:url(#an);}.bz{fill:url(#ad);}.ca{fill:url(#am);}.cb{fill:url(#ac);}.cc{fill:url(#ah);}.cd{fill:url(#aa);}.ce{fill:url(#ag);}.cf{fill:url(#ab);}.cg{fill:url(#aj);}.ch{fill:url(#ai);}.ci{fill:url(#ap);}.cj{fill:url(#ao);}.ck{fill:url(#af);}.cl{fill:url(#ae);}.cm{fill:url(#ar);}.cn{fill:url(#aq);}.co{fill:url(#ax);}.cp{fill:url(#aw);}.cq{fill:url(#az);}.cr{fill:url(#ay);}.cs{fill:url(#av);}.ct{fill:url(#au);}.cu{fill:url(#al);}.cv{fill:url(#ak);}.cw{fill:url(#bl);}.cx{fill:url(#br);}.cy{fill:url(#bq);}.cz{fill:url(#bs);}.da{fill:url(#bt);}.db{fill:url(#bp);}.dc{fill:url(#bu);}.dd{fill:url(#bv);}.de{fill:url(#bo);}.df{fill:url(#bh);}.dg{fill:url(#bm);}.dh{fill:url(#bn);}.di{fill:url(#bc);}.dj{fill:url(#ba);}.dk{fill:url(#bb);}.dl{fill:url(#bk);}.dm{fill:url(#bd);}.dn{fill:url(#bi);}.do{fill:url(#bj);}.dp{fill:url(#bg);}.dq{fill:url(#be);}.dr{fill:url(#bf);}.ds{fill:url(#u);}.dt{fill:url(#t);}.du{fill:url(#y);}.dv{fill:url(#w);}.dw{fill:url(#x);}.dx{fill:url(#z);}.dy{fill:url(#j);}.dz{fill:url(#g);}.ea{fill:url(#m);}.eb{fill:url(#h);}.ec{fill:url(#i);}.ed{fill:url(#q);}.ee{fill:url(#r);}.ef{fill:url(#o);}.eg{fill:url(#p);}.eh{fill:url(#k);}.ei{fill:url(#n);}.ej{fill:url(#l);}.ek{fill:url(#f);}.el{fill:url(#d);}.em{fill:url(#s);}.en{fill:url(#e);}.eo{fill:url(#v);}.ep{fill:none;}.eq{fill:#f9b2fd;}.er{fill:#fad0fc;}.es{fill:#fad0fb;}.et{fill:#e55196;}.eu{fill:#fff;}.ev{fill:#ffc042;}.ew{fill:#ffab00;}.ex{fill:#ff7900;}.ey{fill:#9d4df3;}.ez{fill:#c2c1c1;}.fa{fill:#cf2877;}.fb{fill:#b171f5;}.fc{fill:#1fb7be;}.fd{fill:#1fb6bd;}.fe{fill:#41a1a3;}.ff{fill:#139ba1;}.fg{fill:#1aa4aa;}.fh{fill:#50f9fb;}.fi{fill:#475aea;}.fj{fill:rgba(38,171,179,.8);}.fk{fill:rgba(212,103,5,.6);}.fl{fill:rgba(255,252,243,.3);}</style><linearGradient id="d" x1="-440.3" y1="776.2" x2="-439" y2="776.2" gradientTransform="translate(-594635.4 -35284.2) rotate(125.3) scale(634.8 -652.8) skewX(-4.1)" gradientUnits="userSpaceOnUse"><stop offset="0" stop-color="#00cafb"/><stop offset="1" stop-color="#00e9c2"/></linearGradient><linearGradient id="e" x1="-440.3" y1="776.1" x2="-439" y2="776.1" gradientTransform="translate(-173103 -755080.7) rotate(-163.4) scale(869.5 -869.5)" gradientUnits="userSpaceOnUse"><stop offset="0" stop-color="#008ed9"/><stop offset="1" stop-color="#c3fff4"/></linearGradient><linearGradient id="f" x1="-441" y1="782.3" x2="-439.7" y2="782.3" gradientTransform="translate(-15254.4 19973.3) rotate(92.7) scale(61.2 -19.4) skewX(7.9)" gradientUnits="userSpaceOnUse"><stop offset="0" stop-color="#1fb7be"/><stop offset="1" stop-color="#1aa4aa"/></linearGradient><linearGradient id="g" x1="-439.7" y1="776.6" x2="-438.3" y2="776.6" gradientTransform="translate(100078.2 -31803.1) rotate(-78.3) scale(117.4 -117.4)" gradientUnits="userSpaceOnUse"><stop offset="0" stop-color="#1aaeb5" stop-opacity=".6"/><stop offset=".5" stop-color="#1aaeb5" stop-opacity=".2"/><stop offset="1" stop-color="#1aaeb5" stop-opacity="0"/></linearGradient><linearGradient id="h" x1="-439.8" y1="776.1" x2="-438.5" y2="776.1" gradientTransform="translate(204142.8 -2303.7) rotate(-61.2) scale(228.5 -228.5)" gradientUnits="userSpaceOnUse"><stop offset="0" stop-color="#1fb7be"/><stop offset="1" stop-color="#58eaf1"/></linearGradient><linearGradient id="i" x1="-440" y1="776.3" x2="-438.7" y2="776.3" gradientTransform="translate(46854.4 154974.3) rotate(-9.7) scale(94.5 -206.7) skewX(16.6)" gradientUnits="userSpaceOnUse"><stop offset="0" stop-color="#1aa4aa"/><stop offset=".5" stop-color="#24b4ba"/><stop offset="1" stop-color="#43e9f1"/></linearGradient><linearGradient id="j" x1="-440.5" y1="775.8" x2="-439.2" y2="775.8" gradientTransform="translate(-104959.1 79726.6) rotate(90) scale(180.9 -135.7)" gradientUnits="userSpaceOnUse"><stop offset="0" stop-color="#c9f8ff"/><stop offset="1" stop-color="#c9f8ff" stop-opacity="0"/></linearGradient><linearGradient id="k" x1="-440.5" y1="776.7" x2="-439.2" y2="776.7" gradientTransform="translate(-125806.5 71833.2) rotate(90) scale(162.8 -162.8)" gradientUnits="userSpaceOnUse"><stop offset="0" stop-color="#a7feff"/><stop offset="1" stop-color="#28fcff"/></linearGradient><linearGradient id="l" y1="778" y2="778" gradientTransform="translate(-125806.5 71833.2) rotate(90) scale(162.8 -162.8)" xlink:href="#k"/><linearGradient id="m" x1="-439.6" y1="776.8" x2="-438.3" y2="776.8" gradientTransform="translate(-68462.8 68893.6) rotate(74.9) scale(109 -109)" xlink:href="#f"/><linearGradient id="n" x1="-439.7" y1="776.2" x2="-438.4" y2="776.2" gradientTransform="translate(-68708 42450.9) rotate(90) scale(95.3 -89.1)" xlink:href="#f"/><linearGradient id="o" x1="-440.1" y1="776.1" x2="-438.8" y2="776.1" gradientTransform="translate(-37977.3 44507.8) rotate(70.6) scale(65.5 -65.5)" xlink:href="#f"/><linearGradient id="p" x1="-439.9" y1="776.1" x2="-438.5" y2="776.1" gradientTransform="translate(18643.1 -9970.8) rotate(-90) scale(23.6 -23.6)" gradientUnits="userSpaceOnUse"><stop offset="0" stop-color="#1fb6bd"/><stop offset="1" stop-color="#2592a5"/></linearGradient><linearGradient id="q" x1="-439.9" y1="775.6" x2="-438.6" y2="775.6" gradientTransform="translate(13422.4 -10535.5) rotate(-90) scale(24.9 -16.8)" xlink:href="#p"/><linearGradient id="r" x1="-440.1" y1="776" x2="-438.8" y2="776" gradientTransform="translate(390551.3 284430.7) rotate(-27.3) scale(536.9 -555.6) skewX(2.7)" xlink:href="#h"/><linearGradient id="s" x1="-440.2" y1="775.9" x2="-438.9" y2="775.9" gradientTransform="translate(116931.1 206280.7) scale(265.2 -265.2)" xlink:href="#f"/><linearGradient id="t" x1="-440.8" y1="776.3" x2="-439.4" y2="776.3" gradientTransform="translate(-45908.8 -112142.9) rotate(-171.4) scale(155.2 -134.7) skewX(2.5)" gradientUnits="userSpaceOnUse"><stop offset="0" stop-color="#019bd8" stop-opacity=".7"/><stop offset="1" stop-color="#019bd8" stop-opacity="0"/></linearGradient><linearGradient id="u" x1="-440.8" y1="776.7" x2="-439.4" y2="776.7" gradientTransform="translate(-57095.3 25079.8) rotate(96.3) scale(70.3 -70.3)" gradientUnits="userSpaceOnUse"><stop offset="0" stop-color="#54c1c3"/><stop offset="1" stop-color="#3adfe1"/></linearGradient><linearGradient id="v" x1="-440.6" y1="775.9" x2="-439.3" y2="775.9" gradientTransform="translate(-39466 -137032.1) rotate(-166.7) scale(160.6 -160.6)" gradientUnits="userSpaceOnUse"><stop offset="0" stop-color="#003b96"/><stop offset="1" stop-color="#1664ff"/></linearGradient><linearGradient id="w" x1="-440.6" y1="776.1" x2="-439.3" y2="776.1" gradientTransform="translate(-39465.8 -137032.6) rotate(-166.7) scale(160.6 -160.6)" xlink:href="#v"/><linearGradient id="x" x1="-440.7" y1="775.5" x2="-439.4" y2="775.5" gradientTransform="translate(67855.2 -50176.5) rotate(-97.5) scale(94.5 -94.5)" gradientUnits="userSpaceOnUse"><stop offset="0" stop-color="#006ae5"/><stop offset="1" stop-color="#006ae5" stop-opacity="0"/></linearGradient><linearGradient id="y" x1="-440.5" y1="776.2" x2="-439.2" y2="776.2" gradientTransform="translate(-139460.9 -125139.2) rotate(161.4) scale(211 -211)" gradientUnits="userSpaceOnUse"><stop offset="0" stop-color="#001032" stop-opacity=".4"/><stop offset="1" stop-color="#001032" stop-opacity="0"/></linearGradient><linearGradient id="z" x1="-440.8" y1="775.7" x2="-439.4" y2="775.7" gradientTransform="translate(54684.5 -104110) rotate(-123.1) scale(132.1 -132.1)" xlink:href="#x"/><linearGradient id="aa" x1="-439.9" y1="776.6" x2="-438.6" y2="776.6" gradientTransform="translate(-130447.8 43453.3) rotate(101.4) scale(153 -154.7) skewX(-.3)" gradientUnits="userSpaceOnUse"><stop offset="0" stop-color="#ffc500"/><stop offset="1" stop-color="#ff7900"/></linearGradient><linearGradient id="ab" x1="-437.3" y1="776.2" x2="-435.9" y2="776.2" gradientTransform="translate(-74474.7 14068.7) rotate(48.9) scale(30.5 -84.3) skewX(65.8)" gradientUnits="userSpaceOnUse"><stop offset="0" stop-color="#fff" stop-opacity=".3"/><stop offset="1" stop-color="#fff" stop-opacity="0"/></linearGradient><linearGradient id="ac" x1="-438.7" y1="776.4" x2="-437.4" y2="776.4" gradientTransform="translate(-98290.1 24103.5) rotate(56.7) scale(48.2 -123.2) skewX(56.2)" gradientUnits="userSpaceOnUse"><stop offset="0" stop-color="#fff" stop-opacity=".4"/><stop offset="1" stop-color="#fff" stop-opacity="0"/></linearGradient><linearGradient id="ad" x1="-440.9" y1="775.4" x2="-439.6" y2="775.4" gradientTransform="translate(80712.6 -64727.8) rotate(-104.8) scale(108.8 -121.2) skewX(3.5)" gradientUnits="userSpaceOnUse"><stop offset="0" stop-color="#ff7900"/><stop offset="1" stop-color="#ff7900" stop-opacity="0"/></linearGradient><linearGradient id="ae" x1="-440.7" y1="776.4" x2="-439.4" y2="776.4" gradientTransform="translate(-78048.9 21000.1) rotate(104.8) scale(91 -91)" gradientUnits="userSpaceOnUse"><stop offset="0" stop-color="#fff" stop-opacity=".4"/><stop offset="1" stop-color="#fff" stop-opacity="0"/></linearGradient><linearGradient id="af" x1="-439.7" y1="774.8" x2="-438.4" y2="774.8" gradientTransform="translate(36610.1 -35071.9) rotate(-104.9) scale(56.7 -56.7)" gradientUnits="userSpaceOnUse"><stop offset="0" stop-color="#dc267b" stop-opacity=".4"/><stop offset="1" stop-color="#dc267b" stop-opacity="0"/></linearGradient><linearGradient id="ag" x1="-440" y1="775.3" x2="-438.7" y2="775.3" gradientTransform="translate(67085.9 -71287.1) rotate(-107.6) scale(109.5 -109.5)" xlink:href="#af"/><linearGradient id="ah" x1="-440.2" y1="776.2" x2="-438.9" y2="776.2" gradientTransform="translate(-235973.2 103687.7) rotate(98.6) scale(365.7 -281.6) skewX(4.7)" xlink:href="#aa"/><linearGradient id="ai" x1="-440.3" y1="775.9" x2="-438.9" y2="775.9" gradientTransform="translate(229581.7 -129885.6) rotate(-110.7) scale(224.4 -335.5) skewX(18.4)" xlink:href="#ad"/><linearGradient id="aj" x1="-440.3" y1="775.6" x2="-439" y2="775.6" gradientTransform="translate(114111.5 -104194.1) rotate(-103.1) scale(173.1 -173.1)" xlink:href="#ad"/><linearGradient id="ak" x1="-440.1" y1="776.2" x2="-438.7" y2="776.2" gradientTransform="translate(-88961.1 75653.9) rotate(79.5) scale(131.1 -131.1)" gradientUnits="userSpaceOnUse"><stop offset="0" stop-color="#fff" stop-opacity=".2"/><stop offset="1" stop-color="#fff" stop-opacity="0"/></linearGradient><linearGradient id="al" x1="-439.2" y1="777.2" x2="-437.8" y2="777.2" gradientTransform="translate(-10293.3 37185.9) rotate(46) scale(43 -43)" gradientUnits="userSpaceOnUse"><stop offset="0" stop-color="#9d4df3"/><stop offset="1" stop-color="#6a1bba"/></linearGradient><linearGradient id="am" x1="-440.1" y1="779.8" x2="-438.8" y2="779.8" gradientTransform="translate(-7071.1 6348.3) rotate(17.4) scale(17.9 -10.3) skewX(43.9)" gradientUnits="userSpaceOnUse"><stop offset="0" stop-color="#919dff" stop-opacity=".3"/><stop offset="1" stop-color="#919dff" stop-opacity="0"/></linearGradient><linearGradient id="an" x1="-439.9" y1="775.2" x2="-438.6" y2="775.2" gradientTransform="translate(32777.8 -75404.3) rotate(-127.3) scale(92.2 -92.2)" xlink:href="#v"/><linearGradient id="ao" x1="-439.7" y1="776.3" x2="-438.4" y2="776.3" gradientTransform="translate(125456.5 81040.3) rotate(-27.6) scale(166.8 -166.8)" gradientUnits="userSpaceOnUse"><stop offset="0" stop-color="#ffb100"/><stop offset="1" stop-color="#ff7900"/></linearGradient><linearGradient id="ap" x1="-439.4" y1="776.5" x2="-438" y2="776.5" gradientTransform="translate(-12037.6 64513) rotate(57.4) scale(64 -58.1) skewX(-21)" xlink:href="#al"/><linearGradient id="aq" x1="-439.2" y1="777" x2="-437.9" y2="777" gradientTransform="translate(-9910.7 30090.6) rotate(48.9) scale(35.2 -35.2)" xlink:href="#am"/><linearGradient id="ar" x1="-440.1" y1="776.2" x2="-438.8" y2="776.2" gradientTransform="translate(-293643.6 27624.2) rotate(114.3) scale(331.2 -331.2)" gradientUnits="userSpaceOnUse"><stop offset="0" stop-color="#fff" stop-opacity=".5"/><stop offset="1" stop-color="#fff" stop-opacity="0"/></linearGradient><linearGradient id="as" x1="-434.9" y1="772.4" x2="-433.5" y2="772.4" gradientTransform="translate(-5942.5 10212.2) rotate(24.6) scale(19.3 -14.6) skewX(34.5)" xlink:href="#al"/><linearGradient id="at" x1="-445.4" y1="772.4" x2="-444.1" y2="772.4" gradientTransform="translate(3223.4 -15598.9) rotate(-95.6) scale(21 -5.6) skewX(-22.2)" gradientUnits="userSpaceOnUse"><stop offset="0" stop-color="#6420aa"/><stop offset=".5" stop-color="#732cbd"/><stop offset="1" stop-color="#9a4bed"/></linearGradient><linearGradient id="au" x1="-439.2" y1="779" x2="-437.9" y2="779" gradientTransform="translate(-7022.6 25854) rotate(53.4) scale(28.4 -27.5) skewX(-9)" xlink:href="#am"/><linearGradient id="av" x1="-440.3" y1="776.8" x2="-439" y2="776.8" gradientTransform="translate(-44981.7 3853.8) rotate(112) scale(59.9 -52.7) skewX(7.6)" xlink:href="#al"/><linearGradient id="aw" x1="-438.5" y1="777.3" x2="-437.2" y2="777.3" gradientTransform="translate(-6745.2 24313.5) rotate(52.9) scale(26.8 -26) skewX(-7.9)" xlink:href="#am"/><linearGradient id="ax" x1="-439.9" y1="776.6" x2="-438.6" y2="776.6" gradientTransform="translate(-124240.7 5080.8) rotate(117.1) scale(129.8 -140.6) skewX(-2.1)" xlink:href="#aa"/><linearGradient id="ay" x1="-437" y1="775.8" x2="-435.7" y2="775.8" gradientTransform="translate(-69668.3 12860.3) rotate(48.2) scale(28.1 -77.9) skewX(66.5)" xlink:href="#ab"/><linearGradient id="az" x1="-441.1" y1="775.5" x2="-439.8" y2="775.5" gradientTransform="translate(58650.1 -46702.3) rotate(-104.8) scale(78.8 -88) skewX(3.5)" xlink:href="#ad"/><linearGradient id="ba" x1="-438.4" y1="776.2" x2="-437.1" y2="776.2" gradientTransform="translate(-80672.5 19776.8) rotate(56.5) scale(39.4 -100.9) skewX(56.5)" xlink:href="#ac"/><linearGradient id="bb" x1="-442.2" y1="776.9" x2="-440.9" y2="776.9" gradientTransform="translate(22053.8 -28039.7) rotate(-113.5) scale(40.2 -40.2)" xlink:href="#at"/><linearGradient id="bc" x1="-437.2" y1="773.6" x2="-435.9" y2="773.6" gradientTransform="translate(-19768.7 17557.4) rotate(14.4) scale(57.3 -27.6) skewX(42.4)" xlink:href="#al"/><linearGradient id="bd" x1="-434.7" y1="775.1" x2="-433.4" y2="775.1" gradientTransform="translate(10148.5 14721.8) rotate(-57.6) scale(19.9 -20.5) skewX(45.8)" xlink:href="#ao"/><linearGradient id="be" x1="-440.8" y1="776.8" x2="-439.5" y2="776.8" gradientTransform="translate(-46048.5 3259.3) rotate(116) scale(52.3 -52.3)" xlink:href="#al"/><linearGradient id="bf" x1="-439" y1="777.9" x2="-437.7" y2="777.9" gradientTransform="translate(-7400.3 16879.8) rotate(39.8) scale(23 -22.9) skewX(17.7)" xlink:href="#am"/><linearGradient id="bg" x1="-439.8" y1="777" x2="-438.5" y2="777" gradientTransform="translate(4201.7 61462.1) rotate(26.1) scale(68.8 -68.8)" xlink:href="#aa"/><linearGradient id="bh" x1="-437.8" y1="772.9" x2="-436.5" y2="772.9" gradientTransform="translate(14100.1 -13654.6) rotate(-106) scale(21.8 -21.8)" gradientUnits="userSpaceOnUse"><stop offset="0" stop-color="#ffd967" stop-opacity="0"/><stop offset="1" stop-color="#ffd967"/></linearGradient><linearGradient id="bi" x1="-438.4" y1="773.1" x2="-437.1" y2="773.1" gradientTransform="translate(14299.5 -16275.3) rotate(-110.5) scale(24.1 -24.1)" xlink:href="#bh"/><linearGradient id="bj" x1="-439.4" y1="775.8" x2="-438" y2="775.8" gradientTransform="translate(-89589.1 1301) rotate(119.1) scale(100.7 -100.7)" xlink:href="#al"/><linearGradient id="bk" x1="-440.2" y1="776.5" x2="-438.9" y2="776.5" gradientTransform="translate(80901.3 -52912.6) rotate(-93.9) scale(108.5 -108.5)" gradientUnits="userSpaceOnUse"><stop offset="0" stop-color="#e55196"/><stop offset="1" stop-color="#ffa2cd"/></linearGradient><linearGradient id="bl" x1="-440.2" y1="775.3" x2="-438.9" y2="775.3" gradientTransform="translate(-17939.7 59403.5) rotate(46.6) scale(69 -69)" xlink:href="#al"/><linearGradient id="bm" x1="-440.2" y1="776.3" x2="-438.9" y2="776.3" gradientTransform="translate(125067.5 -135462.9) rotate(-107.9) scale(207 -207)" xlink:href="#bk"/><linearGradient id="bn" x1="-441" y1="777.2" x2="-439.7" y2="777.2" gradientTransform="translate(-73458.1 25032.2) rotate(98.1) scale(70.6 -90.2) skewX(-4.1)" xlink:href="#u"/><linearGradient id="bo" x1="-440" y1="779.3" x2="-438.7" y2="779.3" gradientTransform="translate(-22908.1 48073.4) rotate(82.8) scale(75 -37.9) skewX(-11.2)" gradientUnits="userSpaceOnUse"><stop offset="0" stop-color="#61d2d4"/><stop offset="1" stop-color="#50f9fb"/></linearGradient><linearGradient id="bp" x1="-439.9" y1="776.4" x2="-438.6" y2="776.4" gradientTransform="translate(-113720.2 -131337.9) rotate(168.7) scale(195.5 -195.5)" gradientUnits="userSpaceOnUse"><stop offset="0" stop-color="#49b2e1" stop-opacity=".5"/><stop offset="1" stop-color="#49b2e1" stop-opacity="0"/></linearGradient><linearGradient id="bq" x1="-439.8" y1="775.5" x2="-438.5" y2="775.5" gradientTransform="translate(-126288.5 103970) rotate(80.3) scale(183.2 -183.2)" gradientUnits="userSpaceOnUse"><stop offset="0" stop-color="#ff7900"/><stop offset="1" stop-color="#ffb100"/></linearGradient><linearGradient id="br" x1="-439.8" y1="775.9" x2="-438.5" y2="775.9" gradientTransform="translate(-212057.1 68556.7) rotate(101.6) scale(242.8 -250.3) skewX(-.8)" xlink:href="#aa"/><linearGradient id="bs" x1="-440.9" y1="775.9" x2="-439.6" y2="775.9" gradientTransform="translate(80666.4 11806.3) rotate(-52.5) scale(91 -91)" gradientUnits="userSpaceOnUse"><stop offset="0" stop-color="#034cc9"/><stop offset="1" stop-color="#4782fe"/></linearGradient><linearGradient id="bt" x1="-440.9" y1="776" x2="-439.6" y2="776" gradientTransform="translate(80666.4 11805.7) rotate(-52.5) scale(91 -91)" xlink:href="#bs"/><linearGradient id="bu" x1="-439.9" y1="783.6" x2="-438.6" y2="783.6" gradientTransform="translate(-11956.6 41641.2) rotate(90) scale(93.6 -16.3)" xlink:href="#f"/><linearGradient id="bv" x1="-439.7" y1="775.5" x2="-438.4" y2="775.5" gradientTransform="translate(-9044.5 150639.3) rotate(33.2) scale(168.5 -168.5)" xlink:href="#ar"/></defs><g id="c"><g><path class="el" d="M39.5,805c-55.8-104.4-71.2-239.2,80.9-380,89.5-82.8,119.3-138.8,128.1-182.2,11.7-57.9-2.9-155.9,76.6-207,65-41.8,166-51.5,285.4-4.7,130.9,51.4,217.6,39.4,263.3,23.8V805H39.5Z"/><path class="en" d="M873.8,805H39.5C13.1,755.6-4.2,699.4,.9,639H873.8v166Z"/><path class="ek" d="M874.9,389.9v147.8h-62.1s-5.3-36.8-10.1-70.4c-4.5-31.6,15.1-61.8,45.9-70.4,8.1-2.3,16.9-4.6,26.3-7.1Z"/><path class="dz" d="M272.6,99.1h151.4c1.8,0,3.6,.7,4.8,2,1.3,1.3,2,3,2,4.8v58.7c0,1.8-.7,3.6-2,4.8-1.3,1.3-3,2-4.8,2h-11v1.8c0,1.1-.4,2-1.1,2.8-.7,.7-1.7,1.1-2.8,1.1H255.7c2.5-25.8,6.5-53,16.9-78.1Z"/><path class="eb" d="M276.1,91.4h142.2c1.8,0,3.6,.7,4.8,2,1.3,1.3,2,3,2,4.8v58.7c0,1.8-.7,3.6-2,4.8-1.3,1.3-3,2-4.8,2h-161.1c2.9-24.4,7.9-49.4,18.9-72.4Z"/><path class="ec" d="M409.4,161h-151.9c.3-2.7,.7-5.3,1.1-8h150.8v8Z"/><path class="dy" d="M436.5,295.1H229.1c10.4-19.5,16.3-36.7,19.4-52.3,4.6-22.8,5.1-51.9,8.9-81.9h151.9l27.1,134.2Z"/><path class="fh" d="M404.9,141.5c0-.8-.6-1.4-1.4-1.4h-2.7c-.8,0-1.4,.6-1.4,1.4v2.7c0,.8,.6,1.4,1.4,1.4h2.7c.8,0,1.4-.6,1.4-1.4v-2.7Z"/><path class="fh" d="M395.1,141.5c0-.8-.6-1.4-1.4-1.4h-2.7c-.8,0-1.4,.6-1.4,1.4v2.7c0,.8,.6,1.4,1.4,1.4h2.7c.8,0,1.4-.6,1.4-1.4v-2.7Z"/><path class="fc" d="M407.3,156.1v9.5c0,1.1-.4,2-1.1,2.8-.7,.7-1.7,1.1-2.8,1.1h-146.9c.5-4.5,1-8.9,1.7-13.4h149.1Z"/><path class="fj" d="M745.6,280.8H481.2V101.7h264.4v179.1ZM506,126.5V256h214.7V126.5h-214.7Z"/><path class="fj" d="M873.8,280.8h-105.6V101.7h105.6v179.1Zm-80.7-154.3V256h80.7V126.5h-80.7Z"/><rect class="eh" x="493.6" y="114.1" width="239.6" height="154.3"/><rect class="ej" x="780.7" y="114.1" width="93.2" height="154.3"/><path class="fg" d="M850.7,639h-20s3,11.1,4.4,16.1c.4,1.4,1.6,2.4,3.1,2.4h5.1c1.4,0,2.7-1,3.1-2.4,1.4-5,4.4-16.1,4.4-16.1Z"/><path class="ea" d="M827.3,648.6c-5.3,0-9.8-3.7-11-8.8-4.7-20.7-16-70.7-16-70.7-4,1-8.2,1.6-12.6,1.6-27.8,0-50.4-22.6-50.4-50.4s22.6-50.4,50.4-50.4,50.4,22.6,50.4,50.4h0l14.4,128.3h-25.3Z"/><path class="ei" d="M436.9,657.5c.4,0,.9-.2,1.2-.5,.3-.3,.5-.7,.5-1.2v-172.6h-13.4v172.6c0,.4,.2,.9,.5,1.2,.3,.3,.7,.5,1.2,.5h10.1Z"/><path class="ef" d="M333.6,470.2c-4.8,0-9.1-2.9-10.9-7.4-.8-2.1-1.7-4.4-2.6-6.7-3.2-8.1-1.5-17.3,4.4-23.7h0c3.7-4.1,5-9.8,3.3-15.1-1.1-3.3-2-6.3-2-6.3h0c.8-.7,2-1.4,3.3-1.9,2.7-1.1,5.6-1.6,8.5-1.6h14.8c2.9,0,5.7,.5,8.4,1.6,1.3,.5,2.6,1.2,3.4,1.9h0s-1,3-2,6.3c-1.7,5.2-.5,11,3.3,15.1h0c5.9,6.4,7.6,15.6,4.4,23.7-.9,2.3-1.8,4.6-2.7,6.7-1.8,4.5-6.1,7.4-10.9,7.4h-22.5Z"/><rect class="eg" x="341.5" y="359.4" width="6.6" height="52.1"/><path class="ed" d="M379.4,410.1v-50.7h2.6v50.7c.6,.4,1.1,1.1,1.1,1.9,0,1.3-1.1,2.3-2.3,2.3s-2.4-1.1-2.4-2.3,.4-1.5,1.1-1.9Z"/><path class="ee" d="M458.5,469.3c0-1.3-1-2.3-2.3-2.3H135.4v23H456.2c1.3,0,2.3-1,2.3-2.3v-18.3Z"/><rect class="em" x="168.8" y="489.9" width="256.3" height="26.9"/><path class="ff" d="M366.8,500.3h-20.3v1.7c0,.8,.3,1.5,.8,2s1.3,.8,2,.8h14.6c.8,0,1.5-.3,2-.8,.5-.5,.8-1.3,.8-2v-1.7Z"/><path class="ff" d="M247.4,500.3h-20.3v1.7c0,.8,.3,1.5,.8,2s1.3,.8,2,.8h14.6c.8,0,1.5-.3,2-.8,.5-.5,.8-1.3,.8-2v-1.7Z"/><ellipse class="dt" cx="628" cy="703.5" rx="164.7" ry="37.4"/><path class="ds" d="M546.8,266c.7-1,1.4-2,2.2-3,5.7-7.5,11.9-12.4,16.8-12.1,9.3,.5,27.4,18.9,34.6,57.8,1.2,6.5,0,14.9-5.3,22.4h-48.3v-65.1Z"/><path class="fe" d="M555.9,331.1c-2.2-3.6-5.2-8.8-4.6-12.5,.4-.3,.9-.7,.9-.7l.6,.9s0,.2,.2,.8c1.4,4.4,3.6,8.3,6.4,11.4h-3.6Zm12.4,0c0-5.2-.2-10.5-.6-15.7-.8-10.1-1.3-23.1-4.2-32.5,.2-.3,.3-.7,.5-1l1,.5s.2,.8,.4,1.5c2.5,10.9,4.4,22.1,5.5,33.4,5.3-5.7,9.5-14.3,8.1-22,0,.2,.4-1.1,.4-1.1-.3-.5,1.1,0,1.3,1.5,1.3,10.1-2.4,19.5-8.8,26.4l-.6,.3c.2,2.9,.4,5.8,.4,8.8h-3.4Zm-15.5-12.2h0s0,0,0,0Z"/><path class="et" d="M693.6,352.7l19.3-11.8s-26.7-35.9-41.5-61.7c-9.9-17.3-35.7-65.4-35.7-65.4l-10.9-1.8-6.5,6.8,3.7,82.1,13.7,49.8,57.9,2.1Z"/><path class="eo" d="M706.2,460.9c.5,33.4,9.5,75.8,27.7,127.8-17.2,21.8-36.1,37.6-61,31.3-29.8-36.8-50.7-84.9-65.2-130.4-16.1-50.8,98.5-28.7,98.5-28.7Z"/><path class="dv" d="M651.5,502.9c-15.3,27.5-27.9,73.3-37.6,124.2-24.3,9.7-47.2,13.7-64.5-3.2-7-44-1.4-100.2,8.2-144,10.7-49,93.8,23,93.8,23Z"/><path class="dw" d="M550.6,520.4c11.7-2.4,22.7-4,22.7-4,0,0-9,9.4-14.2,37.4-4,21.4,.5,61.1,2.8,78.6-4.4-1.9-8.6-4.6-12.5-8.4-5-31.3-3.6-68.8,1.1-103.6Z"/><path class="du" d="M631.7,487.5c18.3-8.4,31.7-14.8,32.3-15.6,1.6-2.1,15.6-9.7,29-13.1,8.1,1.1,13.3,2.1,13.3,2.1,.2,16,2.4,34,6.6,54.2h0c-43,10.8-43.8,46.7-83.3,32.3-32.9-7.2-66.8,32.8-81.8-1.8,.6-7.1,1.3-14.1,2.2-21,17.4-7.8,40.1-18.1,60.8-27.4l1.7-.8,1.2-.5,1.3-.6,1.4-.7,1-.5,1.7-.8,.8-.4,1.8-.8,.6-.3,2-.9,.4-.2,2.2-1h.2c0,0,2.3-1.1,2.3-1.1h0s2.3-1.1,2.3-1.1h0Z"/><path class="dx" d="M619.1,522c5.4-5,7.9-12.7,7.9-12.7,0,0,32.9,86.7,54.8,100.9,9.8,6.4,19.1,1.4,27.2,3-10.7,7.1-22.4,10.2-36,6.7-22.8-28.1-40.4-62.9-53.9-98Z"/><path class="cd" d="M734.3,583c-.4-.6-1-1-1.8-1-.7,0-1.4,.4-1.8,1-4,6.1-14.1,19.4-30.8,28.1-13.5,7-22.2,8.6-27,8.7-.8-.2-1.6,.2-2,.9s-.4,1.6,0,2.2c8.3,11.9,34.3,48.7,34.3,48.7,0,0-28-1.6-39.9,9.2-18.1,16.4-9.5,32.8-9.5,32.8,0,0,5.8,5.8,28.8,5.8s50.3-3.6,58.4-5.4c12.1-2.8,17-5.6,17-5.6,0,0,5.8-23,2-36.4-3.4-12.2-21.2-73.1-27.8-89Z"/><path class="cf" d="M693.1,671.8c-21.1,5.6-28.8,20.5-29.7,28.6-.9,8.4,4.5,17.7,4.6,17.8-9.3-1.7-12.1-4.5-12.1-4.5,0,0-8.5-16.4,9.5-32.8,6.8-6.1,18.7-8.3,27.7-9Z"/><path class="cb" d="M711.5,603.8h0c-6.7,10.5-28,19-28,19l38.9,62s-4.4-5.7-7.9-8.8c-3.5-3.1-9.1-4.5-9.1-4.5l-4.2-5.9c-7.7-10.9-23.9-33.8-30.1-42.7-.5-.7-.5-1.5,0-2.2,.4-.7,1.3-1,2-.9,4.8,0,13.6-1.6,27-8.7,4.3-2.2,8.1-4.8,11.5-7.4Z"/><path class="bz" d="M734.7,584.1c6.9,17.4,24,76,27.3,87.9,3.8,13.4-2,36.4-2,36.4,0,0-3.1,1.7-10.3,3.9,1.9-8.2,4.5-23.3,2.1-36.2-3.4-18.7-28.4-77.7-28.4-77.7,0,0,0,0,2.4-2.7,1.8-2,6.6-8,8.8-11.6Z"/><path class="ep" d="M621.3,624.1c-2,1.3-3.1,2.7-11,4.4-7.9,1.7-7.8,1.7-7.8,1.7,0,0-2.6,72.5-4.9,79.5-2.3,7-20,13.3-20,13.3l38.2-4.3,11.1-56s-3.5-40-5.5-38.7Z"/><path class="es" d="M493.6,311.4s-3.9,43.5-3.3,57.9c.6,14.4,11.2,58.1,21.8,73.8,10.6,15.7,45.5-17.5,45.5-17.5l-9.9-88.5s-12.8-22.8-18-25.7c-5.1-2.9-36.1,0-36.1,0Z"/><path class="et" d="M535,243.6l5.1-13.1s-14.9,7.5-27,31.4c-14.5,28.8-26.9,63.3-26.9,63.3,9.7,12.6,30.3,18.2,41.9,15.6,0,0,1.1,29.9,3.5,28.1,17.5-13.8,27.5-71.7,27.5-71.7l-24.1-53.5Z"/><path class="cl" d="M537.9,231.9c-22.6,25.4-39.3,76.7-45.7,99.4-2.3-1.8-4.4-3.8-6.1-6,0,0,12.4-34.5,26.9-63.3,9.3-18.4,20.3-27.1,24.9-30.1Z"/><path class="et" d="M632,286.7c-.5-3-17.3-82-17.3-82l-68.3,21.6-6.3,33.5s9.6,55.3,12.7,54.1,79.7-24.1,79.2-27.1Z"/><path class="ck" d="M550.2,229.2s6.3,58.6,19.6,66.3c3.5,2,6.9-7.4,11.4-7.6,29.9-1.2,26.8,11.8,15.8,16.6-10.9,4.8-16.9,14.6-27.2,11.4-10.2-3.3-8.7,3.7-15-8.2-6.3-11.9-16.8-34-18.8-48.2-2-14.2,14.2-30.3,14.2-30.3Z"/><path class="ce" d="M615.7,224.7l11.7-10.4s1.4-.5,2.1-1.5c.5-.6,3.7-.7,4,.6,3.4,13.9,13.2,56,48.7,87.4,25.6,22.6,20.1,36.9,20.1,36.9,0,0-32.4,19.4-42.2,13.7-9.7-5.6-39.6-10.9-41.1-23.9-1.5-13,6.6-65.7,6.6-65.7l-9.9-37.2Z"/><path class="cc" d="M637.7,275.1c11,21.9,19.2,27.6,22.4,31.8,5.9,7.6,14.7,12.4,24.2,13.3,4.2,.4,7.7,.7,7.7,.7,0,0,5,7.5,6,10.5,8.4,25.6,19,61.3,21.2,83.3,2.8,27.6,8.2,81.5,8.2,81.5,0,0-16.5,16.8-77.1,35.9-60.6,19.1-100.9,5-100.9,5,0,0,2.9-23,0-55-2.6-28.4-10.7-64.9-14.6-84.1-4.7-23.4-4.9-32.9-4.9-32.9,9.8-6.6,16.2-25.6,16.5-46.9,0,0-20.3-77.9-11.6-86.9l13.8-8c-4.1,25.5,7,61.5,11.7,70.9,0,0,18.4-4.9,27.5-8.1,8.2-2.9,30.6-12.3,30.6-12.3-6-18.5-7.5-59.6-4.4-60.4,6-3.2,11.1-2.8,14.6-1.9,1.4,.3,.6,1-.2,1.7-6.1,5.3-.4,35.3,3.6,47.8,1.7,5.3,3.8,10.2,5.8,14.1Z"/><path class="ch" d="M648.4,286.5c.6,1.7,1.2,3.2,1.9,4.7,3.1,6.4,6.6,11.6,9.8,15.7,1,1.3,2.1,2.5,3.3,3.6-2.4,6.9-5.5,14.5-8.7,17.9-3.9,4-57.9,115.9-48.5,139.3,11.6,29.1-26.7,39.3-25.2,56,.8,9,21.5,18.4,36.4,16.1-41.9,6.5-68.1-2.7-68.1-2.7,0,0,0-.4,.1-1.2l98.9-249.4Z"/><path class="er" d="M709.7,330.1c2.3-1.7,28.9-16.8,28.9-16.8,0,0-15.7-34.7-32.3-45.3-16.6-10.6-19.5,2.4-19.5,2.4l-27.5,15s34.5,37.8,41.1,42.2c6.6,4.4,7,4.2,9.3,2.5Z"/><path class="et" d="M715,266.8s-39.6-33.1-66.8-49c-5.2-3-9.9-3.5-13.3-4.3-7.2-1.8-5.8,13.7-1.2,30,2.3,8.2,5.3,16.7,8.4,23.3,12.4,26.5,33.8,44.6,33.8,44.6,0,0,34.6-19.9,39.1-44.6Z"/><path class="cg" d="M681.9,319.8c.8,.1,1.6,.2,2.4,.3,4.2,.4,7.7,.7,7.7,.7,0,0,5,7.5,6,10.5,8.4,25.6,19,61.3,21.2,83.3,2.8,27.6,8.2,81.5,8.2,81.5,0,0-12.6,12.9-56.5,28.9,0,0,27.7-9.2,35.9-51.7,5.2-27.1-.6-77.5-14-126-2.6-9.5-6.8-18.5-10.9-27.6Z"/><path class="er" d="M650,355.7s17.6-13.7,42.3-40.1c21.1-22.6,46-10.3,47.1,.8,1.1,11.2-17.4,43-69.7,63.7-52.3,20.7-19.7-24.4-19.7-24.4Z"/><path class="cv" d="M530,365c-1.2-7.1-1.8-21.5-1.9-23.9v-.3s0-58.6,0-58.6c0,0,5.6,49.5,12,91.6h0c9.3,61.6,21.9,127.8,34.8,167.8-16.2-1.3-25.5-4.5-25.5-4.5,0,0,2.9-23,0-55-2.6-28.4-10.7-64.9-14.6-84.1-4.7-23.4-4.9-32.9-4.9-32.9,0,0,.1,0,.2,0Z"/><path class="cu" d="M651.5,345.4l-13.3,10.3s-16.8-6.5-23.3-5.3h0c-5.9,1.1-9.9,6.8-8.8,12.7,1.5,8.7,4,22.9,4,22.9l25.1,11.1,42.8-17.4c3.6-3.5-5.8-32.5-26.3-34.3Z"/><path class="ep" d="M658.3,345.4c-.5,.8-18.4,14-18.4,14,0,0-8.7-4.9-12.8-5.5-4.1-.6,20.5-11.3,20.5-11.3l9.6-1.5s1.5,3.5,1.1,4.2Z"/><path class="ca" d="M628,352.3c5.4,1.5,10.2,3.4,10.2,3.4l13.3-10.3c1.9,.2,3.8,.6,5.5,1.2-4.3,3.4-17,12.9-17,12.9,0,0-8.7-4.9-12.8-5.5-.9-.1-.4-.7,.8-1.6Z"/><path class="eq" d="M546.8,233s14,26.7,36.9,18.9c22.9-7.8,24.5-33.1,24.5-33.1l-61.5,14.2Z"/><path class="es" d="M523.4,141s-2.3,67.6,2.8,77.9c5.1,10.3,32.4,31,55.9,23.8,23.5-7.2,39-25.6,42.1-40.4,3.1-14.8-13.4-71.8-13.4-71.8,0,0-75.4,1.5-87.5,10.4Z"/><path class="fa" d="M557.7,225l33.3-5.8s-1.9,11.8-16.6,13.9c-14.7,2.1-16.7-8-16.7-8Z"/><path class="et" d="M560.8,230.1c2.2-2.5,6.1-4.9,12.6-5.7,6-.8,10.6,.2,14,2-2.4,2.9-6.4,5.8-13,6.8-7.1,1-11.2-.8-13.6-3Z"/><path class="es" d="M518.6,168.7c4.5,0,8.5,5.5,8.9,12.3,.4,6.8-2.9,12.3-7.4,12.3s-8.5-5.5-8.9-12.3c-.4-6.8,2.9-12.3,7.4-12.3Z"/><path class="es" d="M624.2,156.4c-5.2,.5-9.2,6.4-9,13.2,.2,6.8,4.6,11.9,9.8,11.4s9.2-6.4,9-13.2c-.2-6.8-4.6-11.9-9.8-11.4Z"/><path class="by" d="M602.3,107.8c.6-5.9-1.4-11.7-1.4-11.7,0,0,3.2,.7,5.8,7.3,1.1,2.9,1.8,5.7,2.2,8,1.4-.4,3.5-.9,5.7-1,4.2-.2,5.3,1.4,5.3,1.4,0,0-4.8,.4-7.9,2.9,2.7-.3,5.6,.3,8.4,2.6,9.2,7.6,5.7,39.2,5.7,39.2-7.6,0-7.3,15.1-3.9,21.7,0,0-10.8-5.1-13.6-19.9-8.1,5-22.5,12.2-43.6,16.5-27.6,5.7-38.7-2.4-42.1-6.1h0c-.7,5.6,.2,20,.2,20-5.1-4.5-7.9-14.5-5.7-21.6,0,0,4.6-2.8,5.5-.2l85.3-13c0-1.2-.1-2.4,0-3.7-12.3,6-73.1,8.2-73.1,8.2,0,0-14,4.3-19.3-2.9-1.4-1.9-6.3-30.6,14.9-46,11.7-8.5,35-19.7,63.8-6.7,3.2,1.4,5.8,3.2,8,5.1Z"/><path class="ew" d="M521.1,146.8l-5.3,9.5-9.4,14.1s3.7,3.8,4.2,4.1c5.2,2.4,23.8-9.4,48-9.6,27.4-.2,44.8,3.5,55.8-3.4,9.7-6.1,10-11.2,8.7-13.7-1.3-2.5-47.2-9.1-49.5-11-2.4-1.9-52.5,10-52.5,10Z"/><path class="cj" d="M517.9,143.6l-5.3,9.5s-9,11-6.4,17.1c2.7,6,22.5-8.2,49.1-8.4,27.4-.2,47.3,3.5,58.3-3.5,11-6.9,10.5-9.2,9.2-11.7-1.3-2.5-50.1-11-52.5-13-2.4-1.9-52.5,10-52.5,10Z"/><path class="ci" d="M502.8,447.3s-1.9-15.7,12.3-28.1c11.4-10,25.6-7.4,25.6-7.4l22.5,38.2s5.5,5.4,13.2,7.8c2.5,.8,7.9-.5,9.7,1,4.9,4.2-1.8,24.1-1.8,24.1,0,0-12.1,13.3-26.4,18.1-14.2,4.7-23.4-22.2-23.4-22.2l-31.7-31.5Z"/><path class="cn" d="M520,415.7c0,0-14.3,16.9-11,25.7,3.2,8.8,35,36.2,35,36.2,0,0-2.9,3.5-6.7,7.7-1.8-3.6-2.7-6.4-2.7-6.4l-31.7-31.5s-1.9-15.8,12.3-28.1c1.6-1.4,3.3-2.5,4.9-3.5Z"/><path class="ez" d="M670.9,259.3l-188.1,455.6-16.8-6.9,96.8-234.4,91.3-221.2c5.6,2.3,11.2,4.6,16.8,6.9Z"/><path class="cm" d="M474.4,711.4l-8.3-3.4,96.8-234.4,70.9-171.8,9.7-2.6-169,412.3Z"/><path class="bx" d="M449,718.2s3.4-6.1,5.5-9.9c1-1.9,3-3,5.1-3h25.8c2.9,0,5.4,2.2,5.8,5.1,.5,3.8,1.1,8.4,1.1,8.4l-43.3-.6Z"/><path class="bw" d="M478.9,705.3h6.1c3.3,0,5.8,1.1,6.4,5.6,.5,3.6,.9,7.8,.9,7.8h-6.7c.6-3.4,1.1-11.3-6.8-13.4Z"/><path class="ey" d="M659.9,250.3c-1.8-.7-3.8-.7-5.6,0-1.8,.7-3.2,2.2-3.9,4-5.7,14.3-18.5,46.2-18.5,46.2-.3,6,14.7,13,21.5,7.1,0,0,12.3-31,17.8-44.9,1.5-3.7-.3-7.9-4-9.4-2.4-1-5-2-7.4-3Z"/><path class="ct" d="M644.1,309.6c-6.2-1-12.4-5.2-12.2-9.1,0,0,12.8-31.9,18.5-46.2,.7-1.8,2.1-3.2,3.9-4,1.8-.8,3.8-.8,5.6,0l2.1,.9c-1.8-.2-3.2,.4-4.1,1-.9,.6-1.6,1.7-2.1,2.7-3.3,7.3-17.1,38.7-16.8,44.2,.4,6.3,5,10.5,5,10.5Z"/><path class="cs" d="M562.5,450.1c-3-.8-32.9,16.9-28.4,36.9,2.4,10.7,9.8,24.8,20.5,25,8.7,.2,19.2-6.5,27.2-15.9,7.1-8.3,8.4-18.2,5.2-21.4-1.1-1.1-3-.5-5.1,.1-9.8,3.1-15.2-11-15.2-11l5-12.1c-2.5-1.4-7.8-2.2-9.3-1.7Z"/><path class="cp" d="M551,456.2c-4.5,3.5-15.8,14.2-11,31,3,10.5,13.1,18.3,22.4,23.5-2.7,1-5.3,1.5-7.8,1.4-10.7-.2-18.1-14.3-20.5-25-2.8-12.6,7.8-24.2,16.9-30.9Z"/><path class="co" d="M616.4,625.2c0-.5-.2-.9-.5-1.2-.4-.3-.9-.4-1.3-.2-24.1,8.1-50.6,7-65.5-.8-.5-.3-1.1-.3-1.5,0-.5,.3-.7,.9-.5,1.4,2.7,11.7,11.9,52.5,11.9,52.5,0,0-18-4.2-35.1,4.9-10.6,5.6-14.7,22-14.2,30.3,.2,3.3,12.2,6.6,21.5,7.4,51.1,4.4,79.7-5.9,79.7-5.9,0,0,4-65.2,5.6-88.4Z"/><path class="cr" d="M546.3,676c-9.5,1.6-23.3,10.6-26.5,23.2-2.1,8.4,.5,15.3,2.4,19-6.7-1.4-12.4-3.7-12.6-6-.5-8.3,3.6-24.7,14.2-30.3,7.9-4.2,16-5.6,22.5-5.8Z"/><path class="cq" d="M616.4,625.8c-1.6,24.5-5.5,87.8-5.5,87.8,0,0-8.1,2.9-23.4,5,4.5-2.4,9.1-5.6,10.1-8.9,2.2-7,4.9-79.5,4.9-79.5,0,0,9.1-1.8,13.9-4.4Z"/><path class="ep" d="M545.2,615.1s-3.5,17.4-3.1,21.3c.4,3.9,16.8,40.5,16.8,40.5,0,0,3.1,.1,6.1,4.3,3,4.2,4.7,7.6,4.7,7.6l-13.2-59.4s25.6,3.2,32.9-.5c7.4-3.8-31.8-25.6-31.8-25.6l-12.4,11.8Z"/><path class="dj" d="M557.4,670.4c-2.7-12-8.4-37.1-10.4-45.9-.1-.5,0-1.1,.5-1.4,.4-.3,1-.4,1.5,0,9.8,5.1,24.6,7.4,40.4,6h0c-15.7,2.8-32.7,1.4-32.7,1.4l13,58.5s-1.7-3.3-4.7-7.6c-3-4.2-6.1-4.3-6.1-4.3l-1.5-6.6Z"/><g><path class="eu" d="M400.9,732.4l-8.9,2.9s-5.8-.4-7.8,1.7c-2,2.1-3.7,6.4,.7,7.7,3.8,1.2,121.7,.3,151.3,0,7.4,0,5.9-4.6,5.9-4.6,0-2.6-4.3-4.6-7.8-4.6h-11l-122.2-3.1Z"/><path class="dk" d="M453.5,713h70c0,0,10.2,23.7,10.2,23.7l-104.9-.2,24.7-23.5Z"/><path class="di" d="M407.8,713h109.7l10.2,23.8-137.1-.3,17.2-23.5Z"/></g><path class="dm" d="M619.6,144.5l3.5,2.9h4.3c.9-2.9,.7-5.7,0-8.5l-4.5-5.5-4.6,6.2,1.3,4.9Z"/><path class="dq" d="M625.7,369.1s-8.8,2.8-14.4-1c-2.6-1.8-2.9-5.3-2.9-5.3l1.4-3.5s-1.4-1.3-6.6-.3c-.9,.2-2.9,1.1-3.5,1.3-3.8,1.2-11.4,20-12.2,24.6-.9,4.7-.7,12.8,2.8,18.2,3.5,5.4,18,8.5,24.2,8,6.2-.5,18.2-9.6,18.2-9.6,15-14.2,11-24,7.1-33.8l-14.1,1.4Z"/><path class="ep" d="M587.5,369.9l4.5,2.7s-5.9,28.8,15,34.6c20.9,5.8,22.4,4.1,22.4,4.1l-22.4,11.2s-31.5-1.3-31.2-7.1c.3-5.8,1.1-18.4,1.1-22.1s2-9.7,5.1-15.3c3.1-5.6,5.5-8.1,5.5-8.1Z"/><path class="dr" d="M592,372.6c0,.2-5.9,28.9,15,34.6,4.8,1.3,8.6,2.2,11.6,2.9-1.5,.6-2.9,1-4.1,1.1-6.2,.5-20.8-2.6-24.2-8-3.5-5.4-3.6-13.5-2.8-18.2,.4-2.2,2.2-7.4,4.5-12.5Z"/><path class="dp" d="M512.1,136.5s13.7-15.3,51.8-18.8c38.1-3.5,59.2,15.8,59.2,15.8v13.9s-28.3-10.8-66.9-4.8c-38.6,6.1-44,11-44,11v-17.1Z"/><path class="df" d="M521,130.1c-.5,5-.9,12.8,1.5,14.4,3.7,2.3,22.6,0,22.6,0h0c-28.6,5.2-33.1,9.2-33.1,9.2v-17.1s2.9-2.9,8.9-6.4Z"/><path class="dn" d="M512.2,153.7c1.8-1.3,5-2.5,7.8-3.3,0,0-8.3,10.1-6.9,14.5,1.5,4.5,20.8-1.2,32.7-2.5h0c-21.7,2.8-37.2,13-39.6,7.7-2.7-6,5.9-16.5,5.9-16.5Z"/><path class="do" d="M193.1,612l-121.1,.4,22.2,89.1c14.9,16.4,82.1,19.4,107.8,0l-8.9-89.5Z"/><ellipse class="fb" cx="129.4" cy="612" rx="57.4" ry="9.8"/><path class="dl" d="M131.1,509s-11.7-47.9-2.1-66.3c12.9-24.7,1.9-32.6,2.1-47.9,.1-11.9,17-24.8,31.4-13.6,17.1,13.2,.8,31.5,12.2,44.5,19.2,22,3.9,41.4,14.1,60.2,3.4,6.2,16.2,11.9,17.7,32.3,1,13.7-7.7,23.3-5.3,34.7,12.1,57-71.9,6.8-82.5-11.5-10.6-18.3,12.4-32.4,12.4-32.4Z"/><path class="fi" d="M151,403.2v1.9c.1,0,.3,1.9,.3,1.9l.2,1.9,.2,1.9,.2,1.9,.2,1.9,.2,1.8,.2,1.8,.2,1.8,.2,1.8,.2,1.8,.2,1.8,.2,1.8,.2,1.8,.2,1.7,.2,1.7,.2,1.7,.2,1.7,.2,1.7,.2,1.7,.2,1.7,.2,1.7,.2,1.7,.2,1.7,.2,1.6,.2,1.7,.2,1.6,.2,1.6,.2,1.6,.2,1.6,.2,1.6,.2,1.6,.2,1.6,.2,1.6,.2,1.6,.2,1.6,.2,1.6,.2,1.5,.2,1.5,.2,1.5,.2,1.5,.2,1.5,.2,1.5,.2,1.5,.2,1.5,.2,1.5,.2,1.5,.2,1.5,.2,1.5,.2,1.5,.2,1.5,.2,1.5,.2,1.5,.2,1.5,.2,1.4,.2,1.4,.2,1.4,.2,1.4,.2,1.4,.2,1.4,.2,1.4,.2,1.4,.2,1.4,.2,1.4,.2,1.4,.2,1.4,.5,2.8,.5,2.8,.5,2.7,.5,2.7,.5,2.7,.5,2.7,.5,2.7,.5,2.7,.5,2.7,.5,2.7,.5,2.7,.5,2.7,.5,2.7,1,5.3,1,5.3,1,5.3,.5,2.7,.5,2.7,.5,2.7,.5,2.7,.5,2.7,.5,2.7,.5,2.7,.5,2.7,.5,2.7,.5,2.7,.5,2.8,.5,2.8-.4,1.9-1.6,1h0l-1.9-.4-1-1.6h0s-.4-2.8-.4-2.8l-.4-2.8-.4-2.8-.4-2.7-.4-2.7-.4-2.7-.4-2.7-.4-2.7-.4-2.7-.4-2.7-.4-2.7-.4-2.7-.9-5.3-.9-5.3-.9-5.3-.4-2.7-.4-2.7-.4-2.7-.4-2.7-.4-2.7-.4-2.7-.4-2.7-.4-2.7-.4-2.7-.4-2.7-.4-2.8-.4-2.8-.4-2.8-.2-1.4-.2-1.4-.2-1.4-.2-1.4-.2-1.4-.2-1.4-.2-1.4-.2-1.4-.2-1.4-.2-1.5-.2-1.4-.2-1.5-.2-1.5-.2-1.5-.2-1.5-.2-1.5-.2-1.5-.2-1.5-.2-1.5-.2-1.5-.2-1.5-.2-1.5-.2-1.5-.2-1.5-.2-1.5-.2-1.5-.2-1.5-.2-1.6-.2-1.6-.2-1.6-.2-1.6-.2-1.6-.2-1.6-.2-1.6-.2-1.6-.2-1.6-.2-1.6-.2-1.6-.2-1.6-.2-1.6-.2-1.7-.2-1.7-.2-1.7-.2-1.7-.2-1.7-.2-1.7-.2-1.7-.2-1.7-.2-1.7v-1.7c-.1,0-.3-1.7-.3-1.7v-1.8c-.1,0-.3-1.8-.3-1.8v-1.8c-.1,0-.3-1.8-.3-1.8v-1.8c-.1,0-.3-1.8-.3-1.8v-1.8c-.1,0-.3-1.8-.3-1.8v-1.8c-.1,0-.3-1.9-.3-1.9v-1.9c-.1,0-.3-1.9-.3-1.9v-1.9c-.1,0-.3-1.9-.3-1.9v-1.9c-.1,0,.8-1.1,.8-1.1l1.1,.9Z"/><path class="fi" d="M137.9,459.6v.3s0,.3,0,.3v.3s0,.3,0,.3v2.3s0,.2,0,.2v.2s0,.2,0,.2v.2s0,.2,0,.2v.5s0,.2,0,.2v.2s0,.2,0,.2v.2s0,.2,0,.2v.2c0,0,0,.2,0,.2v.2s0,.2,0,.2v.2s0,.2,0,.2v.2s0,.2,0,.2v.2c0,0,0,.2,0,.2v.2c0,0,.1,.2,.1,.2v.2c0,0,.1,.2,.1,.2v.2c0,0,.1,.2,.1,.2v.2c0,0,.1,.2,.1,.2v.2c0,0,.1,.2,.1,.2v.2c0,0,.1,.2,.1,.2v.2c0,0,.1,.2,.1,.2v.2c0,0,.1,.2,.1,.2v.2c0,0,.1,.2,.1,.2v.2c0,0,.2,.2,.2,.2v.2c0,0,.1,.2,.1,.2v.2c0,0,.2,.2,.2,.2v.2c0,0,.2,.2,.2,.2v.2c0,0,.2,.2,.2,.2v.2c0,0,.2,.2,.2,.2v.2c0,0,.2,.2,.2,.2v.2c0,0,.2,.2,.2,.2v.2c0,0,.2,.2,.2,.2v.2c.1,0,.2,.2,.2,.2v.2c0,0,.2,.2,.2,.2v.2c.1,0,.2,.2,.2,.2v.2c0,0,.2,.2,.2,.2v.2c.1,0,.2,.2,.2,.2v.2c.1,0,.2,.2,.2,.2v.2c.1,0,.2,.2,.2,.2v.2c.1,0,.2,.1,.2,.1v.2c.1,0,.2,.2,.2,.2h.1c0,.1,.1,.3,.1,.3h.1c0,.1,.1,.3,.1,.3v.2c.1,0,.4,.3,.4,.3l.2,.3,.2,.3,.3,.3,.2,.3,.3,.3,.2,.3,.3,.3,.3,.3,.3,.3,.2,.3,.3,.3,.3,.2,.3,.2,.3,.2,.3,.2,.3,.2,.3,.2,.3,.2,.3,.2,.3,.2,.3,.2,.3,.2,.3,.2,.3,.2,.3,.2,.2,.2,.3,.2,.3,.2,.3,.2,.3,.2,.2,.2,.3,.2,.2,.2,.3,.2h.2c0,.1,.2,.3,.2,.3h.2c0,.1,.3,.3,.3,.3h.2c0,.1,.2,.3,.2,.3h.2c0,.1,.2,.3,.2,.3h.2c0,.1,.2,.3,.2,.3h.2c0,.1,.2,.2,.2,.2h.2c0,.1,.2,.2,.2,.2h.2c0,0,.2,.2,.2,.2l.4,.2,.3,.2,.3,.2h.3c0,.1,.3,.3,.3,.3h.3c0,.1,.2,.2,.2,.2h.2c0,0,.2,.2,.2,.2h.2c0,0,.1,.1,.1,.1h.2c0,0,0,0,0,0l.9,2.3-2.3,.9h0s-.2-.1-.2-.1h-.2c0,0-.2-.2-.2-.2h-.2c0-.1-.2-.2-.2-.2h-.3c0-.1-.3-.3-.3-.3l-.3-.2-.3-.2-.3-.2-.4-.2-.4-.2h-.2c0-.1-.2-.2-.2-.2h-.2c0-.1-.2-.3-.2-.3h-.2c0-.1-.2-.3-.2-.3h-.2c0-.1-.2-.3-.2-.3l-.2-.2h-.2c0-.1-.2-.3-.2-.3l-.3-.2-.2-.2-.3-.2-.2-.2-.3-.2-.3-.2-.2-.2-.3-.2-.3-.2-.3-.2-.3-.2-.3-.2-.3-.2-.3-.2-.3-.2-.3-.2-.3-.2-.3-.2-.3-.2-.3-.2-.3-.3-.3-.2-.3-.3-.3-.3-.3-.3-.3-.3-.3-.3-.3-.3-.3-.3-.3-.3-.3-.3-.3-.3-.3-.3-.2-.3-.3-.3-.3-.3-.2-.3-.3-.3-.2-.3-.2-.3v-.2c-.1,0-.2-.2-.2-.2v-.2c-.1,0-.2-.2-.2-.2v-.2c-.1,0-.2-.2-.2-.2v-.2c-.1,0-.2-.2-.2-.2v-.2c-.1,0-.2-.2-.2-.2v-.2c0,0-.2-.2-.2-.2v-.2c-.1,0-.2-.2-.2-.2v-.2c0,0-.2-.2-.2-.2v-.2c-.1,0-.2-.2-.2-.2v-.2c-.1,0-.2-.2-.2-.2v-.2c0,0-.2-.2-.2-.2v-.2c0,0-.2-.2-.2-.2v-.2c0,0-.2-.2-.2-.2v-.2c0,0-.2-.2-.2-.2v-.2c0,0-.2-.2-.2-.2v-.2c0,0-.2-.2-.2-.2v-.2c0,0-.1-.2-.1-.2v-.2c0,0-.2-.2-.2-.2v-.2c0,0-.1-.2-.1-.2v-.2c0,0-.1-.2-.1-.2v-.2c0,0-.2-.2-.2-.2v-.2c0,0-.1-.2-.1-.2v-.2c0,0-.1-.2-.1-.2v-.2c0,0-.1-.2-.1-.2v-.2c0,0-.1-.2-.1-.2v-.2c0,0-.1-.2-.1-.2v-.2c0,0-.1-.2-.1-.2v-.2c0,0-.1-.2-.1-.2v-.2s0-.2,0-.2v-.2s0-.2,0-.2v-.2s0-.2,0-.2v-.2s0-.2,0-.2v-.2s0-.2,0-.2v-.2s0-.2,0-.2v-.2s0-.2,0-.2v-.2s0-.3,0-.3v-.5s0-.2,0-.2v-.3s0-.3,0-.3v-2.1s0-.3,0-.3v-.5s0-.3,0-.3v-.5s0-.3,0-.3v-.3s0-.3,0-.3l.8-.7,.6,.8Z"/><path class="fi" d="M181.3,498.7v.2c0,0,.2,.3,.2,.3v.3c0,0,.2,.2,.2,.2v.3c0,0,.1,.2,.1,.2v.3c0,0,.1,.3,.1,.3v.3c0,0,.1,.3,.1,.3v.3c0,0,.1,.3,.1,.3v.3c0,0,.1,.3,.1,.3v.3c0,0,.1,.3,.1,.3v.2c0,0,.1,.3,.1,.3v.3s0,.2,0,.2v.3s0,.2,0,.2v.3s0,.2,0,.2v.2c0,0,0,.2,0,.2v.2s0,.2,0,.2v.2s0,.2,0,.2v.2s0,.2,0,.2v.2s0,.2,0,.2v.2s0,.2,0,.2v.2s0,.2,0,.2v.2s0,.2,0,.2v.2s0,.2,0,.2v.2s0,.2,0,.2v.2s0,.2,0,.2v.2s0,.2,0,.2v.2s0,.2,0,.2v.2s0,.2,0,.2v.2s0,.2,0,.2v.2s0,.2,0,.2v.2s0,.2,0,.2v.2s0,.2,0,.2v.2s0,.2,0,.2v.2c0,0,0,.2,0,.2v.2c0,0-.1,.2-.1,.2v.2s0,.2,0,.2v.2s0,.2,0,.2v.2c0,0-.1,.2-.1,.2v.2c0,0-.1,.2-.1,.2v.2s-.1,.2-.1,.2v.2s-.1,.2-.1,.2v.2c0,0-.1,.2-.1,.2v.2c0,0-.1,.2-.1,.2v.2c0,0-.1,.2-.1,.2v.2c0,0-.1,.2-.1,.2v.2c0,0-.1,.2-.1,.2v.2c0,0-.1,.2-.1,.2v.2c0,0-.1,.2-.1,.2v.2c0,0-.1,.2-.1,.2v.4c-.1,0-.3,.4-.3,.4l-.2,.4v.4c-.1,0-.3,.4-.3,.4l-.2,.4-.2,.3-.2,.4-.2,.3-.2,.4-.2,.3-.2,.3-.2,.3-.2,.3-.2,.3-.2,.3-.2,.3-.2,.3-.2,.3-.2,.3-.2,.3-.2,.3-.2,.3-.2,.3-.2,.3-.2,.3-.2,.3-.2,.3-.2,.3-.2,.3-.2,.3-.2,.2-.2,.2-.2,.2-.2,.2-.2,.2-.2,.2-.2,.2-.2,.2-.2,.2-.2,.2-.2,.2-.2,.2-.2,.2-.2,.2-.2,.2-.2,.2-.2,.2-.2,.2-.2,.2-.2,.2-.3,.3-.3,.3-.3,.3-.3,.2-.2,.2-.2,.2-.2,.2-.2,.2-.2,.2h-.1c0,.1-.1,.2-.1,.2h-.2c0,.1,0,.2,0,.2l-2.5-.4,.4-2.5h0s.2-.1,.2-.1h0c0,0,.2-.2,.2-.2h.1c0-.1,.2-.3,.2-.3l.2-.2,.2-.2,.2-.2,.3-.2,.3-.2,.3-.2,.3-.3,.2-.2h.2c0-.1,.2-.3,.2-.3l.2-.2,.2-.2,.2-.2,.2-.2,.2-.2,.2-.2,.2-.2,.2-.2,.2-.2,.2-.2,.2-.2,.2-.2,.2-.2,.2-.2,.2-.2,.2-.2,.2-.2,.2-.2,.2-.2,.2-.2,.2-.2,.2-.2,.2-.2,.2-.2,.2-.3,.2-.2,.2-.3,.2-.3,.2-.3,.2-.3,.2-.3,.2-.3,.2-.3,.2-.3,.2-.3,.2-.3,.2-.3,.2-.3,.2-.3,.2-.3,.2-.3,.2-.3,.2-.3,.2-.3,.2-.3,.2-.3,.2-.3,.2-.3v-.2c0,0,.2-.2,.2-.2v-.2c0,0,.2-.2,.2-.2v-.2c0,0,.2-.2,.2-.2v-.2c0,0,.1-.2,.1-.2v-.2c0,0,.2-.2,.2-.2v-.2c0,0,.1-.2,.1-.2v-.2c0,0,.1-.2,.1-.2v-.2c0,0,.2-.2,.2-.2v-.2s.1-.2,.1-.2v-.2c0,0,.1-.2,.1-.2v-.2s.1-.2,.1-.2v-.2c0,0,.1-.2,.1-.2v-.2s.1-.2,.1-.2v-.2s0-.2,0-.2v-.2s.1-.2,.1-.2v-.2s0-.2,0-.2v-.2s0-.2,0-.2v-.2s0-.2,0-.2v-.2s0-.2,0-.2v-.2s0-.2,0-.2v-.2s0-.2,0-.2v-.2s0-.2,0-.2v-.2s0-.2,0-.2v-.2s0-.2,0-.2v-.2s0-.2,0-.2v-.2s0-.2,0-.2v-.2s0-.2,0-.2v-.2s0-.2,0-.2v-.2s0-.2,0-.2v-.2s0-.2,0-.2v-.2s0-.2,0-.2v-.2s0-.2,0-.2v-.2s0-.2,0-.2v-.2s0-.2,0-.2v-.2s0-.2,0-.2v-.2s0-.2,0-.2v-.2s0-.2,0-.2v-.2s0-.2,0-.2v-.2s0-.2,0-.2v-.2c0,0,0-.2,0-.2v-.2c0,0,0-.2,0-.2v-.3c0,0-.1-.2-.1-.2v-.2c0,0-.1-.3-.1-.3v-.2c0,0-.1-.3-.1-.3v-.3c0,0-.1-.3-.1-.3v-.3c0,0-.1-.2-.1-.2v-.3c0,0-.1-.2-.1-.2l.5-.9,.9,.5Z"/><ellipse class="cw" cx="129.4" cy="611" rx="50.3" ry="7.5"/><path class="dg" d="M108.6,617.8s-45.1-31.1-31.8-63.6c12.2-29.9-13-24.7-22.3-49.9-7.4-20.3,18.3-47.8,0-74-19.7-28.3-3-51.8,8-56.9,22.5-10.6,47.2,10.3,49.2,31.8,2.1,21.5-4,30,5.6,41,12.8,14.6,29.6,20.8,28,49.1-2.8,49,23.9,36.4,24.5,64.9,.5,28.5-34.4,58.4-34.4,58.4-9,.1-17.9,0-26.8-.7Z"/><path class="fi" d="M99.3,442.5l.9,.5h0s0,.2,0,.2h0c0,.1,0,.3,0,.3v.2s.1,.2,.1,.2v.2c0,0,.1,.3,.1,.3v.3c0,0,.2,.3,.2,.3v.4c0,0,.2,.4,.2,.4v.4c.1,0,.2,.5,.2,.5v.5c.1,0,.2,.5,.2,.5v.6c.1,0,.3,.6,.3,.6v.7c.1,0,.3,.7,.3,.7v.8c.1,0,.3,.8,.3,.8l.2,.9v.9c.1,0,.3,.9,.3,.9l.2,1,.2,1.1,.2,1.1,.2,1.2,.2,1.2v.3s0,.3,0,.3v.3s0,.3,0,.3v.3s0,.3,0,.3v.3s0,.3,0,.3v.3s0,.3,0,.3v.3s0,.3,0,.3v.3s0,.3,0,.3v1.6s0,.3,0,.3v.7s0,.3,0,.3v.3s0,.3,0,.3v.3s0,.3,0,.3v.3s0,.3,0,.3v.3s0,.3,0,.3v.3s0,.3,0,.3v.3s0,.3,0,.3v.3s0,.3,0,.3v.3s-.1,.3-.1,.3v.3s-.1,.3-.1,.3v.3s-.1,.3-.1,.3v.3c0,0-.1,.3-.1,.3v.3c0,0-.1,.3-.1,.3v.3c0,0-.1,.3-.1,.3v.3c0,0-.1,.3-.1,.3v.3c0,0-.1,.3-.1,.3v.3c0,0-.1,.3-.1,.3v.3c0,0-.2,.6-.2,.6v.6c-.1,0-.3,.5-.3,.5v.5c-.1,0-.3,.5-.3,.5l-.2,.5v.5c-.1,0-.3,.5-.3,.5v.5c-.1,0-.3,.5-.3,.5v.5c-.1,0-.3,.4-.3,.4v.4c-.1,0-.3,.4-.3,.4v.4c-.1,0-.3,.4-.3,.4v.4c-.1,0-.3,.4-.3,.4v.3c-.1,0-.3,.3-.3,.3v.3c-.1,0-.2,.3-.2,.3v.3c-.1,0-.2,.3-.2,.3l-.2,.5-.2,.4v.3c-.1,0-.2,.2-.2,.2v.2c0,0-2.5,.8-2.5,.8l-.9-2.4v-.2c0,0,.2-.2,.2-.2v-.3c.1,0,.3-.4,.3-.4l.2-.4v-.3c.1,0,.2-.3,.2-.3v-.3c.1,0,.3-.3,.3-.3v-.3c.1,0,.3-.3,.3-.3v-.4c.1,0,.3-.4,.3-.4v-.4c.1,0,.3-.4,.3-.4l.2-.4,.2-.4,.2-.4,.2-.4,.2-.4,.2-.5,.2-.5,.2-.5,.2-.5,.2-.5,.2-.5,.2-.5,.2-.5,.2-.5v-.3c0,0,.2-.3,.2-.3v-.3c0,0,.1-.3,.1-.3v-.3c0,0,.2-.3,.2-.3v-.3c0,0,.1-.3,.1-.3v-.3c0,0,.1-.3,.1-.3v-.3c0,0,.1-.3,.1-.3v-.3c0,0,.1-.3,.1-.3v-.3c0,0,.1-.3,.1-.3v-.3c0,0,.1-.3,.1-.3v-.3c0,0,.1-.3,.1-.3v-.3c0,0,.1-.3,.1-.3v-.3c0,0,.1-.3,.1-.3v-.3c0,0,.1-.3,.1-.3v-.3s0-.3,0-.3v-.3s0-.3,0-.3v-.3s0-.3,0-.3v-.3s0-.3,0-.3v-.3s0-.3,0-.3v-.3s0-.3,0-.3v-.3s0-.3,0-.3v-.3s0-.3,0-.3v-.3s0-.3,0-.3v-1.5s0-.3,0-.3v-.6s0-.3,0-.3v-.3s0-.3,0-.3v-.3s-.1-1.2-.1-1.2v-1.2c-.1,0-.3-1.1-.3-1.1v-1.1c-.1,0-.3-1-.3-1v-.9c-.1,0-.2-.9-.2-.9v-.9c-.1,0-.2-.8-.2-.8v-.8c-.1,0-.2-.7-.2-.7v-.7c0,0-.2-.6-.2-.6v-.6c0,0-.2-.5-.2-.5v-.5c0,0-.2-.5-.2-.5v-.4c0,0-.1-.4-.1-.4v-.4c0,0-.1-.3-.1-.3v-.3c0,0-.1-.3-.1-.3v-.2c0,0-.1-.2-.1-.2v-.2s0-.1,0-.1h0c0-.1,0-.2,0-.2h0s.5-.9,.5-.9Z"/><path class="fi" d="M67.2,418.7v.3c.1,0,.2,.3,.2,.3v.3c.1,0,.2,.3,.2,.3v.3c.1,0,.2,.3,.2,.3v.3c.1,0,.2,.2,.2,.2v.3c.1,0,.2,.2,.2,.2v.2c.1,0,.2,.2,.2,.2v.2c.1,0,.3,.2,.3,.2v.2c.1,0,.2,.2,.2,.2v.2c.1,0,.3,.2,.3,.2v.2c.1,0,.3,.2,.3,.2v.2c.1,0,.3,.2,.3,.2v.2c.1,0,.3,.2,.3,.2v.2c.1,0,.3,.2,.3,.2v.2c.1,0,.3,.2,.3,.2v.2c.1,0,.3,.2,.3,.2v.2c.1,0,.3,.2,.3,.2v.2c.1,0,.3,.2,.3,.2v.2c.1,0,.3,.2,.3,.2v.2c.1,0,.3,.2,.3,.2v.2c.1,0,.3,.2,.3,.2v.2c.1,0,.3,.1,.3,.1h.1c0,.1,.1,.3,.1,.3h.1c0,.1,.1,.3,.1,.3h.1c0,.1,.1,.3,.1,.3h.1c0,.1,.1,.3,.1,.3h.1c0,.1,.1,.3,.1,.3h.1c0,.1,.1,.2,.1,.2h.1c0,.1,.1,.2,.1,.2h.1c0,.1,.1,.2,.1,.2h.1c0,0,.1,.2,.1,.2h.1c0,0,.1,.2,.1,.2h.1c0,0,.1,.2,.1,.2h.1c0,0,.1,.2,.1,.2h.1c0,0,.1,.2,.1,.2h.1c0,0,.1,.2,.1,.2l.3,.2,.2,.2h.2c0,.1,.2,.3,.2,.3h.2c0,.1,.2,.2,.2,.2h.2c0,.1,.2,.2,.2,.2h.2c0,0,.2,.2,.2,.2h.2c0,0,.2,.2,.2,.2h.2c0,0,.1,.1,.1,.1h.1c0,0,.1,.1,.1,.1h.1c0,0,.1,.1,.1,.1h.1s0,0,0,0h0s.1,0,.1,0h.1s0,0,0,0h0s1.1,2.3,1.1,2.3l-2.3,1.1h0s0,0,0,0h-.2c0,0-.2-.1-.2-.1h-.1c0,0-.1-.1-.1-.1h-.1c0,0-.1-.1-.1-.1h-.2c0,0-.2-.2-.2-.2h-.2c0,0-.2-.2-.2-.2h-.2c0-.1-.2-.2-.2-.2h-.2c0-.1-.2-.3-.2-.3h-.2c0-.1-.2-.3-.2-.3l-.2-.2-.2-.2-.2-.2-.3-.2-.2-.2-.3-.2-.2-.2h-.1c0-.1-.1-.2-.1-.2h-.1c0-.1-.1-.2-.1-.2h-.1c0-.1-.1-.2-.1-.2h-.1c0-.1-.1-.3-.1-.3h-.1c0-.1-.1-.3-.1-.3h-.1c0-.1-.1-.3-.1-.3h-.1c0-.1-.1-.3-.1-.3h-.1c0-.1-.1-.3-.1-.3h-.1c0-.1-.1-.3-.1-.3v-.2c-.1,0-.3-.2-.3-.2v-.2c-.1,0-.3-.2-.3-.2v-.2c-.1,0-.3-.2-.3-.2v-.2c-.1,0-.3-.2-.3-.2v-.2c-.1,0-.3-.2-.3-.2v-.2c-.1,0-.3-.2-.3-.2v-.2c-.1,0-.3-.2-.3-.2v-.2c-.1,0-.3-.2-.3-.2v-.2c-.1,0-.3-.2-.3-.2v-.2c-.1,0-.3-.2-.3-.2v-.2c-.1,0-.2-.2-.2-.2v-.2c-.1,0-.3-.2-.3-.2v-.2c-.1,0-.3-.2-.3-.2v-.2c-.1,0-.2-.2-.2-.2v-.2c-.1,0-.2-.2-.2-.2v-.2c-.1,0-.2-.2-.2-.2v-.2c-.1,0-.2-.2-.2-.2v-.2c-.1,0-.2-.3-.2-.3v-.2c0,0-.2-.3-.2-.3v-.3c-.1,0-.2-.3-.2-.3v-.3c0,0-.2-.3-.2-.3v-.3c0,0-.2-.3-.2-.3v-.3c0,0-.2-.3-.2-.3v-.3c0,0-.2-.3-.2-.3v-.3c0,0-.2-.3-.2-.3v-.3c0,0-.2-.3-.2-.3l.4-.9,.9,.5Z"/><path class="fi" d="M166,423v.2s0,.2,0,.2v.2s0,.2,0,.2v.2s0,.2,0,.2v.4s0,.4,0,.4v.4s0,.4,0,.4v.4s0,.4,0,.4v2.3s0,.4,0,.4v.7s0,.4,0,.4v.4s0,.4,0,.4v.3s0,.3,0,.3v.3s-.1,.3-.1,.3v.3s0,.3,0,.3v.3c0,0-.1,.3-.1,.3v.3c0,0-.1,.3-.1,.3v.3c0,0-.1,.3-.1,.3v.3c0,0-.2,.3-.2,.3v.3c0,0-.2,.3-.2,.3v.3c0,0-.2,.3-.2,.3v.3c0,0-.2,.3-.2,.3v.3c0,0-.2,.3-.2,.3v.3c0,0-.2,.3-.2,.3v.3c0,0-.2,.3-.2,.3v.3c0,0-.2,.3-.2,.3v.3c-.1,0-.2,.2-.2,.2v.3c-.1,0-.2,.2-.2,.2v.2c-.1,0-.2,.2-.2,.2v.2c-.1,0-.3,.2-.3,.2v.2c-.1,0-.2,.2-.2,.2v.2c-.1,0-.3,.2-.3,.2v.2c-.1,0-.3,.2-.3,.2v.2c-.1,0-.3,.2-.3,.2v.2c-.1,0-.3,.2-.3,.2v.2c-.1,0-.3,.2-.3,.2v.2c-.1,0-.3,.2-.3,.2v.2c-.1,0-.3,.2-.3,.2v.2c-.1,0-.3,.2-.3,.2v.2c-.1,0-.3,.2-.3,.2v.2c-.1,0-.3,.2-.3,.2v.2c-.1,0-.2,.2-.2,.2h-.1c0,.1-.1,.3-.1,.3h-.1c0,.1-.1,.3-.1,.3h-.1c0,.1-.2,.4-.2,.4l-.2,.3-.2,.2-.2,.2-.2,.2-.2,.2-.2,.2-.2,.2-.2,.2-.2,.2h-.2c0,.1-.1,.3-.1,.3h-.1c0,.1-.1,.2-.1,.2h-.1c0,0-.2,.2-.2,.2h-.1c0,0,0,.1,0,.1l-2.5-.5,.5-2.5h0s0,0,0,0h.1c0,0,0-.2,0-.2h.1c0,0,.1-.2,.1-.2h.1c0,0,.1-.2,.1-.2h.2c0-.1,.2-.2,.2-.2h.2c0-.1,.2-.3,.2-.3l.2-.2,.2-.2,.2-.2,.2-.2,.2-.2,.2-.2h.1c0-.1,.1-.2,.1-.2h.1c0-.1,.1-.2,.1-.2h.1c0-.1,.1-.3,.1-.3h.1c0-.1,.1-.3,.1-.3h.1c0-.1,.1-.3,.1-.3h.1c0-.1,.1-.3,.1-.3h.1c0-.1,.1-.3,.1-.3v-.2c.1,0,.3-.2,.3-.2v-.2c.1,0,.3-.2,.3-.2v-.2c.1,0,.3-.2,.3-.2v-.2c.1,0,.3-.2,.3-.2v-.2c.1,0,.3-.2,.3-.2v-.2c.1,0,.3-.2,.3-.2v-.2c.1,0,.3-.2,.3-.2v-.2c.1,0,.2-.2,.2-.2v-.2c.1,0,.3-.2,.3-.2v-.2c.1,0,.3-.2,.3-.2v-.2c.1,0,.2-.2,.2-.2v-.2c.1,0,.2-.2,.2-.2v-.2c.1,0,.2-.2,.2-.2v-.2c.1,0,.2-.2,.2-.2v-.2c.1,0,.2-.2,.2-.2v-.3c0,0,.2-.3,.2-.3v-.3c0,0,.2-.3,.2-.3v-.3c0,0,.2-.3,.2-.3v-.3c0,0,.2-.3,.2-.3v-.3c0,0,.2-.3,.2-.3v-.3c0,0,.2-.3,.2-.3v-.3c0,0,.2-.3,.2-.3v-.3c0,0,.2-.3,.2-.3v-.3c0,0,.1-.3,.1-.3v-.3c0,0,.1-.3,.1-.3v-.3c0,0,.1-.3,.1-.3v-.3s0-.3,0-.3v-.3s0-.3,0-.3v-.3s0-.3,0-.3v-.4s0-.3,0-.3v-.4s0-.4,0-.4v-.4s0-.4,0-.4v-.8s0-.4,0-.4v-.8s0-.2,0-.2v-.4s0-.2,0-.2v-.4s.6-.8,.6-.8l.8,.6Z"/><path class="fi" d="M133.7,520.7h0s0,.1,0,.1v.2c0,0,.2,.2,.2,.2h0c0,.1,0,.3,0,.3v.2c0,0,.2,.2,.2,.2v.2c0,0,.2,.2,.2,.2v.2c.1,0,.2,.2,.2,.2v.3c.1,0,.2,.3,.2,.3v.3c.1,0,.3,.3,.3,.3v.3c.1,0,.3,.3,.3,.3v.4c.1,0,.3,.4,.3,.4v.4c.1,0,.3,.4,.3,.4v.4c.1,0,.3,.4,.3,.4v.4c.1,0,.3,.5,.3,.5v.5c.1,0,.3,.5,.3,.5v.5c.1,0,.3,.5,.3,.5v.3c0,0,.1,.3,.1,.3v.3c0,0,.1,.3,.1,.3v.3c0,0,.1,.3,.1,.3v.3c0,0,.1,.3,.1,.3v.3c0,0,.1,.3,.1,.3v.3c0,0,.1,.3,.1,.3v.3c0,0,.1,.3,.1,.3v.3c0,0,.1,.3,.1,.3v.3c0,0,.1,.3,.1,.3v.3c0,0,.1,.3,.1,.3v.3c0,0,.1,.3,.1,.3v.3s.1,.4,.1,.4v.4c0,0,.1,.4,.1,.4v.4c0,0,.1,.4,.1,.4v.4c0,0,.1,.4,.1,.4v.4s0,.4,0,.4v.4s0,.4,0,.4v.4s0,.4,0,.4v.4s0,.4,0,.4v.4s0,.4,0,.4v.4s0,.4,0,.4v.4s0,.4,0,.4v.4s0,.4,0,.4v.4s0,.4,0,.4v.4s0,.4,0,.4v.4s0,.5,0,.5v.5s0,.5,0,.5v2.9s0,.5,0,.5v.5s0,.5,0,.5v.5s0,.5,0,.5v.5s0,.5,0,.5v.5s0,.5,0,.5v.5s0,.5,0,.5v.5s0,.5,0,.5v.5s-.1,.5-.1,.5v.5s-.1,.4-.1,.4v.4c0,0-.1,.4-.1,.4v.4c0,0-.1,.4-.1,.4v.4c0,0-.1,.4-.1,.4v.4c0,0-.1,.4-.1,.4v.4c0,0-.2,.4-.2,.4v.4c0,0-.2,.4-.2,.4v.4c0,0-.2,.4-.2,.4v.4c0,0-.2,.4-.2,.4v.4c0,0-.2,.4-.2,.4v.4c0,0-.2,.4-.2,.4v.4c-.1,0-.2,.4-.2,.4v.4c-.1,0-.2,.3-.2,.3v.4c-.1,0-.2,.3-.2,.3v.3c-.1,0-.2,.3-.2,.3v.3c-.1,0-.2,.3-.2,.3v.3c-.1,0-.2,.3-.2,.3v.3c-.1,0-.2,.3-.2,.3v.3c-.1,0-.2,.3-.2,.3v.3c-.1,0-.2,.3-.2,.3v.3c-.1,0-.2,.3-.2,.3v.3c-.1,0-.2,.3-.2,.3v.3c-.1,0-.2,.3-.2,.3v.3c-.1,0-.2,.3-.2,.3v.3c-.1,0-.2,.2-.2,.2v.3c-.1,0-.2,.2-.2,.2v.3c-.1,0-.2,.2-.2,.2v.2c-.1,0-.2,.2-.2,.2v.2c-.1,0-.2,.2-.2,.2v.2c-.1,0-.2,.2-.2,.2v.2c-.1,0-.2,.2-.2,.2v.2c-.1,0-.2,.2-.2,.2v.2c-.1,0-.3,.4-.3,.4l-.2,.4-.2,.3-.2,.3-.2,.3-.2,.3-.2,.3-.2,.3-.2,.3-.2,.2-.2,.2v.2c-.1,0-.3,.2-.3,.2v.2c-.1,0-.3,.1-.3,.1h-.1c0,.1-.1,.3-.1,.3h-.1c0,.1-.1,.3-.1,.3h-.1c0,.1,0,.1,0,.1h0s-1.8,.8-1.8,.8l-1.8-.7h0s-.8-1.8-.8-1.8l.8-1.7h0s0,0,0,0h0s.1-.1,.1-.1h0c0,0,0-.2,0-.2h0c0,0,.1-.2,.1-.2h.1c0-.1,.1-.3,.1-.3h.1c0-.1,.1-.3,.1-.3v-.2c.1,0,.3-.2,.3-.2l.2-.2,.2-.2,.2-.2,.2-.3,.2-.3,.2-.3,.2-.3,.2-.3h.1c0-.1,.1-.3,.1-.3v-.2c.1,0,.2-.2,.2-.2v-.2c.1,0,.2-.2,.2-.2v-.2c.1,0,.2-.2,.2-.2v-.2c.1,0,.2-.2,.2-.2v-.2c.1,0,.2-.2,.2-.2v-.2c.1,0,.2-.2,.2-.2v-.2c.1,0,.2-.2,.2-.2v-.2c.1,0,.2-.2,.2-.2v-.2c.1,0,.2-.2,.2-.2v-.2c.1,0,.2-.2,.2-.2v-.3c.1,0,.2-.3,.2-.3v-.3c.1,0,.2-.3,.2-.3v-.3c.1,0,.2-.3,.2-.3v-.3c.1,0,.2-.3,.2-.3v-.3c.1,0,.2-.3,.2-.3v-.3c.1,0,.2-.3,.2-.3v-.3c.1,0,.2-.3,.2-.3v-.3c.1,0,.2-.3,.2-.3v-.3c.1,0,.2-.3,.2-.3v-.3c.1,0,.2-.3,.2-.3v-.3c.1,0,.2-.3,.2-.3v-.3c.1,0,.2-.3,.2-.3v-.3c.1,0,.2-.4,.2-.4v-.4c.1,0,.2-.4,.2-.4v-.4c.1,0,.2-.4,.2-.4v-.4c0,0,.2-.4,.2-.4v-.4c0,0,.2-.4,.2-.4v-.4c0,0,.2-.4,.2-.4v-.4c0,0,.2-.4,.2-.4v-.4c0,0,.2-.4,.2-.4v-.4c0,0,.1-.4,.1-.4v-.4c0,0,.1-.4,.1-.4v-.4c0,0,.1-.4,.1-.4v-.4c0,0,.1-.4,.1-.4v-.5c0,0,.1-.5,.1-.5v-.5s.1-.5,.1-.5v-.5s0-.5,0-.5v-.5s0-.5,0-.5v-.5s0-.5,0-.5v-.5s0-.5,0-.5v-.5s0-.5,0-.5v-.4s0-.5,0-.5v-.4s0-.4,0-.4v-.4s0-.4,0-.4v-1.3s0-.4,0-.4v-.4s0-.4,0-.4v-.8s0-.4,0-.4v-.4s0-.4,0-.4v-.4s0-.4,0-.4v-.4s0-.4,0-.4v-.4s0-.4,0-.4v-.4s0-.4,0-.4v-.4s0-.4,0-.4v-.4s0-.4,0-.4v-.4s0-.4,0-.4v-.3s0-.3,0-.3v-.3s0-.3,0-.3v-.3s0-.3,0-.3v-.3s0-.3,0-.3v-.3s0-.3,0-.3v-.3s0-.3,0-.3v-.3c0,0-.1-.3-.1-.3v-.3s-.1-.3-.1-.3v-.3s-.1-.3-.1-.3v-.3s-.1-.3-.1-.3v-.3s-.1-.3-.1-.3v-.3c0,0-.1-.3-.1-.3v-.3c0,0-.2-.5-.2-.5v-.5c-.1,0-.2-.5-.2-.5v-.5c-.1,0-.2-.4-.2-.4v-.4c-.1,0-.2-.4-.2-.4v-.4c-.1,0-.2-.4-.2-.4v-.4c-.1,0-.2-.4-.2-.4v-.3c-.1,0-.2-.3-.2-.3v-.3c-.1,0-.2-.3-.2-.3v-.3c0,0-.2-.3-.2-.3v-.3c0,0-.2-.2-.2-.2v-.2c0,0-.2-.2-.2-.2v-.2c0,0-.1-.2-.1-.2v-.2c0,0-.1-.1-.1-.1h0c0-.1,0-.3,0-.3h0c0-.1,0-.2,0-.2h0s.4-1.3,.4-1.3l1.3,.4Z"/><path class="fi" d="M74.9,397h0c0,.1,0,.4,0,.4v.5c0,0,.1,.7,.1,.7v.4s.1,.5,.1,.5v.5c0,0,.1,.6,.1,.6v.6c0,0,.2,.7,.2,.7v.7c.1,0,.2,.8,.2,.8v.8c.1,0,.3,.8,.3,.8v.9c.1,0,.3,.9,.3,.9v.9c.1,0,.3,1,.3,1l.2,1,.2,1.1,.2,1.1,.2,1.1,.2,1.2,.2,1.2,.2,1.3,.3,1.3,.3,1.3,.3,1.4v.7c.1,0,.3,.7,.3,.7v.7c.1,0,.3,.7,.3,.7v.7c.1,0,.3,.7,.3,.7v.7c.1,0,.3,.7,.3,.7v.8c.1,0,.3,.8,.3,.8l.2,.8,.2,.8,.2,.8,.2,.8,.2,.8,.2,.8,.2,.8,.2,.8,.2,.8,.2,.8,.2,.8,.2,.8,.2,.9,.2,.9,.2,.9,.2,.9,.2,.9,.2,.9,.2,.9,.2,.9,.2,.9,.2,.9,.2,.9,.2,.9,.3,.9,.3,.9,.3,.9,.3,.9,.3,.9,.3,1,.3,1,.3,1,.3,1,.3,1,.3,1,.3,1,.3,1,.3,1,.3,1,.3,1,.3,1,.3,1,.3,1,.3,1,.3,1,.3,1,.3,1,.3,1,.3,1,.3,1,.4,1.1,.3,1.1,.4,1.1,.4,1.1,.9,2.6,.9,2.6,.9,2.7,.9,2.7,.9,2.7,.9,2.8,.9,2.8,.9,2.8,.9,2.8,1,2.9,1,2.9,1,2.9,2,5.8,1.9,5.8,2,5.9,1.9,5.8,1.9,5.8,1.9,5.8,1.9,5.7,1.8,5.6,1.8,5.5,1.7,5.3,1.7,5.2,1.6,5,1.6,4.8,1.5,4.6,1.4,4.3,1.3,4.1,2.4,7.2,1.9,5.9,1.5,4.4,1.2,3.8-.2,1.9-1.5,1.2h0s-1.9-.1-1.9-.1l-1.2-1.5h0s-1.2-3.8-1.2-3.8l-1.4-4.5-1.9-6-2.3-7.3-1.3-4.1-1.3-4.3-1.4-4.6-1.5-4.8-1.6-5-1.6-5.2-1.7-5.4-1.7-5.5-1.8-5.6-1.8-5.7-1.8-5.8-1.9-5.8-1.9-5.9-1.9-5.9-1.9-5.9-1.9-5.8-.9-2.9-.9-2.9-.9-2.9-.9-2.9-.9-2.8-.9-2.8-.9-2.8-.9-2.7-.9-2.7-.9-2.7-.8-2.6-.8-2.6-.4-1.1-.3-1.1-.3-1.1-.3-1.1-.3-1.1-.3-1.1-.3-1.1-.3-1.1-.3-1-.3-1-.3-1-.3-1-.3-1-.3-1-.3-1-.3-1-.3-1-.3-1-.3-1-.3-1-.3-1-.3-1-.3-1-.3-1-.3-1-.2-1-.3-.9-.3-.9-.2-.9-.2-.9-.2-.9-.2-.9-.2-.9-.2-.9-.2-.9-.2-.9-.2-.9-.2-.9-.2-.9-.2-.9-.2-.9-.2-.9-.2-.9-.2-.8-.2-.8-.2-.8-.2-.8-.2-.8-.2-.8-.2-.8-.2-.8-.2-.8-.2-.8-.2-.8v-.8c-.1,0-.3-.8-.3-.8v-.8c-.1,0-.3-.7-.3-.7v-.7c-.1,0-.3-.7-.3-.7v-.7c-.1,0-.3-.7-.3-.7v-.7c-.1,0-.3-.7-.3-.7l-.3-1.4-.2-1.3-.2-1.3-.2-1.3-.2-1.2-.2-1.2-.2-1.2-.2-1.1-.2-1.1-.2-1v-1c-.1,0-.3-1-.3-1v-.9c-.1,0-.3-.9-.3-.9v-.8c-.1,0-.2-.8-.2-.8v-.8c-.1,0-.2-.7-.2-.7v-.7c0,0-.2-.6-.2-.6v-.6c0,0-.1-.5-.1-.5v-.5c0,0-.1-.4-.1-.4v-.7c0,0-.1-.5-.1-.5v-.3s0-.1,0-.1l.9-1.1,1.1,.9Z"/><path class="fi" d="M78.3,501.1v.2s0,.2,0,.2v.2c0,0,.1,.2,.1,.2v.2c0,0,.1,.2,.1,.2v.2c0,0,.1,.2,.1,.2v.2c0,0,.1,.2,.1,.2v.2c0,0,.1,.2,.1,.2v.2c0,0,.2,.2,.2,.2v.2c0,0,.2,.2,.2,.2v.2c0,0,.2,.2,.2,.2v.2c0,0,.2,.2,.2,.2v.2c0,0,.2,.2,.2,.2v.2c0,0,.2,.2,.2,.2v.2c0,0,.2,.2,.2,.2v.2c.1,0,.2,.2,.2,.2v.2c.1,0,.2,.2,.2,.2v.2c.1,0,.2,.2,.2,.2v.2c.1,0,.2,.2,.2,.2v.2c.1,0,.2,.2,.2,.2v.2c.1,0,.2,.2,.2,.2v.2c.1,0,.2,.2,.2,.2v.2c.1,0,.2,.2,.2,.2v.2c.1,0,.2,.2,.2,.2v.2c.1,0,.2,.2,.2,.2v.2c.1,0,.2,.2,.2,.2v.2c.1,0,.2,.2,.2,.2v.2c.1,0,.2,.1,.2,.1v.2c.1,0,.2,.1,.2,.1h.1c0,.1,.1,.3,.1,.3h.1c0,.1,.1,.3,.1,.3h.1c0,.1,0,.3,0,.3h.1c0,.1,.1,.3,.1,.3h.1c0,.1,0,.2,0,.2l.3,.3,.3,.3,.3,.3,.3,.3,.3,.3,.3,.3,.3,.3,.3,.3,.3,.3,.3,.3,.3,.3,.3,.3,.3,.2,.3,.2,.3,.2,.3,.2,.3,.2,.3,.2,.3,.2,.3,.2,.3,.2,.2,.2,.3,.2,.3,.2,.3,.2,.3,.2,.3,.2,.2,.2,.3,.2,.2,.2,.3,.2,.2,.2h.3c0,.1,.2,.3,.2,.3h.2c0,.1,.2,.3,.2,.3h.2c0,.1,.2,.3,.2,.3h.2c0,.1,.2,.3,.2,.3h.2c0,.1,.2,.3,.2,.3h.2c0,.1,.2,.2,.2,.2h.2c0,.1,.2,.2,.2,.2h.2c0,.1,.2,.2,.2,.2h.2c0,.1,.2,.2,.2,.2h.2c0,0,.2,.2,.2,.2h.2c0,0,.2,.2,.2,.2h.2c0,0,.2,.2,.2,.2h.2c0,0,.2,.2,.2,.2h.2c0,0,.2,.1,.2,.1h.2c0,0,.2,.1,.2,.1h.2c0,0,.2,.1,.2,.1h.2c0,0,.2,.1,.2,.1h.2c0,0,.2,.1,.2,.1h.2c0,0,.2,.1,.2,.1h.2s.2,0,.2,0h.2s.2,0,.2,0h.2s.2,0,.2,0h.2s.2,0,.2,0h.1s.2,0,.2,0h.1s.2,0,.2,0h.3c0,0,.3,.1,.3,.1h.3s.3,0,.3,0h.3s.2,0,.2,0h.2s.2,0,.2,0h.2s.2,0,.2,0h.3s.1,0,.1,0h.4s.1,0,.1,0h0s1.8,.6,1.8,.6l.8,1.8h0s-.7,1.8-.7,1.8l-1.7,.8h-.6s-.1,0-.1,0h-.2s-.2,0-.2,0h-.2s-.2,0-.2,0h-.2s-.3,0-.3,0h-.3s-.3,0-.3,0h-.3s-.3-.1-.3-.1h-.3c0,0-.3-.1-.3-.1h-.3c0,0-.4-.1-.4-.1h-.3c0,0-.2-.1-.2-.1h-.2s-.2-.1-.2-.1h-.2s-.2-.1-.2-.1h-.2c0,0-.2-.1-.2-.1h-.2c0,0-.2-.1-.2-.1h-.2c0,0-.2-.1-.2-.1h-.2c0,0-.2-.1-.2-.1h-.2c0,0-.2-.1-.2-.1h-.2c0,0-.2-.2-.2-.2h-.2c0,0-.2-.2-.2-.2h-.2c0,0-.2-.2-.2-.2h-.2c0,0-.2-.2-.2-.2h-.2c0-.1-.2-.2-.2-.2h-.2c0-.1-.2-.2-.2-.2h-.2c0-.1-.2-.2-.2-.2h-.3c0-.1-.2-.3-.2-.3h-.2c0-.1-.2-.3-.2-.3h-.3c0-.1-.3-.3-.3-.3h-.2c0-.1-.3-.3-.3-.3h-.3c0-.1-.3-.3-.3-.3l-.3-.2h-.3c0-.1-.2-.3-.2-.3l-.3-.2-.3-.2-.3-.2-.3-.2-.3-.2-.3-.2-.3-.2-.3-.2-.3-.2-.3-.2-.3-.2-.3-.2-.3-.2-.3-.2-.3-.2-.3-.2-.3-.2-.3-.2-.3-.2-.3-.2-.3-.3-.3-.3-.3-.3-.3-.3-.3-.3-.3-.3-.3-.3-.3-.3-.3-.3-.3-.3-.3-.3-.3-.3-.3-.3-.3-.3-.3-.3-.3-.3-.3-.3-.3-.3-.3-.3-.3-.3h-.1c0-.1-.1-.3-.1-.3h-.1c0-.1-.1-.3-.1-.3h-.1c0-.1-.1-.3-.1-.3v-.2c-.1,0-.2-.2-.2-.2v-.2c-.1,0-.2-.2-.2-.2v-.2c-.1,0-.2-.2-.2-.2v-.2c-.1,0-.2-.2-.2-.2v-.2c-.1,0-.2-.2-.2-.2v-.2c-.1,0-.2-.2-.2-.2v-.2c-.1,0-.2-.2-.2-.2v-.2c-.1,0-.2-.2-.2-.2v-.2c-.1,0-.2-.2-.2-.2v-.2c-.1,0-.2-.2-.2-.2v-.2c-.1,0-.2-.2-.2-.2v-.2c-.1,0-.2-.2-.2-.2v-.2c-.1,0-.2-.2-.2-.2v-.2c-.1,0-.2-.2-.2-.2v-.2c-.1,0-.2-.2-.2-.2v-.2c0,0-.2-.2-.2-.2v-.2c0,0-.2-.2-.2-.2v-.2c0,0-.2-.2-.2-.2v-.2c0,0-.2-.2-.2-.2v-.2c0,0-.2-.2-.2-.2v-.2c0,0-.1-.2-.1-.2v-.2c0,0-.1-.2-.1-.2v-.2c0,0-.1-.2-.1-.2v-.2c0,0-.1-.2-.1-.2v-.2c0,0-.1-.2-.1-.2v-.2c0,0-.1-.2-.1-.2v-.2s-.1-.2-.1-.2v-.2s0-.2,0-.2v-.2s0-.2,0-.2l.8-1.2,1.2,.8Z"/><path class="dh" d="M804.9,268.4c-2.9-3.4-5.3-7.6-6.8-12.8-3.8-13.4,3-34,12.2-48.8,.7-1.2,1.5-2.3,2.2-3.4,.8-1.1,1.5-2.1,2.3-3.1,5.7-7.5,11.9-12.4,16.8-12.1,9.3,.5,27.4,18.9,34.6,57.8,1.2,6.5,0,14.9-5.3,22.4h-56Z"/><path class="de" d="M873.8,268.4h-20.3c1.2-10.8,7-16.5,4-25.5-3.1-9.3-14.4-11.7-9.7-25.8,3-9.2,7.4-7.8,0-28.9-7.4-21.1,8.8-36.2,22.8-28.8,1.4,.7,2.4,1.8,3.2,3v106Z"/><path class="fe" d="M832.1,268.4c-1.6-7.8-2.6-15.7-3.3-23.6l-.6-.2c-7.4-5.9-12.4-14.6-12.7-24.7,0-1.5,1.3-2.2,1.1-1.6,0,0,.5,1.2,.5,1-.2,7.9,5.3,15.8,11.4,20.5-.7-11.3-.5-22.7,.3-33.9,0-.6,.2-1.5,.2-1.5l.9-.6c.2,.3,.4,.6,.6,.9-1.4,9.7,0,22.6,.9,32.7,.6,7.5,1.6,15,2.9,22.3,6.4-4.6,10.8-11.7,12.1-20.4,0-.6,.1-.8,.1-.8l.5-1s.6,.3,1,.5c1.2,3.5-1,9.2-2.6,13.1-2.1,5-5.8,9.4-10,12.7h-.3c.3,1.5,.6,3,1,4.4h-4Zm14.4-29.8h0s0,0,0,0Z"/><path class="fe" d="M873.8,245.8c-1.6-5.9-3.1-11.8-4.3-16.1-6.9-1.7-12-11.3-12.5-19.1,0,0,0-1.3,1.2-.2,.3,2.3,3.3,12.6,10.3,15.7-3.9-14.5-7.5-28.9-9.9-43.2-.4-2.4-.9-6-.9-6l.7-.9c.3,.2,.6,.5,.9,.7,0,.3,0,.7,.1,1,2.5,15.6,7.3,30.9,11.7,45.8,.8,2.8,1.7,5.6,2.5,8.4v13.8Z"/><path class="fd" d="M288.6,378.5l29.4-62h53.9l29.4,62s-1,.4-2.8,1c-35.5,12.9-74.5,12.6-109.8-1h0Z"/><g><path class="db" d="M74.2,805c-6.7-3.8-10.4-8.1-10.4-12.5,0-17.2,55.1-31.2,123-31.2s123,14,123,31.2-3.7,8.7-10.4,12.5H74.2Z"/><g><path class="cy" d="M276,579.9l13.9,208h-28s-1.9-6.8-3.4-12.1c-1-3.6-4.3-6.1-8-6.1h-53.6c-3.8,0-7.1,2.6-8.1,6.3-1.3,5.3-3,11.9-3,11.9h-31.8l-8.4-213.4,130.4,5.4Z"/><path class="fk" d="M276,579.9l9.2,138.7-67.5-73.3-68.4-70.6,126.6,5.2Z"/><path class="ev" d="M225.4,780l5.6,10h6.5l38.3-210-3.4-3.4-8.1,12.1-39.1,191.3Z"/><g><path class="ev" d="M117.5,784.6v5.3h12.2s6.6-22.3,13.1-21.4c6.6,.9-8.4-3.8-8.4-3.8,0,0-12.5,1.1-15.5,5-2.9,4-1.5,14.8-1.5,14.8Z"/><path class="cx" d="M143.7,572.1l-48.4,217.8h28s3.4-7.8,5.8-13.2c1.3-3,4.3-5,7.6-5h53.4c4.3,0,7.9,3.3,8.3,7.5,.5,5,1,10.7,1,10.7h31.8l41.5-213.4-128.9-4.5Z"/><path class="fl" d="M151.2,572.4s-44,195.7-44.8,205c-.8,9.2,5.6,12.6,5.6,12.6h-16.7l48.4-217.8,7.5,.3Z"/></g><path class="ex" d="M234.7,592.4c.6-1.5,.4-3.2-.5-4.5-.9-1.3-2.4-2.1-4-2.2-12.3-.4-37.5-1.2-47.8-1.5-2.7,0-5.2,1.6-6.1,4.1,0,0,0,0,0,0-.5,1.4-.3,3,.5,4.2,.8,1.2,2.2,2,3.7,2.1,12.3,.4,38.5,1.2,48.7,1.5,2.4,0,4.7-1.4,5.5-3.7t0,0Z"/><path class="ex" d="M185.9,574.7c.3-.8,.2-1.7-.3-2.4-.5-.7-1.2-1.1-2.1-1.1-6.9-.2-21.8-.7-26.9-.8-1,0-2,.6-2.3,1.6,0,0,0,0,0,0-.3,.8-.2,1.7,.3,2.4,.5,.7,1.2,1.1,2.1,1.1,6.9,.2,21.8,.7,26.9,.8,1,0,2-.6,2.4-1.6,0,0,0,0,0,0Z"/><path class="ex" d="M264.9,577.7c.3-.8,.2-1.7-.3-2.4-.5-.7-1.2-1.1-2.1-1.1-6.9-.2-21.8-.7-26.9-.8-1,0-2,.6-2.3,1.6,0,0,0,0,0,0-.3,.8-.2,1.7,.3,2.4,.5,.7,1.2,1.1,2.1,1.1,6.9,.2,21.8,.7,26.9,.8,1,0,2-.6,2.4-1.6,0,0,0,0,0,0Z"/></g><path class="cz" d="M198.7,626.4c3.9,0,7.2,2.3,8.5,5.5,7.2,19.8,14.2,39.7,21,59.7,2,6.2-4.4,14.6-12.4,14.8-21.2,.2-42.4,.2-63.5,0-7.2-.2-11.7-7.9-7-14.8,14-20,28.2-39.9,42.5-59.7,2.5-3.4,6.5-5.6,10.9-5.5Zm-1,4.1c-2.4,0-4.9,1.4-6.4,3.3-14.3,19.8-28.5,39.6-42.4,59.6-2.5,3.7-.4,8.8,4.1,8.9,21.1,.5,42.3,.2,63.5,0,4.4-.1,8.8-4.9,7.5-8.9-6.8-20-13.8-39.8-20.9-59.6-.8-2-2.9-3.4-5.4-3.3Z"/><path class="da" d="M188.8,652.1c.2-1.1,.8-2.1,1.8-2.9,.9-.7,2.1-1.2,3.2-1.2h1.9c1.1,0,2.1,.4,2.8,1.2,.7,.7,.9,1.8,.7,2.9-.5,3-1.2,6.7-1.4,7.6,0,.1,0,.2,0,.4-.4,1.4-3,10.7-4.4,15.6-.5,1.8-2.3,3.1-4.1,3.1h0c-1.9,0-3.2-1.3-3.1-3.1,.4-4.9,1.1-14.1,1.2-15.6,0-.2,0-.3,0-.4,.2-.9,.8-4.6,1.4-7.6Zm-.7,32.4c1.6,0,2.8,.5,3.7,1.5,.8,1,1.1,2.2,.9,3.8-.3,1.6-1,2.8-2.2,3.9-1.2,1-2.6,1.5-4.2,1.5s-2.8-.5-3.6-1.6c-.8-1-1.2-2.3-.9-3.8,.3-1.6,1.1-2.8,2.3-3.8,1.2-1,2.6-1.5,4.2-1.5Z"/></g><path class="dc" d="M874.9,528.1v120.5h-43v-111.9h0c14.1-3.5,28.5-6.3,43-8.6Z"/><path class="dd" d="M333.8,805c-.8-8.7-20.2-16-11.7-20.1,12.6-6.1,50.9-13.5,55.5-22.9,2.5-5.2-25.7-9-19-15.1,7.4-6.8,46.4-6.4,46.4-6.4l113.2,.9s42.8-.5,47.8,8.1c3.5,6-21.9,14.5-22.9,21.2-1,6.7,84.1,12,82.3,22.1-.8,4.3-5,8.3-8.9,12.3H333.8Z"/></g></g></svg>