<?xml version="1.0" encoding="UTF-8"?><svg id="b" xmlns="http://www.w3.org/2000/svg" viewBox="0 0 1551.8 670.3"><defs><style>.f{fill:#670c09;}.g,.h{fill:#c11d26;}.h{fill-rule:evenodd;}</style></defs><g id="c"><g><g id="d"><path class="g" d="M775.3,17.3l138.9,80.2v160.4s-138.9,80.2-138.9,80.2l-138.9-80.2V97.5S775.3,17.3,775.3,17.3m0-17.3l-153.9,88.8v177.7s153.9,88.8,153.9,88.8l153.9-88.8V88.8S775.3,0,775.3,0h0Z"/></g><g id="e"><path class="h" d="M779.3,66.5l106,59,39-34L773.3,7.5l-9,17,1,34-105,59-24-20v19l23,19,120-69Zm-8,223l-106-59-39,34,151,84,9-17-1-34,105-59,24,20v-19l-23-19-120,69Z"/></g><path class="f" d="M812.2,208.1v8.5h-24.3v-8.5h6.7l-6.2-24.8h-26.2l-6.2,24.8h6.9v8.5h-24.3v-8.5h7.9l21.7-85.1h14.7l21.3,85.1h8.1Zm-25.8-32.7l-11.1-43.9-11.1,43.9h22.2Z"/></g><g><path class="f" d="M366.2,533.9c0-8.1,3.8-12.2,11.3-12.2h33.3v19.6h-8.5v-12.4h-27.5v65h27.5v-24.8l-14.7,9.2v-7.7l23.2-14.5v45h-31.4c-5,0-8.4-.9-10.3-2.8-2-1.9-3-5.4-3-10.4v-54.1Z"/><path class="f" d="M422.5,558.6c0-7,3.6-10.5,10.9-10.5h17.9c3.5,0,6,.7,7.5,2,1.6,1.3,2.3,3.8,2.3,7.4v9.8l-30.2,19v7.5h21.8v-6.1h8.4v5.6c0,2.1-.7,3.9-2,5.4-1.3,1.5-3.5,2.3-6.5,2.3h-21.7c-3,0-5.2-.8-6.5-2.3-1.3-1.5-2-3.3-2-5.4v-34.8Zm8.5,19.3l21.7-13.7v-8.8h-21.7v22.4Z"/><path class="f" d="M504,548.6c1.6-1,3.4-1.5,5.4-1.5s3.8,.8,5.3,2.3c1.4,1.6,2.2,3.8,2.2,6.8v35.6c0,2.9-.5,4.9-1.4,6.1-1.7,2.1-4.3,3.2-7.7,3.2h-37.1v-7.2h6.7v-65h-6.7v-7.2h15.3v38.2l18-11.3Zm4.4,5.7l-22.4,14.1v25.5h22.4v-39.6Z"/><path class="f" d="M570.1,593.9v7.2h-36.8c-3.6,0-6-.7-7.3-2.1-1.1-1.3-1.7-3.7-1.7-7.2v-3.9c0-2.5,.3-4.3,1-5.2,.9-1.3,3-3,6.2-5l23.3-14.5v-7.8h-20.7v6.1h-6.8v-13.3h26.5c3.6,0,6.1,.8,7.6,2.3,1.4,1.6,2.2,3.8,2.2,6.8v36.6h6.7Zm-34.2-61.2c1.2,0,2.3,.5,3.2,1.4,.9,1,1.3,2.1,1.3,3.3s-.4,2.3-1.3,3.2c-.9,.9-2,1.3-3.2,1.3s-2.3-.4-3.2-1.3c-.9-.9-1.3-2-1.3-3.2s.5-2.4,1.4-3.3c.9-1,2-1.4,3.2-1.4Zm18.9,38.9l-22,13.8v8.5h22v-22.2Zm-3.2-38.9c1.2,0,2.3,.5,3.2,1.4,.9,1,1.3,2.1,1.3,3.3s-.4,2.3-1.3,3.2-2,1.3-3.2,1.3-2.3-.4-3.2-1.3c-.9-.9-1.3-2-1.3-3.2s.5-2.4,1.4-3.3c.9-1,2-1.4,3.2-1.4Z"/><path class="f" d="M593.6,601.3c-5.5,0-8.3-2.7-8.3-8.1v-37.9h-6.8v-7.2h15.3v45.8l21.1-13.2v-25.4h-5.2v-7.2h13.8v45.8h6.7v7.2h-15.2v-11.9l-17.6,11c-1.1,.7-2.4,1.1-3.8,1.1Z"/><path class="f" d="M686,593.8v7.3h-15.3v-12.2l-18.3,11.5c-2.2,1.1-4.3,1.7-6.2,1.7s-3.5-.7-4.7-2.1c-1.2-1.4-1.7-3-1.7-4.9v-37c0-3.2,.5-5.5,1.5-6.7,1.7-2.2,4.4-3.3,8-3.3h21.4v-19.3h-7v-7.2h15.7v72.1h6.7Zm-15.3-38.4h-22.4v39l22.4-14v-25.1Z"/><path class="f" d="M695.5,558.6c0-7,3.6-10.5,10.9-10.5h17.9c3.5,0,6,.7,7.5,2,1.6,1.3,2.3,3.8,2.3,7.4v9.8l-30.2,19v7.5h21.8v-6.1h8.4v5.6c0,2.1-.7,3.9-2,5.4-1.3,1.5-3.5,2.3-6.5,2.3h-21.7c-3,0-5.2-.8-6.5-2.3-1.3-1.5-2-3.3-2-5.4v-34.8Zm8.5,19.3l21.7-13.7v-8.8h-21.7v22.4Z"/><path class="f" d="M775.7,548.2c5.5,0,8.3,2.7,8.3,8.1v9.4h-8.6v-10.3l-16.5,10.5v27.9h5.2v7.2h-20.4v-7.2h6.7v-38.6h-6.7v-7.2h15.2v9.3l13-8.1c1.1-.7,2.4-1.1,3.8-1.1Z"/><path class="f" d="M793.5,558.6c0-7,3.6-10.5,10.9-10.5h17.9c3.5,0,6,.7,7.5,2,1.6,1.3,2.3,3.8,2.3,7.4v9.8l-30.2,19v7.5h21.8v-6.1h8.4v5.6c0,2.1-.7,3.9-2,5.4-1.3,1.5-3.5,2.3-6.5,2.3h-21.7c-3,0-5.2-.8-6.5-2.3-1.3-1.5-2-3.3-2-5.4v-34.8Zm8.5,19.3l21.7-13.7v-8.8h-21.7v22.4Z"/><path class="f" d="M858,593.9h6.9v7.2h-22.2v-7.2h6.7v-38.5h-6.7v-7.2h15.3v45.7Zm-4.3-65.2c1.5,0,2.7,.5,3.8,1.6,1,1.1,1.5,2.4,1.5,3.9s-.5,2.8-1.5,3.8c-1,1-2.3,1.5-3.8,1.5s-2.8-.5-3.8-1.5c-1-1-1.5-2.3-1.5-3.8s.5-2.8,1.6-3.9c1.1-1.1,2.3-1.6,3.8-1.6Z"/><path class="f" d="M910,547.2c5.5,0,8.3,2.7,8.3,8.1v38.6h6.8v7.2h-20.4v-7.2h5.1v-39.4l-21.1,13.2v26.1h5.2v7.2h-20.4v-7.2h6.7v-38.6h-6.7v-7.1h15.2v11l17.6-11c1.1-.7,2.4-1.1,3.8-1.1Z"/><path class="f" d="M949.9,593.9h6.9v7.2h-22.2v-7.2h6.7v-38.5h-6.7v-7.2h15.3v45.7Zm-4.3-65.2c1.5,0,2.7,.5,3.8,1.6,1,1.1,1.5,2.4,1.5,3.9s-.5,2.8-1.5,3.8c-1,1-2.3,1.5-3.8,1.5s-2.8-.5-3.8-1.5c-1-1-1.5-2.3-1.5-3.8s.5-2.8,1.6-3.9c1.1-1.1,2.3-1.6,3.8-1.6Z"/><path class="f" d="M1005.5,555.4v59.8c0,3-.7,5.2-2.2,6.8-1.4,1.6-4,2.3-7.6,2.3h-25.6v-14.4h7.2v7.1h19.5v-27.6l-18.1,11.4c-1.6,.9-3.3,1.4-5.1,1.4s-3.5-.7-5-2.2-2.2-3.2-2.2-5.3v-37.1c0-3.5,.5-5.7,1.4-6.8,1.6-1.7,4.1-2.5,7.6-2.5h36.8v7.2h-6.7Zm-8.7,0h-22.2v39.4l22.2-14v-25.4Z"/><path class="f" d="M1035.6,601.3c-5.5,0-8.3-2.7-8.3-8.1v-37.9h-6.8v-7.2h15.3v45.8l21.1-13.2v-25.4h-5.2v-7.2h13.8v45.8h6.7v7.2h-15.2v-11.9l-17.6,11c-1.1,.7-2.4,1.1-3.8,1.1Z"/><path class="f" d="M1117.3,547.2c5.5,0,8.3,2.7,8.3,8.1v38.6h6.8v7.2h-20.4v-7.2h5.1v-39.4l-21.1,13.2v26.1h5.2v7.2h-20.4v-7.2h6.7v-38.6h-6.7v-7.1h15.2v11l17.6-11c1.1-.7,2.4-1.1,3.8-1.1Z"/><path class="f" d="M1181,555.4v59.8c0,3-.7,5.2-2.2,6.8-1.4,1.6-4,2.3-7.6,2.3h-25.6v-14.4h7.2v7.1h19.5v-27.6l-18.1,11.4c-1.6,.9-3.3,1.4-5.1,1.4s-3.5-.7-5-2.2-2.2-3.2-2.2-5.3v-37.1c0-3.5,.5-5.7,1.4-6.8,1.6-1.7,4.1-2.5,7.6-2.5h36.8v7.2h-6.7Zm-8.7,0h-22.2v39.4l22.2-14v-25.4Z"/></g><g><path class="f" d="M322.8,479.9v7.2h-20.6v-7.2h5.7l-5.3-21.1h-22.2l-5.3,21.1h5.8v7.2h-20.6v-7.2h6.7l18.4-72.2h12.5l18.1,72.2h6.9Zm-21.9-27.7l-9.4-37.2-9.4,37.2h18.8Z"/><path class="f" d="M337.2,476.6c1.4,0,2.7,.6,3.7,1.7,1,1.1,1.5,2.4,1.5,3.9s-.5,2.7-1.5,3.8c-1,1-2.3,1.5-3.8,1.5s-2.8-.5-3.8-1.5c-1.1-1-1.6-2.3-1.6-3.8s.5-2.8,1.6-3.9c1.1-1.1,2.4-1.7,3.8-1.7Z"/><path class="f" d="M389.8,448.3c1.4,1,2.7,1.9,4,2.6,1.2,.7,2.3,1.5,3.2,2.4,1.8,1.7,2.8,3.8,2.8,6.2v18c0,3.2-1.1,5.6-3.4,7.3-1.9,1.6-4.4,2.3-7.5,2.3h-33.8v-19.6h7.6v12.4h28.6v-20.6l-27.7-17c-2.5-1.4-4.5-2.9-6.1-4.4-1.6-1.5-2.4-3.6-2.4-6.2v-13.3c0-4.2,1-7,3-8.6,1.7-1.3,4.6-2,8.8-2h32v19.6h-7.6v-12.4h-27.6v16.9l26.2,16.4Z"/><path class="f" d="M454.1,479.9v7.2h-36.8c-3.6,0-6-.7-7.3-2.1-1.1-1.3-1.7-3.7-1.7-7.2v-3.9c0-2.5,.3-4.3,1-5.2,.9-1.3,3-3,6.2-5l23.3-14.5v-7.8h-20.7v6.1h-6.8v-13.3h26.5c3.6,0,6.1,.8,7.6,2.3,1.4,1.6,2.2,3.8,2.2,6.8v36.6h6.7Zm-15.3-22.2l-22,13.8v8.5h22v-22.2Z"/><path class="f" d="M477.6,487.3c-5.5,0-8.3-2.7-8.3-8.1v-37.9h-6.8v-7.2h15.3v45.8l21.1-13.2v-25.4h-5.2v-7.2h13.8v45.8h6.7v7.2h-15.2v-11.9l-17.6,11c-1.1,.7-2.4,1.1-3.8,1.1Z"/><path class="f" d="M556,434.6c1.6-1,3.4-1.5,5.4-1.5s3.8,.8,5.3,2.3c1.4,1.6,2.2,3.8,2.2,6.8v35.6c0,2.9-.5,4.9-1.4,6.1-1.7,2.1-4.3,3.2-7.7,3.2h-37.1v-7.2h6.7v-65h-6.7v-7.2h15.3v38.2l18-11.3Zm4.4,5.7l-22.4,14.1v25.5h22.4v-39.6Z"/><path class="f" d="M579.5,444.6c0-7,3.6-10.5,10.9-10.5h17.9c3.5,0,6,.7,7.5,2,1.6,1.3,2.3,3.8,2.3,7.4v9.8l-30.2,19v7.5h21.8v-6.1h8.4v5.6c0,2.1-.7,3.9-2,5.5-1.3,1.5-3.5,2.3-6.5,2.3h-21.7c-3,0-5.2-.8-6.5-2.3-1.3-1.5-2-3.3-2-5.5v-34.8Zm8.5,19.3l21.7-13.7v-8.8h-21.7v22.4Z"/><path class="f" d="M659.7,434.2c5.5,0,8.3,2.7,8.3,8.1v9.4h-8.6v-10.3l-16.5,10.5v27.9h5.2v7.2h-20.4v-7.2h6.7v-38.6h-6.7v-7.2h15.2v9.3l13-8.1c1.1-.7,2.4-1.1,3.8-1.1Z"/><path class="f" d="M774.4,479.9v7.2h-20.6v-7.2h5.7l-5.3-21.1h-22.2l-5.3,21.1h5.8v7.2h-20.6v-7.2h6.7l18.4-72.2h12.5l18.1,72.2h6.9Zm-21.9-27.7l-9.4-37.2-9.4,37.2h18.8Z"/><path class="f" d="M797.7,479.9h6.9v7.2h-22.2v-7.2h6.7v-65h-6.7v-7.2h15.3v72.2Z"/><path class="f" d="M830.5,479.9h6.9v7.2h-22.2v-7.2h6.7v-65h-6.7v-7.2h15.3v72.2Z"/><path class="f" d="M847.9,444.6c0-7,3.6-10.5,10.9-10.5h17.9c3.5,0,6,.7,7.5,2,1.6,1.3,2.3,3.8,2.3,7.4v9.8l-30.2,19v7.5h21.8v-6.1h8.4v5.6c0,2.1-.7,3.9-2,5.5-1.3,1.5-3.5,2.3-6.5,2.3h-21.7c-3,0-5.2-.8-6.5-2.3-1.3-1.5-2-3.3-2-5.5v-34.8Zm8.5,19.3l21.7-13.7v-8.8h-21.7v22.4Z"/><path class="f" d="M928.5,477.8c0,6.2-3,9.3-9.1,9.3h-25.6v-16h7.2v8.8h19v-8.8l-17.4-10.9c-1.8-1.1-3.3-2-4.5-2.8-1.3-.7-2.3-1.4-3.2-2.1-1.6-1.4-2.3-3.3-2.3-5.7v-6c0-3,.5-5,1.5-6.1,1.9-2.2,4.7-3.3,8.5-3.3h24.7v15.9h-7.2v-8.7h-19v8.9l18,11.2c1.5,.9,2.8,1.7,4,2.4,1.2,.7,2.1,1.4,2.9,2.1,1.8,1.5,2.6,3.2,2.6,5.3v6.6Z"/><path class="f" d="M1011.9,448.3c1.4,1,2.7,1.9,4,2.6,1.2,.7,2.3,1.5,3.2,2.4,1.8,1.7,2.8,3.8,2.8,6.2v18c0,3.2-1.1,5.6-3.4,7.3-1.9,1.6-4.4,2.3-7.5,2.3h-33.8v-19.6h7.6v12.4h28.6v-20.6l-27.7-17c-2.5-1.4-4.5-2.9-6.1-4.4-1.6-1.5-2.4-3.6-2.4-6.2v-13.3c0-4.2,1-7,3-8.6,1.7-1.3,4.6-2,8.8-2h32v19.6h-7.6v-12.4h-27.6v16.9l26.2,16.4Z"/><path class="f" d="M1076.1,479.9v7.2h-36.8c-3.6,0-6-.7-7.3-2.1-1.1-1.3-1.7-3.7-1.7-7.2v-3.9c0-2.5,.3-4.3,1-5.2,.9-1.3,3-3,6.2-5l23.3-14.5v-7.8h-20.7v6.1h-6.8v-13.3h26.5c3.6,0,6.1,.8,7.6,2.3,1.4,1.6,2.2,3.8,2.2,6.8v36.6h6.7Zm-15.3-22.2l-22,13.8v8.5h22v-22.2Z"/><path class="f" d="M1099.6,487.3c-5.5,0-8.3-2.7-8.3-8.1v-37.9h-6.8v-7.2h15.3v45.8l21.1-13.2v-25.4h-5.2v-7.2h13.8v45.8h6.7v7.2h-15.2v-11.9l-17.6,11c-1.1,.7-2.4,1.1-3.8,1.1Z"/><path class="f" d="M1178,434.6c1.6-1,3.4-1.5,5.4-1.5s3.8,.8,5.3,2.3c1.4,1.6,2.2,3.8,2.2,6.8v35.6c0,2.9-.5,4.9-1.4,6.1-1.7,2.1-4.3,3.2-7.7,3.2h-37.1v-7.2h6.7v-65h-6.7v-7.2h15.3v38.2l18-11.3Zm4.4,5.7l-22.4,14.1v25.5h22.4v-39.6Z"/><path class="f" d="M1201.5,444.6c0-7,3.6-10.5,10.9-10.5h17.9c3.5,0,6,.7,7.5,2,1.6,1.3,2.3,3.8,2.3,7.4v9.8l-30.2,19v7.5h21.8v-6.1h8.4v5.6c0,2.1-.7,3.9-2,5.5-1.3,1.5-3.5,2.3-6.5,2.3h-21.7c-3,0-5.2-.8-6.5-2.3-1.3-1.5-2-3.3-2-5.5v-34.8Zm8.5,19.3l21.7-13.7v-8.8h-21.7v22.4Z"/><path class="f" d="M1281.7,434.2c5.5,0,8.3,2.7,8.3,8.1v9.4h-8.6v-10.3l-16.5,10.5v27.9h5.2v7.2h-20.4v-7.2h6.7v-38.6h-6.7v-7.2h15.2v9.3l13-8.1c1.1-.7,2.4-1.1,3.8-1.1Z"/></g></g></svg>