<svg id="Layer_2" data-name="Layer 2" xmlns="http://www.w3.org/2000/svg" viewBox="0 0 64 64">
  <defs>
    <style>
      .cls-1 {
        fill: #fbc02d;
      }

      .cls-2 {
        fill: #f4511e;
      }

      .cls-3 {
        fill: #bf360c;
      }

      .cls-4 {
        fill: #80deea;
      }

      .cls-5 {
        fill: #ff8f00;
      }

      .cls-6 {
        fill: #1565c0;
      }

      .cls-7 {
        fill: #0d47a1;
      }
    </style>
  </defs>
  <title>01 Broom</title>
  <g>
    <path class="cls-1" d="M35.271,55.8115c-.7866.0366-3.2461-.1-4.2075-1.2627a13.26,13.26,0,0,1-2.6577-6.2182,1.0059,1.0059,0,0,0-.2871-.6L12.5625,32.1748a.9964.9964,0,0,0-1.0786-.2212C3.8794,34.9966,3,41.1055,3,45.436a.9927.9927,0,0,0,.0483.3067,25.0509,25.0509,0,0,0,2.7378,5.9409,1.0009,1.0009,0,0,0,1.8106-.293c.8857-3.4765,1.9219-5.5166,3.873-7.0844C9.83,47.84,8.6348,52.7329,10.0908,56.2231a.9926.9926,0,0,0,.27.3716c2.7929,2.41,5.5292,4.4058,10.7138,4.4058a1.01,1.01,0,0,0,1.1113-1.0967,17.6482,17.6482,0,0,1,.212-4.5664A8.1142,8.1142,0,0,0,26.41,60.9048a.9977.9977,0,0,0,.4838.125c4.1631,0,6.9937-1.0967,9.1783-3.5557A1.0009,1.0009,0,0,0,35.271,55.8115Z"/>
    <path class="cls-2" d="M56.416,3.877a3.0023,3.0023,0,0,0-4.2422,0L22.4619,33.5889a1,1,0,0,0,0,1.414l2.8286,2.8286a1,1,0,0,0,1.4141,0L56.416,8.12A3.003,3.003,0,0,0,56.416,3.877Z"/>
    <path class="cls-3" d="M29.1189,31.4172a3,3,0,0,1-4.2427,0l-.1213-.1213-2.293,2.293a1,1,0,0,0,0,1.414l2.8286,2.8286a1,1,0,0,0,1.4141,0L56.416,8.12a2.9952,2.9952,0,0,0,.1091-4.109Z"/>
    <path class="cls-4" d="M46.4277,45.2944c-2.122-.8154-3.2485-2.1059-3.4453-3.9443a1,1,0,0,0-1.9883,0c-.1967,1.8384-1.3237,3.1284-3.4458,3.9443a1.0011,1.0011,0,0,0,0,1.8672c2.1221.8159,3.25,2.106,3.4458,3.9444a1,1,0,0,0,1.9883,0c.1963-1.8384,1.3233-3.1289,3.4453-3.9444A1.0011,1.0011,0,0,0,46.4277,45.2944Z"/>
    <g>
      <path class="cls-4" d="M50,51H49a3,3,0,0,0,0,6h2V55H49a1,1,0,0,1,0-2h1a3,3,0,0,1,0,6H37v2H50a5,5,0,0,0,0-10Z"/>
      <rect class="cls-4" x="39" y="54" width="4" height="2"/>
      <rect class="cls-4" x="33" y="50" width="4" height="2"/>
    </g>
    <g>
      <path class="cls-5" d="M7.5967,51.3906a14.515,14.515,0,0,1,2.498-5.7091c-1.383,1.328-3.3885,3.0824-3.9518,2.6738-.7435-.5391-2.2351-3.7437-2.8774-6.4729A21.6089,21.6089,0,0,0,3,45.436a.9927.9927,0,0,0,.0483.3067,25.0509,25.0509,0,0,0,2.7378,5.9409A1.0009,1.0009,0,0,0,7.5967,51.3906Z"/>
      <path class="cls-5" d="M35.271,55.8115c-.7866.0366-3.2461-.1-4.2075-1.2627a13.26,13.26,0,0,1-2.6577-6.2182,1.0059,1.0059,0,0,0-.2871-.6l-4.6832-4.6832a35.9054,35.9054,0,0,0,1.5109,8.9473c1.6875,4.3174,4.1786,5.5227,4.0982,5.9245s-3.1506,1.332-4.4653,1.59A7.8191,7.8191,0,0,0,26.41,60.9048a.9977.9977,0,0,0,.4838.125c4.1631,0,6.9937-1.0967,9.1783-3.5557A1.0009,1.0009,0,0,0,35.271,55.8115Z"/>
      <path class="cls-5" d="M22.1855,59.9038a17.6482,17.6482,0,0,1,.212-4.5664s-.2286,3.1447-2.7344,3.2519c-2.109.09-9.6676-4.0369-10.2279-5.9693a9.4359,9.4359,0,0,0,.6556,3.6031.9926.9926,0,0,0,.27.3716c2.7929,2.41,5.5292,4.4058,10.7138,4.4058A1.01,1.01,0,0,0,22.1855,59.9038Z"/>
    </g>
    <path class="cls-6" d="M29.082,38.7949l-7.5835-7.5835a4.9957,4.9957,0,0,0-5.3925-1.1069l-4.6221,1.8486a1.0007,1.0007,0,0,0-.3355,1.6358L26.7046,49.145A1,1,0,0,0,28.34,48.81l1.8482-4.6221A4.9932,4.9932,0,0,0,29.082,38.7949Z"/>
    <path class="cls-7" d="M29.082,38.7949l-.8247-.8247c-.0249.0717-.04.1451-.0683.216L26.9036,41.401a2,2,0,0,1-3.2713.6717L12.9331,31.3735l-1.4492.58a1.0007,1.0007,0,0,0-.3355,1.6358L26.7046,49.145A1,1,0,0,0,28.34,48.81l1.8482-4.6221A4.9932,4.9932,0,0,0,29.082,38.7949Z"/>
  </g>
</svg>
