<svg id="Layer_2" data-name="Layer 2" xmlns="http://www.w3.org/2000/svg" viewBox="0 0 64 64">
  <defs>
    <style>
      .cls-1 {
        fill: #90a4ae;
      }

      .cls-2 {
        fill: #bdbdbd;
      }

      .cls-3 {
        fill: #f4511e;
      }

      .cls-4 {
        fill: #bf360c;
      }

      .cls-5 {
        fill: #80deea;
      }

      .cls-6 {
        fill: #1565c0;
      }

      .cls-7 {
        fill: #0d47a1;
      }
    </style>
  </defs>
  <title>02 Mop</title>
  <g>
    <path class="cls-1" d="M48,60.791H46c0-1.68-2.98-3.5444-6.6411-4.1562a12.7542,12.7542,0,0,0-3.021-.0669c-2.06.1255-4.1909.2568-6.6792-2.3911l1.457-1.37c1.8457,1.9634,3.1392,1.8838,5.1,1.7647a14.5725,14.5725,0,0,1,3.4722.0908C43.8188,55.3521,48,57.6787,48,60.791Z"/>
    <path class="cls-2" d="M43.06,59c-5.56-.35-9.37-1.83-11.01-4.29a6.0048,6.0048,0,0,1-.7-4.94.9992.9992,0,0,0-.23-1.04L15.56,33.17a1.0062,1.0062,0,0,0-1.14-.19C6.07,37.06,5,44.75,5,51c0,6.0691,3.1591,9.9987,8.0479,10H43A1.0011,1.0011,0,0,0,43.06,59ZM20.57,53.23A21.2312,21.2312,0,0,0,23.3629,59H21.8944A10.2706,10.2706,0,0,1,20.57,53.23Zm-8.5-5.71a24.0851,24.0851,0,0,0,.11,5.87A12.64,12.64,0,0,0,14.9425,59H13.4736A8.8711,8.8711,0,0,1,11.03,52.75,14.4161,14.4161,0,0,1,12.07,47.52Z"/>
    <path class="cls-3" d="M60.1191,4.1738a3.0024,3.0024,0,0,0-4.2421,0L25.4619,34.5889a1,1,0,0,0,0,1.414l2.8286,2.8286a1,1,0,0,0,1.4141,0L60.1191,8.4165A3.0029,3.0029,0,0,0,60.1191,4.1738Z"/>
    <path class="cls-4" d="M32.1189,32.4172a3,3,0,0,1-4.2427,0l-.1213-.1213-2.293,2.293a1,1,0,0,0,0,1.414l2.8286,2.8286a1,1,0,0,0,1.4141,0L60.1191,8.4165a2.9952,2.9952,0,0,0,.1091-4.1091Z"/>
    <g>
      <path class="cls-5" d="M46.94,44.0225c-2.122-.816-3.249-2.106-3.4458-3.9449a1,1,0,0,0-1.9882,0c-.1968,1.8389-1.3238,3.1289-3.4458,3.9449a1,1,0,0,0,0,1.8671c2.122.8155,3.249,2.1055,3.4458,3.9444a1,1,0,0,0,1.9882,0c.1968-1.8389,1.3238-3.1289,3.4458-3.9444A1.0011,1.0011,0,0,0,46.94,44.0225Z"/>
      <path class="cls-5" d="M55.94,51.0225c-2.122-.816-3.249-2.106-3.4458-3.9449a1,1,0,0,0-1.9882,0c-.1968,1.8389-1.3238,3.1289-3.4458,3.9449a1.0011,1.0011,0,0,0,0,1.8671c2.122.8155,3.249,2.1055,3.4458,3.9444a1,1,0,0,0,1.9882,0c.1968-1.8389,1.3238-3.1289,3.4458-3.9444A1.0011,1.0011,0,0,0,55.94,51.0225Z"/>
    </g>
    <path class="cls-1" d="M36.04,61H31.76l-.23-.12c-.19-.1-4.84-2.59-5.99-6.48-1.11-3.73-.07-8.87-.02-9.08l1.95.4c-.01.05-.98,4.86-.02,8.11.92,3.1,4.98,5.26,5.02,5.29Z"/>
    <path class="cls-1" d="M15.8286,51.3481c-.1782-9.0366,3.7485-12.5356,3.916-12.68l1.3076,1.5136-.6538-.7568.66.7515c-.0337.03-3.3882,3.1176-3.2295,11.1328Z"/>
    <path class="cls-6" d="M32.082,39.7949l-7.5835-7.5835a4.9944,4.9944,0,0,0-5.3925-1.1069l-4.6221,1.8486a1.0007,1.0007,0,0,0-.3355,1.6358L29.7046,50.145A1.0007,1.0007,0,0,0,31.34,49.81l1.8482-4.6221A4.9932,4.9932,0,0,0,32.082,39.7949Z"/>
    <path class="cls-7" d="M32.082,39.7949l-.8247-.8247c-.0249.0717-.04.1451-.0683.216L29.9036,42.401a2,2,0,0,1-3.2713.6717L15.9331,32.3735l-1.4492.58a1.0007,1.0007,0,0,0-.3355,1.6358L29.7046,50.145A1.0007,1.0007,0,0,0,31.34,49.81l1.8482-4.6221A4.9932,4.9932,0,0,0,32.082,39.7949Z"/>
  </g>
</svg>
