<svg id="Layer_2" data-name="Layer 2" xmlns="http://www.w3.org/2000/svg" viewBox="0 0 64 64">
  <defs>
    <style>
      .cls-1 {
        fill: #42a5f5;
      }

      .cls-2 {
        fill: #1e88e5;
      }

      .cls-3 {
        fill: #80deea;
      }

      .cls-4 {
        fill: #1976d2;
      }

      .cls-5 {
        fill: #ff8f00;
      }

      .cls-6 {
        fill: #1a237e;
      }
    </style>
  </defs>
  <title>03 Bucket</title>
  <g>
    <path class="cls-1" d="M52,24H12a1.0007,1.0007,0,0,0-.9937,1.1138l3.3921,29.6806A6.9969,6.9969,0,0,0,21.3535,61h21.293a6.9969,6.9969,0,0,0,6.9551-6.2051l3.3921-29.6811A1.0007,1.0007,0,0,0,52,24Z"/>
    <path class="cls-2" d="M52,24H47.848L46.5214,35.6074A19.4022,19.4022,0,0,1,27.2447,52.8066H15.9565a7.26,7.26,0,0,1-1.8121-.2348l.254,2.2226A6.9969,6.9969,0,0,0,21.3535,61h21.293a6.9969,6.9969,0,0,0,6.9551-6.2051l3.3921-29.6811A1.0007,1.0007,0,0,0,52,24Z"/>
    <circle class="cls-3" cx="21" cy="7" r="4"/>
    <path class="cls-3" d="M51,17a3.67,3.67,0,0,1-.2,1.36.96.96,0,0,1-.93.64l-23.48-.05a1.0037,1.0037,0,0,1-.92-.61,6.0037,6.0037,0,0,1,6.74-8.21,8.4973,8.4973,0,0,1,15.5,2.18A5.0444,5.0444,0,0,1,51,17Z"/>
    <path class="cls-3" d="M18.5,13A4.505,4.505,0,0,0,14,17.5a1,1,0,0,0,1,1h7a1,1,0,0,0,1-1A4.505,4.505,0,0,0,18.5,13Z"/>
    <rect class="cls-4" x="8" y="17" width="48" height="9" rx="3"/>
    <path class="cls-5" d="M59.64,43.99a5.6483,5.6483,0,0,1-8.12.49L33.42,27.89l1.35-1.48c1.8507,1.6973-6.7043-6.1488,18.1,16.6a3.6579,3.6579,0,0,0,5-5.34L52.18,32.2l.28-2.49,6.8,6.52A5.6618,5.6618,0,0,1,59.64,43.99Z"/>
    <circle class="cls-6" cx="32" cy="25" r="4"/>
  </g>
</svg>
