<svg id="Layer_2" data-name="Layer 2" xmlns="http://www.w3.org/2000/svg" viewBox="0 0 64 64">
  <defs>
    <style>
      .cls-1 {
        fill: #42a5f5;
      }

      .cls-2 {
        fill: #1e88e5;
      }

      .cls-3 {
        fill: #0d47a1;
      }

      .cls-4 {
        fill: #1976d2;
      }

      .cls-5 {
        fill: #1565c0;
      }
    </style>
  </defs>
  <title>04 Garbage</title>
  <g>
    <path class="cls-1" d="M50,19H14a1.0007,1.0007,0,0,0-.9937,1.1138l4,35A1,1,0,0,0,18,56H46a1,1,0,0,0,.9937-.8862l4-35A1.0007,1.0007,0,0,0,50,19Z"/>
    <path class="cls-2" d="M50,19H44.2638l-3.27,28.6138A1,1,0,0,1,40,48.5H16.25l.7558,6.6138A1,1,0,0,0,18,56H46a1,1,0,0,0,.9937-.8862l4-35A1.0007,1.0007,0,0,0,50,19Z"/>
    <path class="cls-3" d="M38,10H27a1,1,0,0,1-1-1V6a3.0033,3.0033,0,0,1,3-3h7a3.0033,3.0033,0,0,1,3,3V9A1,1,0,0,1,38,10ZM28,8h9V6a1.0013,1.0013,0,0,0-1-1H29a1.0013,1.0013,0,0,0-1,1Z"/>
    <g>
      <path class="cls-3" d="M32,32a3.0033,3.0033,0,0,0-3,3V55a1,1,0,0,0,1,1h4a1,1,0,0,0,1-1V35A3.0033,3.0033,0,0,0,32,32Z"/>
      <path class="cls-3" d="M41,32a2.9909,2.9909,0,0,0-2.9985,2.95l-1,20A1,1,0,0,0,38,56h4a1,1,0,0,0,.9985-.95L44,35A3.0033,3.0033,0,0,0,41,32Z"/>
      <path class="cls-3" d="M23,32a3.0121,3.0121,0,0,0-2.9985,3.05l1,20A1,1,0,0,0,22,56h4a1,1,0,0,0,.9985-1.05L26,35A3.0033,3.0033,0,0,0,23,32Z"/>
    </g>
    <path class="cls-1" d="M49.4136,13.09l-11-5A1.0007,1.0007,0,0,0,38,8H27a1.0043,1.0043,0,0,0-.3848.0771l-12,5A1,1,0,0,0,15,15H49a1,1,0,0,0,.4136-1.91Z"/>
    <path class="cls-2" d="M49.4136,13.09l-11-5A1.0007,1.0007,0,0,0,38,8H32.834l10.245,4.6568a1.0831,1.0831,0,0,1-.4481,2.0693H29V15H49a1,1,0,0,0,.4136-1.91Z"/>
    <rect class="cls-4" x="14" y="54" width="36" height="7" rx="3"/>
    <path class="cls-5" d="M47,54v.5a3.0033,3.0033,0,0,1-3,3H14V58a3.0033,3.0033,0,0,0,3,3H47a3.0033,3.0033,0,0,0,3-3V57A3.0033,3.0033,0,0,0,47,54Z"/>
    <rect class="cls-4" x="11" y="13" width="42" height="8" rx="3"/>
    <path class="cls-5" d="M50,13H49v1a3.0033,3.0033,0,0,1-3,3H11v1a3.0033,3.0033,0,0,0,3,3H50a3.0033,3.0033,0,0,0,3-3V16A3.0033,3.0033,0,0,0,50,13Z"/>
  </g>
</svg>
