<svg id="Layer_2" data-name="Layer 2" xmlns="http://www.w3.org/2000/svg" viewBox="0 0 64 64">
  <defs>
    <style>
      .cls-1 {
        fill: #66bb6a;
      }

      .cls-2 {
        fill: #43a047;
      }

      .cls-3 {
        fill: #212121;
      }

      .cls-4 {
        fill: #1b5e20;
      }

      .cls-5 {
        fill: #2e7d32;
      }

      .cls-6 {
        fill: #757575;
      }
    </style>
  </defs>
  <title>05 Garbage</title>
  <g>
    <path class="cls-1" d="M48,16H20a1,1,0,0,0-1,1V60a1,1,0,0,0,1,1H42.1816a4.9942,4.9942,0,0,0,4.9952-4.7676l1.8222-39.186A1,1,0,0,0,48,16Z"/>
    <path class="cls-2" d="M48,16H42.7454L41.1767,49.7324A4.9941,4.9941,0,0,1,36.1816,54.5H19V60a1,1,0,0,0,1,1H42.1816a4.9942,4.9942,0,0,0,4.9952-4.7676l1.8222-39.186A1,1,0,0,0,48,16Z"/>
    <circle class="cls-3" cx="20" cy="56" r="5"/>
    <path class="cls-4" d="M48.3967,30H37a1,1,0,0,0-1,1V48a1,1,0,0,0,1,1H47.5131Z"/>
    <path class="cls-5" d="M18.2744,11.0386l-7-2A1,1,0,0,0,10,10v3a.999.999,0,0,0,.6064.9189l7,3A1,1,0,0,0,19,16V12A1,1,0,0,0,18.2744,11.0386Z"/>
    <path class="cls-4" d="M18.2744,11.0386l-2.3815-.68v2.16a1,1,0,0,1-1.3936.919L10,11.5085V13a.999.999,0,0,0,.6064.9189l7,3A1,1,0,0,0,19,16V12A1,1,0,0,0,18.2744,11.0386Z"/>
    <path class="cls-5" d="M46.6865,11.6489a25.1624,25.1624,0,0,0-3.6191-6.5522c-.0147-.02-.03-.0391-.0469-.0576a4.9626,4.9626,0,0,0-5.3926-1.8438L19.79,7.0225A.9991.9991,0,0,0,19,8v4a1,1,0,0,0,1,1H45.75A1,1,0,0,0,46.6865,11.6489Z"/>
    <path class="cls-4" d="M46.6865,11.6489a25.1624,25.1624,0,0,0-3.6191-6.5522c-.0147-.02-.03-.0391-.0469-.0576a4.896,4.896,0,0,0-4.995-1.9078,24.7992,24.7992,0,0,1,2.2324,4.517,1,1,0,0,1-.9365,1.351H19V12a1,1,0,0,0,1,1H45.75A1,1,0,0,0,46.6865,11.6489Z"/>
    <circle class="cls-6" cx="20" cy="56" r="1"/>
    <rect class="cls-2" x="17" y="11" width="34" height="7" rx="2"/>
    <path class="cls-5" d="M49,11H48v1.5a2.0023,2.0023,0,0,1-2,2H17V16a2.0023,2.0023,0,0,0,2,2H49a2.0023,2.0023,0,0,0,2-2V13A2.0023,2.0023,0,0,0,49,11Z"/>
  </g>
</svg>
