<svg id="Layer_2" data-name="Layer 2" xmlns="http://www.w3.org/2000/svg" viewBox="0 0 64 64">
  <defs>
    <style>
      .cls-1 {
        fill: #ff8f00;
      }

      .cls-2 {
        fill: #ef6c00;
      }

      .cls-3 {
        fill: #455a64;
      }

      .cls-4 {
        fill: #b0bec5;
      }

      .cls-5 {
        fill: #cfd8dc;
      }

      .cls-6 {
        fill: #039be5;
      }

      .cls-7 {
        fill: #78909c;
      }
    </style>
  </defs>
  <title>06 Towel</title>
  <g>
    <path class="cls-1" d="M58,15H54a.9992.9992,0,0,0-.9961,1.0835l.335,4A1,1,0,0,0,54.335,21H58a3,3,0,0,0,0-6Z"/>
    <path class="cls-2" d="M58.326,15.033A2.9626,2.9626,0,0,1,58.5,16a3.0033,3.0033,0,0,1-3,3H53.2481l.0908,1.0835A1,1,0,0,0,54.335,21H58a2.992,2.992,0,0,0,.326-5.967Z"/>
    <path class="cls-3" d="M23.7666,14.3574a1.0019,1.0019,0,0,0-.7109-.3559l-11-.5a.9849.9849,0,0,0-.7618.29.9993.9993,0,0,0-.2929.76l.3125,25.5a1,1,0,0,0,.999.9487H20a1.0009,1.0009,0,0,0,.9932-.8809l3-25A1.0053,1.0053,0,0,0,23.7666,14.3574Z"/>
    <path class="cls-4" d="M52.95,13.0557A6.9154,6.9154,0,0,0,48,11H16a1,1,0,0,0,0,2,5.0059,5.0059,0,0,1,5,5V56a1,1,0,0,0,1,1H54a1,1,0,0,0,1-1V18A6.9132,6.9132,0,0,0,52.95,13.0557Z"/>
    <path class="cls-5" d="M52.95,13.0557A6.9154,6.9154,0,0,0,48,11H16a1,1,0,0,0,0,2,5.0059,5.0059,0,0,1,5,5V56a1,1,0,0,0,1,1H54a1,1,0,0,0,1-1V18A6.9132,6.9132,0,0,0,52.95,13.0557Z"/>
    <path class="cls-4" d="M52.95,13.0557A6.9154,6.9154,0,0,0,48,11H44.5018A7.0111,7.0111,0,0,1,49,17.5357V40.3035A11.2321,11.2321,0,0,1,37.7679,51.5357H21V56a1,1,0,0,0,1,1H54a1,1,0,0,0,1-1V18A6.9132,6.9132,0,0,0,52.95,13.0557Z"/>
    <path class="cls-6" d="M54.5693,39.2852a.9987.9987,0,0,0-.92-.1148l-4.9863,1.8687L43.6758,39.17a.9987.9987,0,0,0-.7022,0l-4.9824,1.8687-4.9775-1.8682A1.007,1.007,0,0,0,32.31,39.17l-4.9794,1.8687L22.3516,39.17A1.0008,1.0008,0,0,0,21,40.1069v5a1.0009,1.0009,0,0,0,.6484.9366l5.3311,2a1.0023,1.0023,0,0,0,.7031,0l4.98-1.8687L37.64,48.043a1.0029,1.0029,0,0,0,.7032.0005l4.9824-1.8687,4.9873,1.8687a.9971.9971,0,0,0,.7012,0l5.3369-2A1,1,0,0,0,55,45.1069v-5A.9992.9992,0,0,0,54.5693,39.2852Z"/>
    <path class="cls-7" d="M17.8156,11.2361a7.0151,7.0151,0,0,0-8.4194,4.4365l-.05.24L9,20V40a1,1,0,0,0,1,1h2a1,1,0,0,0,1-1V20a1.0012,1.0012,0,0,1,.1057-.4477l2-4A.9921.9921,0,0,1,15.9774,15,3.0031,3.0031,0,0,1,19,18V56a1,1,0,0,0,1,1h2a.9978.9978,0,0,0,1-.9974V18.2364A7.1667,7.1667,0,0,0,17.8156,11.2361Z"/>
    <path class="cls-1" d="M16,15H6a3,3,0,0,0,0,6H18a1,1,0,0,0,1-1V18A3.0033,3.0033,0,0,0,16,15Z"/>
    <path class="cls-2" d="M16.326,15.033A2.9626,2.9626,0,0,1,16.5,16v2a1,1,0,0,1-1,1H3.5a2.9193,2.9193,0,0,1-.3259-.033A2.9942,2.9942,0,0,0,6,21H18a1,1,0,0,0,1-1V18A2.9934,2.9934,0,0,0,16.326,15.033Z"/>
  </g>
</svg>
