<svg id="Layer_2" data-name="Layer 2" xmlns="http://www.w3.org/2000/svg" viewBox="0 0 64 64">
  <defs>
    <style>
      .cls-1 {
        fill: #ff8f00;
      }

      .cls-2 {
        fill: #ef6c00;
      }

      .cls-3 {
        fill: #455a64;
      }

      .cls-4 {
        fill: #cfd8dc;
      }

      .cls-5 {
        fill: #b0bec5;
      }

      .cls-6 {
        fill: #78909c;
      }
    </style>
  </defs>
  <title>07 Toilet Paper</title>
  <g>
    <path class="cls-1" d="M58,15H54.4141a1,1,0,0,0-.9893,1.145l.5859,4A.9994.9994,0,0,0,55,21h3a3,3,0,0,0,0-6Z"/>
    <path class="cls-2" d="M58,15h-.2064A2.9722,2.9722,0,0,1,58,16.0714a3.0033,3.0033,0,0,1-3,3H53.8535l.1572,1.0736A.9994.9994,0,0,0,55,21h3a3,3,0,0,0,0-6Z"/>
    <path class="cls-3" d="M30.3193,13.5942,18.1406,10.9517a.995.995,0,0,0-.8769.23L8.3711,19.11a1.0006,1.0006,0,0,0-.3037.9951c2.2275,8.5429,1.9817,8.0113,2.2314,8.3149l5.9287,7.2144A.999.999,0,0,0,17,36H28a1,1,0,0,0,.9951-.8975l2.1074-20.4287A1,1,0,0,0,30.3193,13.5942Z"/>
    <path class="cls-4" d="M47.0547,10H17a1,1,0,0,0,0,2,7.0081,7.0081,0,0,1,7,7v3h2V56.2a1,1,0,0,0,1.3715.9284L30,56.0767l4.6393,1.8522a.999.999,0,0,0,.7416,0L40.01,56.0771l4.6181,1.8511a1,1,0,0,0,.7438,0L50,56.0771l4.6285,1.8514A1,1,0,0,0,56,57V18.9453A8.9454,8.9454,0,0,0,47.0547,10Z"/>
    <path class="cls-5" d="M47.0547,10h-7A8.9452,8.9452,0,0,1,49,18.9453V45.6607a6,6,0,0,1-6,6H26V56.2a1,1,0,0,0,1.3715.9284L30,56.0767l4.6393,1.8523a1,1,0,0,0,.7416,0L40.01,56.0771l4.6181,1.8511a1,1,0,0,0,.7437,0L50,56.0771l4.6285,1.8514A1,1,0,0,0,56,57V18.9453A8.9452,8.9452,0,0,0,47.0547,10Z"/>
    <path class="cls-6" d="M53,27H49V25h4Zm-6,0H43V25h4Zm-6,0H37V25h4Zm-6,0H31V25h4Z"/>
    <path class="cls-6" d="M17,10a8.9576,8.9576,0,0,0-8.34,5.62.7283.7283,0,0,0-.07.24l-.58,4A.615.615,0,0,0,8,20v7a9,9,0,0,0,18,0V19A9.0136,9.0136,0,0,0,17,10Zm5,15a5,5,0,0,1-10,0V20a1.0327,1.0327,0,0,1,.29-.71l4-4A1.0327,1.0327,0,0,1,17,15a5.0018,5.0018,0,0,1,5,5Z"/>
    <path class="cls-1" d="M17,15H6a3,3,0,0,0,0,6H21a1,1,0,0,0,1-1A5.0059,5.0059,0,0,0,17,15Z"/>
    <path class="cls-2" d="M17.9988,15.101A4.953,4.953,0,0,1,19,18.0714a1,1,0,0,1-1,1H3.2065A2.998,2.998,0,0,0,6,21H21a1,1,0,0,0,1-1A5.0083,5.0083,0,0,0,17.9988,15.101Z"/>
  </g>
</svg>
