<svg id="Layer_2" data-name="Layer 2" xmlns="http://www.w3.org/2000/svg" viewBox="0 0 64 64">
  <defs>
    <style>
      .cls-1 {
        fill: #29b6f6;
      }

      .cls-2 {
        fill: #039be5;
      }

      .cls-3 {
        fill: #81d4fa;
      }

      .cls-4 {
        fill: #0288d1;
      }

      .cls-5 {
        fill: #01579b;
      }
    </style>
  </defs>
  <title>08 Bath Towel</title>
  <g>
    <path class="cls-1" d="M21.835,34.0894,7.2031,28.2446a1.0073,1.0073,0,0,0-.6621-.0278A4.9715,4.9715,0,0,0,3,33v2a5.0159,5.0159,0,0,0,2.4131,4.2788L18.6494,50.7012a.9994.9994,0,0,0,1.6426-.6138l2.1611-14.9263A1,1,0,0,0,21.835,34.0894Z"/>
    <path class="cls-2" d="M21.8878,34.1216,20.292,45.1431a.9994.9994,0,0,1-1.6426.6137L5.4131,34.3345a5.0108,5.0108,0,0,1-2.1843-2.8173A5.0382,5.0382,0,0,0,3,33v2a5.0159,5.0159,0,0,0,2.4131,4.2788L18.6494,50.7012a.9994.9994,0,0,0,1.6426-.6138l2.1611-14.9263A.9945.9945,0,0,0,21.8878,34.1216Z"/>
    <path class="cls-1" d="M59.2881,30.5269l-13.2627-11.45A3.5085,3.5085,0,0,0,43.5,18H8a5.0059,5.0059,0,0,0-5,5v2a5.0088,5.0088,0,0,0,2.4492,4.3008L18.5928,40.6455a1.0013,1.0013,0,0,0,.6533.2432,1.0236,1.0236,0,0,0,.2139-.023l39.3886-8.605a1,1,0,0,0,.44-1.7338Z"/>
    <path class="cls-2" d="M28.54,34.44v4.45l-9.08,1.98a1.4919,1.4919,0,0,1-.21.02,1.07,1.07,0,0,1-.66-.24L5.45,29.3A5.024,5.024,0,0,1,3,25V23a5.3357,5.3357,0,0,1,.16-1.2,5.01,5.01,0,0,0,2.29,3.06L18.59,36.2a1.0131,1.0131,0,0,0,.66.24.7487.7487,0,0,0,.21-.02Z"/>
    <path class="cls-3" d="M59.2881,30.5269l-13.2627-11.45A3.5085,3.5085,0,0,0,43.5,18H42.24l5.0445,5.2a2.3435,2.3435,0,0,1-1.0315,3.8832L21.8878,34.1216l-.9291,6.4167,37.89-8.2776a1,1,0,0,0,.44-1.7338Z"/>
    <path class="cls-4" d="M61,33.5A3.5042,3.5042,0,0,0,57.5,30H22a5.0059,5.0059,0,0,0-5,5v2a4.9813,4.9813,0,0,0,2.0309,4A4.9813,4.9813,0,0,0,17,45v2a5.0059,5.0059,0,0,0,5,5H57.5a3.499,3.499,0,0,0,1.9553-6.4014A4.9767,4.9767,0,0,0,61,42V40a4.9767,4.9767,0,0,0-1.5447-3.5986A3.5,3.5,0,0,0,61,33.5Z"/>
    <path class="cls-5" d="M60.6548,35H24.8219a6.3351,6.3351,0,0,0-.4147-1.394l-1.8379.788a3.8882,3.8882,0,0,1,0,3.212l1.8379.788A6.3351,6.3351,0,0,0,24.8219,37h35.147a5.1126,5.1126,0,0,0-.5136-.5986A3.5187,3.5187,0,0,0,60.6548,35Z"/>
    <path class="cls-5" d="M54.0811,38.606A6.33,6.33,0,0,0,53.6664,40H18.0282a5.1154,5.1154,0,0,0,1.0027,1,5.1154,5.1154,0,0,0-1.0027,1H53.6664a6.33,6.33,0,0,0,.4147,1.394l1.8378-.788a3.889,3.889,0,0,1,0-3.212Z"/>
    <path class="cls-5" d="M24.8219,45a6.3351,6.3351,0,0,0-.4147-1.394l-1.8379.788a3.8882,3.8882,0,0,1,0,3.212l1.8379.788A6.3351,6.3351,0,0,0,24.8219,47H60.6548a3.5187,3.5187,0,0,0-1.2-1.4014A5.1126,5.1126,0,0,0,59.9689,45Z"/>
  </g>
</svg>
