<svg id="Layer_2" data-name="Layer 2" xmlns="http://www.w3.org/2000/svg" viewBox="0 0 64 64">
  <defs>
    <style>
      .cls-1 {
        fill: #ef6c00;
      }

      .cls-2 {
        fill: #e65100;
      }

      .cls-3 {
        fill: #1a237e;
      }

      .cls-4 {
        fill: #fbc02d;
      }
    </style>
  </defs>
  <title>09 Dustpan</title>
  <g>
    <path class="cls-1" d="M32,3a5.6468,5.6468,0,0,0-5.6279,6.06l1.6308,22.0136A1,1,0,0,0,29,32h6a1,1,0,0,0,.9971-.9263L37.6279,9.06A5.6467,5.6467,0,0,0,32,3Z"/>
    <path class="cls-2" d="M32,3V23a3,3,0,0,1-3,3H27.6271l.3758,5.0737A1,1,0,0,0,29,32h6a1,1,0,0,0,.9971-.9263L37.6279,9.06A5.6467,5.6467,0,0,0,32,3Z"/>
    <circle class="cls-3" cx="32" cy="9" r="2"/>
    <path class="cls-4" d="M54.2993,37.1768A9.0349,9.0349,0,0,0,45.4858,30H18.5142a9.0349,9.0349,0,0,0-8.8135,7.1768l-4.68,22.6206A1.0007,1.0007,0,0,0,6,61H58a1.0008,1.0008,0,0,0,.98-1.2026Z"/>
    <path class="cls-1" d="M58.91,59.5864,51.042,42.2754A9.0191,9.0191,0,0,0,42.8486,37H21.1514a9.0187,9.0187,0,0,0-8.1934,5.2759L5.09,59.5864A1,1,0,0,0,6,61H58A1,1,0,0,0,58.91,59.5864Z"/>
    <path class="cls-2" d="M12.4156,47.7426A10.3826,10.3826,0,0,1,21.1514,43H42.8486a10.383,10.383,0,0,1,8.7357,4.7421L58.8619,59.48l-7.82-17.2049A9.0191,9.0191,0,0,0,42.8486,37H21.1514a9.0187,9.0187,0,0,0-8.1934,5.2759l-7.82,17.2049Z"/>
  </g>
</svg>
