<svg id="Layer_2" data-name="Layer 2" xmlns="http://www.w3.org/2000/svg" viewBox="0 0 64 64">
  <defs>
    <style>
      .cls-1 {
        fill: #1a237e;
      }

      .cls-2 {
        fill: #80deea;
      }

      .cls-3 {
        fill: #bdbdbd;
      }

      .cls-4 {
        fill: #90a4ae;
      }

      .cls-5 {
        fill: #1565c0;
      }

      .cls-6 {
        fill: #0d47a1;
      }

      .cls-7 {
        fill: #f4511e;
      }

      .cls-8 {
        fill: #bf360c;
      }
    </style>
  </defs>
  <title>10 Wiper Stick</title>
  <g>
    <rect class="cls-1" x="3" y="13" width="58" height="14" rx="1"/>
    <g>
      <path class="cls-2" d="M17.4277,34.2944c-2.122-.8154-3.2485-2.1059-3.4453-3.9443a1,1,0,0,0-1.9883,0c-.1967,1.8384-1.3237,3.1284-3.4458,3.9443a1.0011,1.0011,0,0,0,0,1.8672c2.1221.8159,3.25,2.106,3.4458,3.9444a1,1,0,0,0,1.9883,0c.1963-1.8384,1.3233-3.1289,3.4453-3.9444A1.0011,1.0011,0,0,0,17.4277,34.2944Z"/>
      <path class="cls-2" d="M56.4277,43.2944c-2.122-.8154-3.2485-2.1059-3.4453-3.9443a1,1,0,0,0-1.9883,0c-.1967,1.8384-1.3237,3.1284-3.4458,3.9443a1.0011,1.0011,0,0,0,0,1.8672c2.1221.8159,3.25,2.106,3.4458,3.9444a1,1,0,0,0,1.9883,0c.1963-1.8384,1.3233-3.1289,3.4453-3.9444A1.0011,1.0011,0,0,0,56.4277,43.2944Z"/>
      <rect class="cls-2" x="31" y="3" width="2" height="8"/>
      <rect class="cls-2" x="37" y="3" width="2" height="5"/>
      <rect class="cls-2" x="25" y="3" width="2" height="5"/>
      <rect class="cls-2" x="53" y="3" width="2" height="8"/>
      <rect class="cls-2" x="59" y="3" width="2" height="5"/>
      <rect class="cls-2" x="47" y="3" width="2" height="5"/>
      <rect class="cls-2" x="9" y="3" width="2" height="8"/>
      <rect class="cls-2" x="15" y="3" width="2" height="5"/>
      <rect class="cls-2" x="3" y="3" width="2" height="5"/>
    </g>
    <path class="cls-3" d="M4,27H60a1,1,0,0,0,1-1V20H3v6A1,1,0,0,0,4,27Z"/>
    <path class="cls-4" d="M57,20v2a1,1,0,0,1-1,1H3v3a1,1,0,0,0,1,1H60a1,1,0,0,0,1-1V20Z"/>
    <path class="cls-5" d="M42,17H22a1,1,0,0,0-1,1v6a1.0008,1.0008,0,0,0,.168.5547l4,6A1,1,0,0,0,26,31H38a1,1,0,0,0,.832-.4453l4-6A1.0008,1.0008,0,0,0,43,24V18A1,1,0,0,0,42,17Z"/>
    <path class="cls-6" d="M42,17H22a1,1,0,0,0-1,1v2H35a3,3,0,0,1,3,3v4a1,1,0,0,1-.1679.5546L35.5352,31H38a1,1,0,0,0,.832-.4453l4-6A1.0008,1.0008,0,0,0,43,24V18A1,1,0,0,0,42,17Z"/>
    <rect class="cls-7" x="28" y="29" width="8" height="32" rx="1"/>
    <path class="cls-8" d="M35,29H29a1,1,0,0,0-1,1v2h2a3,3,0,0,1,3,3V61h2a1,1,0,0,0,1-1V30A1,1,0,0,0,35,29Z"/>
  </g>
</svg>
