<svg id="Layer_2" data-name="Layer 2" xmlns="http://www.w3.org/2000/svg" viewBox="0 0 64 64">
  <defs>
    <style>
      .cls-1 {
        fill: #f4511e;
      }

      .cls-2 {
        fill: #bf360c;
      }

      .cls-3 {
        fill: #80deea;
      }

      .cls-4 {
        fill: #fbc02d;
      }

      .cls-5 {
        fill: #ffa726;
      }

      .cls-6 {
        fill: #42a5f5;
      }

      .cls-7 {
        fill: #039be5;
      }

      .cls-8 {
        fill: #1565c0;
      }

      .cls-9 {
        fill: #0d47a1;
      }
    </style>
  </defs>
  <title>11 Duster Feather</title>
  <g>
    <path class="cls-1" d="M41.35,25.4917l-2.8286-2.8281a1,1,0,0,0-1.3994-.0147L4.2446,54.2A3.9392,3.9392,0,1,0,9.814,59.769L41.3647,26.8911A1,1,0,0,0,41.35,25.4917Z"/>
    <path class="cls-2" d="M41.35,25.4917l-2.8286-2.8281a1,1,0,0,0-1.3994-.0147l-2.71,2.6,1.17,1.17a1.9949,1.9949,0,0,1,.0043,2.8241L4.629,60.2009a3.93,3.93,0,0,0,5.185-.4319L41.3647,26.8911A1,1,0,0,0,41.35,25.4917Z"/>
    <g>
      <path class="cls-3" d="M48.3184,37.0664c-2.1221-.8159-3.2491-2.106-3.4458-3.9443a1,1,0,0,0-1.9883,0c-.1968,1.8383-1.3233,3.1289-3.4453,3.9443a1.0011,1.0011,0,0,0,0,1.8672c2.122.8154,3.2485,2.106,3.4453,3.9443a1,1,0,0,0,1.9883,0c.1967-1.8383,1.3237-3.1284,3.4458-3.9443A1.0011,1.0011,0,0,0,48.3184,37.0664Z"/>
      <path class="cls-3" d="M30.37,20.4932c-2.122-.816-3.249-2.106-3.4453-3.9444a1,1,0,0,0-1.9883,0c-.1963,1.8384-1.3237,3.1284-3.4458,3.9444a1.0011,1.0011,0,0,0,0,1.8672c2.1221.8159,3.2491,2.1059,3.4458,3.9443a1,1,0,0,0,1.9883,0c.1963-1.8384,1.3233-3.1284,3.4453-3.9443A1.0011,1.0011,0,0,0,30.37,20.4932Z"/>
    </g>
    <g>
      <path class="cls-3" d="M29.2935,3.0073A5.0062,5.0062,0,0,0,24.5713,8.271l.0542.9985a3,3,0,0,0,5.9912-.3247l-.1079-1.997-1.9971.1079.1079,1.997a1,1,0,1,1-1.997.1084l-.0542-.9985A3,3,0,1,1,32.56,7.8379l.4048,7.4653,1.997-.1084L34.5566,7.73A5.0135,5.0135,0,0,0,29.2935,3.0073Z"/>
      <path class="cls-3" d="M56.2705,29.4434l-7.4653-.4048-.1084,1.997,7.4653.4048a3,3,0,1,1-.3247,5.9912l-.9985-.0542a1,1,0,1,1,.1084-1.997l1.997.1079.1079-1.9971-1.9965-.1079a3,3,0,0,0-.3252,5.9912l.9985.0542q.1377.0073.2739.0073a5,5,0,0,0,.2676-9.9926Z"/>
    </g>
    <path class="cls-4" d="M60.9385,21.457c-.376-1.3178-2.2212-2.708-3.2783-3.4135.0888-1.2613.1191-3.5577-.6851-4.6724-.7979-1.105-2.98-1.8081-4.2056-2.1279-.3183-1.2261-1.019-3.4087-2.1245-4.2085-1.1128-.8037-3.4106-.7754-4.6723-.687-.7056-1.0562-2.0957-2.9009-3.4175-3.2759a7.5367,7.5367,0,0,0-4.0323.4492,1,1,0,0,0-.5942,1.2251A23.9906,23.9906,0,0,1,38.2012,14.78a1,1,0,0,0,.2827.8506L48.3833,25.53a1.0093,1.0093,0,0,0,.8506.2827,24.02,24.02,0,0,1,10.0351.272,1,1,0,0,0,1.2256-.5948A7.5177,7.5177,0,0,0,60.9385,21.457Z"/>
    <path class="cls-5" d="M52.77,11.2432c-.3047-1.1734-.9637-3.21-1.9884-4.0847-1.4552,3.04-3.8315,7.6949-4.9435,8.1447-1.664.6732-4.1947-.7724-4.1947-.7724l-1.734,2.5246,3.8324,3.8324,11.2527-8.891A15.4217,15.4217,0,0,0,52.77,11.2432Z"/>
    <path class="cls-5" d="M49.2339,25.8125a24.02,24.02,0,0,1,10.0351.272,1.0006,1.0006,0,0,0,1.2256-.5948,7.5177,7.5177,0,0,0,.4439-4.0327c-.0125-.0439-.0391-.0882-.0548-.1322-2.5281.8231-8.0185,2.447-9.459,1.5323a25.2305,25.2305,0,0,1-4.46-4.5l-3.223,2.5307,4.642,4.642A1.0093,1.0093,0,0,0,49.2339,25.8125Z"/>
    <path class="cls-6" d="M57.99,18.27c-.1141-.08-.228-.1591-.3295-.2268.0888-1.2613.1191-3.5577-.6851-4.6724-.7979-1.105-2.98-1.8081-4.2056-2.1279l-.0135-.05-9.0147,9.6941L45.1937,22.34c4.26-2.29,11.4179-3.7828,11.4179-3.7828Z"/>
    <path class="cls-7" d="M45.96,21.9529a56.4168,56.4168,0,0,1,10.6521-3.3955L57.99,18.27c-.1141-.08-.228-.1591-.3295-.2268a9.6853,9.6853,0,0,0-.4765-4.3017c-2.617,1.5908-7.4927,4.4636-8.4869,4.401a4.8025,4.8025,0,0,1-1.761-.69l-2.8931,3.1111Z"/>
    <path class="cls-6" d="M45.8376,6.1517c-.7366-1.0739-2.0362-2.7263-3.2824-3.08a7.5367,7.5367,0,0,0-4.0323.4492,1,1,0,0,0-.5942,1.2251A23.9906,23.9906,0,0,1,38.2012,14.78a1,1,0,0,0,.2827.8506l3.2866,3.2866c2.291-4.26,3.7857-11.4149,3.7857-11.4149Z"/>
    <path class="cls-7" d="M45.5562,7.5021l.2814-1.35c-.7117-1.0375-1.9486-2.604-3.1554-3.0285a60.168,60.168,0,0,1-1.0393,7.8018c-.4555,1.7-2.0033,2.0518-3.2257,2.0494-.0581.589-.1264,1.1877-.216,1.8054a1,1,0,0,0,.2827.8506l2.6315,2.6315.839.2916A54.672,54.672,0,0,0,45.5562,7.5021Z"/>
    <path class="cls-8" d="M49.7974,24.1157l-9.9-9.9a1,1,0,0,0-1.6938.5464L36.8276,23.21a1,1,0,0,0,.28.8676c2.8576,2.7254,2.8806,3.2426,3.6963,3.1079L49.251,25.81A1,1,0,0,0,49.7974,24.1157Z"/>
    <path class="cls-9" d="M49.5355,23.8539l-8.1581,1.3288c-.933.1541-.9594-.4375-4.2279-3.5548-.0205-.0206-.0343-.0457-.0531-.0676l-.2688,1.65a1,1,0,0,0,.28.8676c2.8576,2.7254,2.8806,3.2427,3.6963,3.1079L49.251,25.81a1,1,0,0,0,.5464-1.6939Z"/>
  </g>
</svg>
