<svg id="Layer_2" data-name="Layer 2" xmlns="http://www.w3.org/2000/svg" viewBox="0 0 64 64">
  <defs>
    <style>
      .cls-1 {
        fill: #ef6c00;
      }

      .cls-2 {
        fill: #e65100;
      }

      .cls-3 {
        fill: #fbc02d;
      }
    </style>
  </defs>
  <title>12 Sponge</title>
  <g>
    <path class="cls-1" d="M60,28H4a1,1,0,0,0-1,1V42A11.0125,11.0125,0,0,0,14,53h8a10.9827,10.9827,0,0,0,8.418-3.9209,2.0843,2.0843,0,0,1,3.164,0A10.9827,10.9827,0,0,0,42,53h8A11.0125,11.0125,0,0,0,61,42V29A1,1,0,0,0,60,28Z"/>
    <path class="cls-2" d="M60,28H55V41.25a7.25,7.25,0,0,1-7.25,7.25H42a10.6778,10.6778,0,0,1-8.3831-3.8783,2.0829,2.0829,0,0,0-3.2338,0A10.6775,10.6775,0,0,1,22,48.5H14a11.0125,11.0125,0,0,1-11-11V42A11,11,0,0,0,14,53h8a10.6778,10.6778,0,0,0,8.3831-3.8783,2.0829,2.0829,0,0,1,3.2338,0A10.6778,10.6778,0,0,0,42,53h8A11,11,0,0,0,61,42V29A1,1,0,0,0,60,28Z"/>
    <path class="cls-3" d="M50,11H42a10.9827,10.9827,0,0,0-8.418,3.9209,2.0843,2.0843,0,0,1-3.164,0A10.9827,10.9827,0,0,0,22,11H14A11.0125,11.0125,0,0,0,3,22V32A11.0125,11.0125,0,0,0,14,43h8a10.9827,10.9827,0,0,0,8.418-3.9209,2.0843,2.0843,0,0,1,3.164,0A10.9827,10.9827,0,0,0,42,43h8A11.0125,11.0125,0,0,0,61,32V22A11.0125,11.0125,0,0,0,50,11Z"/>
    <g>
      <circle class="cls-2" cx="14.5" cy="20.5" r="3.5"/>
      <circle class="cls-2" cx="49.5" cy="32.5" r="3.5"/>
      <circle class="cls-2" cx="34.5" cy="26.5" r="3.5"/>
      <circle class="cls-2" cx="18.5" cy="32.5" r="3.5"/>
      <circle class="cls-2" cx="47.5" cy="20.5" r="3.5"/>
    </g>
  </g>
</svg>
