<svg id="Layer_2" data-name="Layer 2" xmlns="http://www.w3.org/2000/svg" viewBox="0 0 64 64">
  <defs>
    <style>
      .cls-1 {
        fill: #fbc02d;
      }

      .cls-2 {
        fill: #ff8f00;
      }

      .cls-3 {
        fill: #1976d2;
      }

      .cls-4 {
        fill: #1565c0;
      }

      .cls-5 {
        fill: #80deea;
      }

      .cls-6 {
        fill: #1a237e;
      }

      .cls-7 {
        fill: #f4511e;
      }

      .cls-8 {
        fill: #bf360c;
      }
    </style>
  </defs>
  <title>13 Mop</title>
  <g>
    <path class="cls-1" d="M59.4209,25.4028c-1.0949-1.0276-1.0717-.9689-.6338-2.4306A3.7105,3.7105,0,0,0,58.8525,20,3.74,3.74,0,0,0,56.22,18.5635c-1.47-.3434-1.4376-.31-1.7832-1.7837a3.74,3.74,0,0,0-1.4355-2.6323,3.7156,3.7156,0,0,0-2.9727.0654c-1.4614.4378-1.4026.4631-2.4316-.6333A3.77,3.77,0,0,0,45,12a3.8806,3.8806,0,0,0-2.8467,1.2651,1.9425,1.9425,0,0,1-1.49.7349c-1.5113,0-1.82-2-4.3379-2-2.4934,0-2.83,2-4.334,2-1.5025,0-1.8164-2-4.33-2-2.5064,0-2.8244,2-4.33,2C21.8275,14,21.5154,12,19,12a3.77,3.77,0,0,0-2.5967,1.58c-1.0261,1.0933-.967,1.0707-2.4316.6333A3.71,3.71,0,0,0,11,14.147,3.7377,3.7377,0,0,0,9.5645,16.78C9.22,18.2511,9.2514,18.22,7.7813,18.563a3.7469,3.7469,0,0,0-2.6338,1.4355c-.9115,1.5709.5546,3.5311.3281,4.3775C5.27,25.1368,3,26.1973,3,28a3.7727,3.7727,0,0,0,1.5791,2.5972c1.0949,1.0276,1.0717.9689.6338,2.4306A3.7105,3.7105,0,0,0,5.1475,36,3.74,3.74,0,0,0,7.78,37.4365c1.47.3434,1.4376.31,1.7832,1.7837a3.74,3.74,0,0,0,1.4355,2.6323,3.7035,3.7035,0,0,0,2.9727-.0654c1.4614-.4378,1.4026-.4631,2.4316.6333A3.77,3.77,0,0,0,19,44c2.65,0,2.5368-1.7236,4.3379-2,1.3669-.2078,1.839,2,4.3369,2a3.54,3.54,0,0,0,2.3389-.8223l3.997.0083A3.5309,3.5309,0,0,0,36.3389,44c2.5064,0,2.8244-2,4.33-2,1.5036,0,1.8157,2,4.3311,2a3.77,3.77,0,0,0,2.5967-1.58c1.0261-1.0933.967-1.0707,2.4316-.6333A3.71,3.71,0,0,0,53,41.853,3.7377,3.7377,0,0,0,54.4355,39.22c.3449-1.4708.3131-1.4394,1.7833-1.7827a3.7469,3.7469,0,0,0,2.6337-1.4355,3.7141,3.7141,0,0,0-.0654-2.9737c-.4379-1.46-.462-1.4022.6338-2.4306A3.7727,3.7727,0,0,0,61,28,3.7727,3.7727,0,0,0,59.4209,25.4028Z"/>
    <g>
      <path class="cls-2" d="M59.4209,25.4028c-1.0949-1.0276-1.0717-.9689-.6338-2.4306A3.7105,3.7105,0,0,0,58.8525,20,3.74,3.74,0,0,0,56.22,18.5635c-1.47-.3434-1.4376-.31-1.7832-1.7837a3.74,3.74,0,0,0-1.4355-2.6323,3.7156,3.7156,0,0,0-2.9727.0654c-1.04.3117-1.3132.4053-1.7536.043A14.7065,14.7065,0,0,1,51.9883,24.03,12.97,12.97,0,0,1,39.0182,37H6.3331a8.1884,8.1884,0,0,0,1.4472.4365c1.47.3433,1.4376.31,1.7832,1.7837a3.74,3.74,0,0,0,1.4355,2.6323,3.7035,3.7035,0,0,0,2.9727-.0654c1.4614-.4379,1.4026-.4631,2.4316.6333A3.77,3.77,0,0,0,19,44c2.65,0,2.5368-1.7236,4.3379-2,1.3669-.2078,1.839,2,4.3369,2a3.54,3.54,0,0,0,2.3389-.8223l3.997.0083A3.5309,3.5309,0,0,0,36.3389,44c2.5064,0,2.8244-2,4.33-2,1.5036,0,1.8157,2,4.3311,2a3.77,3.77,0,0,0,2.5967-1.58c1.0261-1.0933.967-1.0707,2.4316-.6333A3.71,3.71,0,0,0,53,41.853,3.7377,3.7377,0,0,0,54.4355,39.22c.345-1.4708.3131-1.4394,1.7833-1.7827a3.7469,3.7469,0,0,0,2.6337-1.4355,3.7141,3.7141,0,0,0-.0654-2.9737c-.4379-1.46-.462-1.4022.6338-2.4306A3.7727,3.7727,0,0,0,61,28,3.7727,3.7727,0,0,0,59.4209,25.4028Z"/>
      <path class="cls-2" d="M47.1539,13.12a6.4963,6.4963,0,0,0-.4856-.4414C46.8364,12.8184,46.9922,12.9721,47.1539,13.12Z"/>
    </g>
    <path class="cls-3" d="M45,19H19a9,9,0,0,0,0,18H45a9,9,0,0,0,0-18Z"/>
    <path class="cls-4" d="M45,19h-.668a8.9846,8.9846,0,0,1-6.6891,15H12.3109A8.97,8.97,0,0,0,19,37H45a9,9,0,0,0,0-18Z"/>
    <g>
      <rect class="cls-5" x="31" y="3" width="2" height="8"/>
      <rect class="cls-5" x="37" y="3" width="2" height="5"/>
      <rect class="cls-5" x="25" y="3" width="2" height="5"/>
      <rect class="cls-5" x="53" y="3" width="2" height="8"/>
      <rect class="cls-5" x="59" y="3" width="2" height="5"/>
      <rect class="cls-5" x="47" y="3" width="2" height="5"/>
      <rect class="cls-5" x="9" y="3" width="2" height="8"/>
      <rect class="cls-5" x="15" y="3" width="2" height="5"/>
      <rect class="cls-5" x="3" y="3" width="2" height="5"/>
      <path class="cls-5" d="M17.4277,50.2944c-2.122-.8159-3.249-2.1059-3.4453-3.9443a1,1,0,0,0-1.9883,0c-.1962,1.8384-1.3232,3.1284-3.4453,3.9443a1.0009,1.0009,0,0,0,0,1.8672c2.1221.8159,3.2491,2.106,3.4453,3.9444a1,1,0,0,0,1.9883,0c.1963-1.8384,1.3233-3.1285,3.4453-3.9444A1.0009,1.0009,0,0,0,17.4277,50.2944Z"/>
      <path class="cls-5" d="M56.4277,49.2944c-2.122-.8159-3.249-2.1059-3.4453-3.9443a1,1,0,0,0-1.9883,0c-.1962,1.8384-1.3232,3.1284-3.4453,3.9443a1.0009,1.0009,0,0,0,0,1.8672c2.1221.8159,3.2491,2.106,3.4453,3.9444a1,1,0,0,0,1.9883,0c.1963-1.8384,1.3233-3.1285,3.4453-3.9444A1.0009,1.0009,0,0,0,56.4277,49.2944Z"/>
    </g>
    <rect class="cls-6" x="26" y="24" width="12" height="8" rx="1"/>
    <path class="cls-7" d="M32,27a3.0033,3.0033,0,0,0-3,3V60a1,1,0,0,0,1,1h4a1,1,0,0,0,1-1V30A3.0033,3.0033,0,0,0,32,27Z"/>
    <path class="cls-8" d="M32,27a3.0033,3.0033,0,0,0-3,3,3.0033,3.0033,0,0,1,3,3V61h2a1,1,0,0,0,1-1V30A3.0033,3.0033,0,0,0,32,27Z"/>
  </g>
</svg>
