<svg id="Layer_2" data-name="Layer 2" xmlns="http://www.w3.org/2000/svg" viewBox="0 0 64 64">
  <defs>
    <style>
      .cls-1 {
        fill: #cfd8dc;
      }

      .cls-2 {
        fill: #b0bec5;
      }

      .cls-3 {
        fill: #ef6c00;
      }

      .cls-4 {
        fill: #e65100;
      }

      .cls-5 {
        fill: #78909c;
      }

      .cls-6 {
        fill: #fbc02d;
      }

      .cls-7 {
        fill: #ff8f00;
      }
    </style>
  </defs>
  <title>14 Scrub Brush</title>
  <g>
    <path class="cls-1" d="M58,40V52a1.004,1.004,0,0,1-1.37.93L52,51.08l-4.63,1.85c-.5644.2116-.95-.1236-1.37-.25l-4-1.6-4,1.6c-.4249.1278-.8115.4594-1.37.25-.1031-.0412-4.7331-1.8913-4.63-1.85l-4.63,1.85c-.5644.2116-.95-.1236-1.37-.25l-3-1.2-1-.4-4,1.6c-.4249.1278-.8115.4594-1.37.25L13,51.48l-1-.4L7.37,52.93A1.0036,1.0036,0,0,1,6,52V40a1.0029,1.0029,0,0,1,1-1H57A1.0029,1.0029,0,0,1,58,40Z"/>
    <path class="cls-2" d="M57,39H52v1.446a8.0531,8.0531,0,0,1-8.0532,8.0532H6V52a1.0036,1.0036,0,0,0,1.37.93L12,51.08l1,.4,3.63,1.45c.5585.2093.9451-.1222,1.37-.25l4-1.6,1,.4,3,1.2c.42.1264.8055.4615,1.37.25L32,51.08c-.1031-.0413,4.5269,1.8088,4.63,1.85.5585.2093.9451-.1222,1.37-.25l4-1.6,4,1.6c.42.1264.8055.4615,1.37.25L52,51.08c-.306-.1224,4.5269,1.8088,4.63,1.85A1.004,1.004,0,0,0,58,52V40A1.0029,1.0029,0,0,0,57,39Z"/>
    <path class="cls-3" d="M56,11H25A19.0216,19.0216,0,0,0,6,30v2a1,1,0,0,0,1,1H23a1,1,0,0,0,1-1V26a5.0059,5.0059,0,0,1,5-5H56a5,5,0,0,0,0-10Z"/>
    <path class="cls-4" d="M61,16a4.9065,4.9065,0,0,0-.0614-.6072H31a18.997,18.997,0,0,0-16.6737,9.9238,5.9812,5.9812,0,0,1-5.2521,3.1119H6.08C6.0367,28.9481,6,29.47,6,30v2a1,1,0,0,0,1,1H23a1,1,0,0,0,1-1V26a5.0059,5.0059,0,0,1,5-5H56A5.0059,5.0059,0,0,0,61,16Z"/>
    <g>
      <polygon class="cls-5" points="13 44 13 51.48 12 51.08 11 51.48 11 44 13 44"/>
      <path class="cls-5" d="M18,44v8.68l-.63.25c-.5644.2116-.95-.1236-1.37-.25V44Z"/>
      <polygon class="cls-5" points="23 44 23 51.48 22 51.08 21 51.48 21 44 23 44"/>
      <path class="cls-5" d="M28,44v8.68l-.63.25c-.5644.2116-.95-.1236-1.37-.25V44Z"/>
      <polygon class="cls-5" points="33 44 33 51.48 32 51.08 31 51.48 31 44 33 44"/>
      <path class="cls-5" d="M38,44v8.68c-.4249.1278-.8115.4594-1.37.25L36,52.68V44Z"/>
      <polygon class="cls-5" points="43 44 43 51.48 42 51.08 41 51.48 41 44 43 44"/>
      <path class="cls-5" d="M48,44v8.68l-.63.25c-.5644.2116-.95-.1236-1.37-.25V44Z"/>
      <polygon class="cls-5" points="53 44 53 51.48 52 51.08 51 51.48 51 44 53 44"/>
    </g>
    <rect class="cls-6" x="3" y="31" width="58" height="10" rx="3"/>
    <path class="cls-7" d="M58,31H56v3a3.0033,3.0033,0,0,1-3,3H3v1a3.0033,3.0033,0,0,0,3,3H58a3.0033,3.0033,0,0,0,3-3V34A3.0033,3.0033,0,0,0,58,31Z"/>
  </g>
</svg>
