<svg id="Layer_2" data-name="Layer 2" xmlns="http://www.w3.org/2000/svg" viewBox="0 0 64 64">
  <defs>
    <style>
      .cls-1 {
        fill: #78909c;
      }

      .cls-2 {
        fill: #546e7a;
      }

      .cls-3 {
        fill: #263238;
      }

      .cls-4 {
        fill: #212121;
      }

      .cls-5 {
        fill: #757575;
      }

      .cls-6 {
        fill: #616161;
      }

      .cls-7 {
        fill: #fbc02d;
      }

      .cls-8 {
        fill: #ff8f00;
      }

      .cls-9 {
        fill: #e65100;
      }
    </style>
  </defs>
  <title>15 Vacuum Cleaner</title>
  <g>
    <path class="cls-1" d="M36.5791,3A14.4679,14.4679,0,0,0,23.041,12.4561L8.2725,52.7324a1,1,0,0,0,.9384,1.3443h.0176L13.5176,54a.9992.9992,0,0,0,.9209-.6558L28.6738,14.5215A8.42,8.42,0,0,1,45,17.42V22a1,1,0,0,0,1,1h4a1,1,0,0,0,1-1V17.42A14.4366,14.4366,0,0,0,36.5791,3Z"/>
    <path class="cls-2" d="M36.5791,5.5a11.96,11.96,0,0,0-11.1914,7.8164L10.45,54.0548,13.5176,54a.9992.9992,0,0,0,.9209-.6558L28.6738,14.5215A8.42,8.42,0,0,1,45,17.42V22a1,1,0,0,0,1,1h2.5V17.42A11.9343,11.9343,0,0,0,36.5791,5.5Z"/>
    <path class="cls-3" d="M18.3192,25.3334,8.2725,52.7324a1,1,0,0,0,.9384,1.3443h.0176L13.5176,54a.9992.9992,0,0,0,.9209-.6558l9.4836-25.8637Z"/>
    <path class="cls-4" d="M13.5176,54a.9992.9992,0,0,0,.9209-.6558l9.4836-25.8637-3.2687-1.2526L10.45,54.0548Z"/>
    <rect class="cls-5" x="3" y="52" width="16" height="5" rx="1"/>
    <path class="cls-6" d="M18,52H16.21v.98a1,1,0,0,1-1,1H3V56a1,1,0,0,0,1,1H18a1,1,0,0,0,1-1V53A1,1,0,0,0,18,52Z"/>
    <path class="cls-7" d="M51,22H43A13.0147,13.0147,0,0,0,30,35V52a5.0059,5.0059,0,0,0,5,5H55a1,1,0,0,0,1-1V27A5.0059,5.0059,0,0,0,51,22Z"/>
    <path class="cls-8" d="M51,22H49V40.5a10,10,0,0,1-10,10H30V52a5.0059,5.0059,0,0,0,5,5H55a1,1,0,0,0,1-1V27A5.0059,5.0059,0,0,0,51,22Z"/>
    <circle class="cls-4" cx="55" cy="51" r="6"/>
    <circle class="cls-5" cx="55" cy="51" r="2"/>
    <path class="cls-9" d="M35,46.6924a7.0082,7.0082,0,0,0,7-7V22.0507A13.0086,13.0086,0,0,0,30,35V46.6924Z"/>
  </g>
</svg>
