<svg id="Layer_2" data-name="Layer 2" xmlns="http://www.w3.org/2000/svg" viewBox="0 0 64 64">
  <defs>
    <style>
      .cls-1 {
        fill: #ef6c00;
      }

      .cls-2 {
        fill: #e65100;
      }

      .cls-3 {
        fill: #fbc02d;
      }

      .cls-4 {
        fill: #cfd8dc;
      }

      .cls-5 {
        fill: #b0bec5;
      }

      .cls-6 {
        fill: #78909c;
      }
    </style>
  </defs>
  <title>16 Tissue Box</title>
  <g>
    <path class="cls-1" d="M60,25H4a1,1,0,0,0-1,1V48a5.0059,5.0059,0,0,0,5,5H56a5.0059,5.0059,0,0,0,5-5V26A1,1,0,0,0,60,25Z"/>
    <path class="cls-2" d="M60,25H55.41V43.3715a5.0059,5.0059,0,0,1-5,5H3.0375A4.9908,4.9908,0,0,0,8,53H56a5.0059,5.0059,0,0,0,5-5V26A1,1,0,0,0,60,25Z"/>
    <rect class="cls-3" x="3" y="16" width="58" height="21" rx="5"/>
    <rect class="cls-2" x="18" y="25" width="28" height="2"/>
    <rect class="cls-3" x="20" y="40" width="24" height="7" rx="1"/>
    <path class="cls-4" d="M49.78,10.62A29.8426,29.8426,0,0,0,42.99,26.1.9976.9976,0,0,1,42,27H22a.9976.9976,0,0,1-.99-.9,29.8426,29.8426,0,0,0-6.79-15.48A.999.999,0,0,1,15.04,9c2.76.11,6.15.05,7.84-1.29,1.88-1.52,6.11-1.73,9.12.09,3.01-1.82,7.24-1.61,9.12-.09C42.81,9.05,46.2,9.11,48.96,9A.999.999,0,0,1,49.78,10.62Z"/>
    <path class="cls-5" d="M48.96,9a27.3282,27.3282,0,0,1-4.4478-.1214,34.1411,34.1411,0,0,0-4.6588,13.67,1.2315,1.2315,0,0,1-1.2221,1.111H20.6169c.1668.8106.3073,1.6234.3931,2.44A.9976.9976,0,0,0,22,27H42a.9976.9976,0,0,0,.99-.9,29.8426,29.8426,0,0,1,6.79-15.48A.999.999,0,0,0,48.96,9Z"/>
    <rect class="cls-6" x="31" y="14.75" width="2" height="12.25"/>
    <path class="cls-6" d="M28.05,27H26.03a20.6108,20.6108,0,0,0-1.62-10.31l1.8-.87A22.6,22.6,0,0,1,28.05,27Z"/>
    <path class="cls-6" d="M37.97,27H35.96a22.4014,22.4014,0,0,1,1.83-11.18l1.8.87A20.93,20.93,0,0,0,37.97,27Z"/>
  </g>
</svg>
