<svg id="Layer_2" data-name="Layer 2" xmlns="http://www.w3.org/2000/svg" viewBox="0 0 64 64">
  <defs>
    <style>
      .cls-1 {
        fill: #26c6da;
      }

      .cls-2 {
        fill: #039be5;
      }

      .cls-3 {
        fill: #283593;
      }

      .cls-4 {
        fill: #1a237e;
      }

      .cls-5 {
        fill: #42a5f5;
      }

      .cls-6 {
        fill: #1e88e5;
      }

      .cls-7 {
        fill: #90a4ae;
      }

      .cls-8 {
        fill: #546e7a;
      }

      .cls-9 {
        fill: #bdbdbd;
      }
    </style>
  </defs>
  <title>17 Spray</title>
  <g>
    <path class="cls-1" d="M52.1963,4.02l-5-1A1,1,0,0,0,46,4v7a1,1,0,0,0,1.1963.98l5-1A1,1,0,0,0,53,10V5A1,1,0,0,0,52.1963,4.02Z"/>
    <path class="cls-2" d="M51.1963,8.9805A1,1,0,0,1,50,8V3.58L47.1963,3.02A1,1,0,0,0,46,4v7a1,1,0,0,0,1.1963.98l5-1A1,1,0,0,0,53,10V8.62Z"/>
    <path class="cls-3" d="M42.8164,22.4126A34.59,34.59,0,0,1,41.42,11.0513a1,1,0,0,0-1.354-.9859L35.8506,11.668a1,1,0,0,0-.6333,1.0849,28.908,28.908,0,0,0,3.8984,11.0982,1.0006,1.0006,0,0,0,1.125.4087l1.9146-.5777A1.0009,1.0009,0,0,0,42.8164,22.4126Z"/>
    <path class="cls-4" d="M39.2173,15.7529a1,1,0,0,1,.6333-1.0849l1.5726-.5979c-.0479-1.0388-.0524-2.0595-.0033-3.0188a1,1,0,0,0-1.354-.9859L35.8506,11.668a1,1,0,0,0-.6333,1.0849,28.908,28.908,0,0,0,3.8984,11.0982,1.0006,1.0006,0,0,0,1.125.4087l1.2879-.3886A32.4421,32.4421,0,0,1,39.2173,15.7529Z"/>
    <path class="cls-5" d="M47,3H22a9.01,9.01,0,0,0-9,9v1a3.0033,3.0033,0,0,0,3,3,3.0033,3.0033,0,0,1,3,3v1a1,1,0,0,0,1,1H33a1,1,0,0,0,1-1V19a7.0078,7.0078,0,0,1,7-7h6a1,1,0,0,0,1-1V4A1,1,0,0,0,47,3Z"/>
    <path class="cls-6" d="M22,20V19c0-1.6543-1.3457-4-3-4a3.0033,3.0033,0,0,1-3-3,9.01,9.01,0,0,1,9-9H22a9.01,9.01,0,0,0-9,9v1a3.0033,3.0033,0,0,0,3,3,3.0033,3.0033,0,0,1,3,3v1a1,1,0,0,0,1,1h3A1,1,0,0,1,22,20Z"/>
    <rect class="cls-7" x="19" y="19" width="15" height="8" rx="1"/>
    <path class="cls-8" d="M23,23a1,1,0,0,1-1-1V19H20a1,1,0,0,0-1,1v6a1,1,0,0,0,1,1H33a1,1,0,0,0,1-1V23Z"/>
    <path class="cls-9" d="M43.4917,37.5933,41.22,36.728A5.0266,5.0266,0,0,1,38,32.0557V30a5.0059,5.0059,0,0,0-5-5H20a5.0059,5.0059,0,0,0-5,5V56a5.0059,5.0059,0,0,0,5,5H43a5.0059,5.0059,0,0,0,5-5V44.1348A7.0378,7.0378,0,0,0,43.4917,37.5933Z"/>
    <path class="cls-7" d="M47,58H24a5.0059,5.0059,0,0,1-5-5V27a4.9711,4.9711,0,0,1,.3918-1.9385A4.99,4.99,0,0,0,15,30V56a5.0059,5.0059,0,0,0,5,5H43a5.0073,5.0073,0,0,0,4.6082-3.0615A4.9187,4.9187,0,0,1,47,58Z"/>
    <circle class="cls-4" cx="31" cy="47" r="8"/>
  </g>
</svg>
