<svg id="Layer_2" data-name="Layer 2" xmlns="http://www.w3.org/2000/svg" viewBox="0 0 64 64">
  <defs>
    <style>
      .cls-1 {
        fill: #bdbdbd;
      }

      .cls-2 {
        fill: #90a4ae;
      }

      .cls-3 {
        fill: #283593;
      }

      .cls-4 {
        fill: #1a237e;
      }

      .cls-5 {
        fill: #42a5f5;
      }

      .cls-6 {
        fill: #1e88e5;
      }

      .cls-7 {
        fill: #80deea;
      }

      .cls-8 {
        fill: #546e7a;
      }
    </style>
  </defs>
  <title>18 Iron</title>
  <g>
    <path class="cls-1" d="M13.5771,17.8579A15.1782,15.1782,0,0,0,4,15a1,1,0,0,0-1,1v4a1,1,0,0,0,1,1c3.2837,0,5.623.9033,6.9526,2.6841a1,1,0,0,0,1.7662-.336l1.2075-4.44A.9994.9994,0,0,0,13.5771,17.8579Z"/>
    <path class="cls-2" d="M12.7188,23.3481l.56-2.0576A17.9624,17.9624,0,0,0,3,18.1141V20a1,1,0,0,0,1,1c3.2837,0,5.623.9033,6.9526,2.6841A1,1,0,0,0,12.7188,23.3481Z"/>
    <path class="cls-3" d="M46,15H39a1,1,0,0,0-1,1v2.6943a1,1,0,0,0,.5581.897l7,3.45A1,1,0,0,0,47,22.1445V16A1,1,0,0,0,46,15Z"/>
    <rect class="cls-3" x="25" y="27" width="9" height="6" rx="1"/>
    <path class="cls-4" d="M28,30a1,1,0,0,1-1-1V27H26a1,1,0,0,0-1,1v4a1,1,0,0,0,1,1h7a1,1,0,0,0,1-1V30Z"/>
    <path class="cls-4" d="M47,22.1445v-2.994a61.3523,61.3523,0,0,0-8.5455-3.9665A.9825.9825,0,0,0,38,16v2.6943a1,1,0,0,0,.5581.897l7,3.45A1,1,0,0,0,47,22.1445Z"/>
    <path class="cls-5" d="M23,14H14a1,1,0,0,0-.9634.7324l-5,18A1,1,0,0,0,9,34a4.0045,4.0045,0,0,1,4,4,1,1,0,0,0,1,1H58a1,1,0,0,0,1-1V35C59,26.3643,37.8037,14,23,14ZM45.5333,32H20.1362a2,2,0,0,1-1.927-2.5353l1.9445-7A2,2,0,0,1,22.0807,21H25c5.1758,0,12.4,2.1831,18.8555,5.6973q1.49.8115,2.7376,1.6045A2.001,2.001,0,0,1,45.5333,32Z"/>
    <path class="cls-6" d="M16.3654,34a1,1,0,0,1-1-1c0-2.2056-.66-2.3662-2.8655-2.3662a1,1,0,0,1-.9633-1.2676L15.8411,14H14a1,1,0,0,0-.9634.7324l-5,18A1,1,0,0,0,9,34a4.0045,4.0045,0,0,1,4,4,1,1,0,0,0,1,1H58a1,1,0,0,0,1-1V35a5.782,5.782,0,0,0-.1-1Z"/>
    <rect class="cls-7" x="8.6921" y="49.5001" width="7.6158" height="1.9997" transform="translate(-38.8392 42.0865) rotate(-66.7904)"/>
    <rect class="cls-7" x="20.5001" y="46.6921" width="1.9997" height="7.6158" transform="translate(-18.1545 12.5524) rotate(-23.1986)"/>
    <rect class="cls-7" x="16" y="47" width="2" height="8"/>
    <rect class="cls-7" x="44.6921" y="49.5001" width="7.6158" height="1.9997" transform="translate(-17.0267 75.173) rotate(-66.7904)"/>
    <rect class="cls-7" x="56.5001" y="46.6921" width="1.9997" height="7.6158" transform="translate(-15.2438 26.7335) rotate(-23.1986)"/>
    <rect class="cls-7" x="52" y="47" width="2" height="8"/>
    <rect class="cls-7" x="27.1921" y="49.5001" width="7.6158" height="1.9997" transform="translate(-27.63 59.0893) rotate(-66.7904)"/>
    <rect class="cls-7" x="39.0001" y="46.6921" width="1.9997" height="7.6158" transform="translate(-16.6587 19.8399) rotate(-23.1986)"/>
    <rect class="cls-7" x="34.5" y="47" width="2" height="8"/>
    <rect class="cls-2" x="11" y="37" width="50" height="7" rx="1"/>
    <path class="cls-8" d="M16,41a2,2,0,0,1-2-2V37H12a1,1,0,0,0-1,1v5a1,1,0,0,0,1,1H60a1,1,0,0,0,1-1V41Z"/>
  </g>
</svg>
