<svg id="Layer_2" data-name="Layer 2" xmlns="http://www.w3.org/2000/svg" viewBox="0 0 64 64">
  <defs>
    <style>
      .cls-1 {
        fill: #e65100;
      }

      .cls-2 {
        fill: #fbc02d;
      }

      .cls-3 {
        fill: #ff8f00;
      }

      .cls-4 {
        fill: #d50000;
      }
    </style>
  </defs>
  <title>19 Warning Board</title>
  <g>
    <path class="cls-1" d="M49.1519,3.83A1,1,0,0,0,48.1665,3H42.7333L37,46H35.2961l2.9378,6.4165A1,1,0,0,0,39.1431,53H47.61l1.2382,7.17a1,1,0,0,0,.9854.83h8a1,1,0,0,0,.9853-1.17Z"/>
    <path class="cls-2" d="M48.5981,3.356A1,1,0,0,0,47.8335,3h-31a1,1,0,0,0-.9854.83l-9.6669,56A1,1,0,0,0,7.1665,61h8a1,1,0,0,0,.9854-.83L17.39,53H30.36l-1.1792,6.83A1,1,0,0,0,30.1665,61h8a1,1,0,0,0,.9854-.83l9.6669-56A.9972.9972,0,0,0,48.5981,3.356ZM39.2651,13.17A.9993.9993,0,0,1,38.28,14h-15a1,1,0,0,1-.9854-1.17l.8633-5A.9994.9994,0,0,1,24.1431,7h15a1,1,0,0,1,.9853,1.17Z"/>
    <path class="cls-3" d="M48.5981,3.356A1,1,0,0,0,47.8335,3H38.7883l-.6905,4h1.0453a1,1,0,0,1,.9853,1.17l-.8633,5A.9993.9993,0,0,1,38.28,14h-1.39L31.1509,47.2427a.9994.9994,0,0,1-.9854.83H8.2108L6.1812,59.83A1,1,0,0,0,7.1665,61h8a1,1,0,0,0,.9854-.83L17.39,53H30.36l-1.1792,6.83A1,1,0,0,0,30.1665,61h8a1,1,0,0,0,.9854-.83l9.6669-56A.9972.9972,0,0,0,48.5981,3.356Z"/>
    <path class="cls-4" d="M35.3638,36.4961l-7-12a1.04,1.04,0,0,0-1.7276,0l-7,12A1.0006,1.0006,0,0,0,20.5,38h14A1.0006,1.0006,0,0,0,35.3638,36.4961Z"/>
  </g>
</svg>
