<svg id="Layer_2" data-name="Layer 2" xmlns="http://www.w3.org/2000/svg" viewBox="0 0 64 64">
  <defs>
    <style>
      .cls-1 {
        fill: #212121;
      }

      .cls-2 {
        fill: #fbc02d;
      }

      .cls-3 {
        fill: #ff8f00;
      }

      .cls-4 {
        fill: #111;
      }

      .cls-5 {
        fill: #00e676;
      }
    </style>
  </defs>
  <title>20 Trash Bag</title>
  <g>
    <path class="cls-1" d="M42.97,4.24c-.09.35-2.19,8.52-7.6,10.69A.9366.9366,0,0,1,35,15c-6.351-.02-6.0793.0511-6.37-.07-5.41-2.17-7.51-10.34-7.6-10.69A.9942.9942,0,0,1,22,3c4.2818.0806,6.5658-.6985,10,3.1A8.2973,8.2973,0,0,1,38,3h4A.9943.9943,0,0,1,42.97,4.24Z"/>
    <path class="cls-2" d="M36,13H28a3,3,0,0,0,0,6h8a3,3,0,0,0,0-6Z"/>
    <path class="cls-3" d="M36.0174,13.0018a3.0032,3.0032,0,0,1-3,2.9982h-8L25,15.9982,25,16a3.0033,3.0033,0,0,0,3,3h8a2.9991,2.9991,0,0,0,.0174-5.9982Z"/>
    <path class="cls-4" d="M36.76,9.82l-1.84.79A18.0989,18.0989,0,0,0,32,6.1a11.6,11.6,0,0,1,1.46-1.37A20.0586,20.0586,0,0,1,36.76,9.82Z"/>
    <path class="cls-1" d="M52.8589,47.6089A2.96,2.96,0,0,1,51,44.9458V30A13.0144,13.0144,0,0,0,38,17H26A13.0144,13.0144,0,0,0,13,30V44.9458a2.96,2.96,0,0,1-1.8589,2.6631,6.9839,6.9839,0,0,0-4.1377,6.6055A7.1835,7.1835,0,0,0,14.2515,61h35.497a7.1835,7.1835,0,0,0,7.2481-6.7852A6.9841,6.9841,0,0,0,52.8589,47.6089Z"/>
    <path class="cls-4" d="M52.8589,47.6089A2.96,2.96,0,0,1,51,44.9458V30A13.0144,13.0144,0,0,0,38,17H33.3474a9.651,9.651,0,0,1,9.651,9.6509V39.8936A15.1064,15.1064,0,0,1,27.892,55H7.0782a7.2269,7.2269,0,0,0,7.1733,6h35.497a7.1835,7.1835,0,0,0,7.2481-6.7852A6.9841,6.9841,0,0,0,52.8589,47.6089Z"/>
    <g>
      <path class="cls-5" d="M35.7429,38.7921l-1.22-.25-.4013,1.959,3.4814.7124a.99.99,0,0,0,.2017.02,1,1,0,0,0,.9692-.7583l.8579-3.4444-1.94-.4834L37.41,37.677l-4.54-8.0261a1,1,0,0,0-1.7344-.0117L28.38,34.3643l1.7275,1.0078,1.8794-3.2212Z"/>
      <path class="cls-5" d="M26.6694,37.7075l-3.4121.9795.5518,1.9229,1.1185-.3213-4.6815,7.9448a1,1,0,0,0,.8569,1.5078l5.4707.0244.0088-2L22.853,47.749l3.8734-6.574.3937,1.1814,1.8975-.6328L27.894,38.3525A1.0014,1.0014,0,0,0,26.6694,37.7075Z"/>
      <path class="cls-5" d="M43.7607,48.2451l-2.7143-4.75-1.7363.9922,1.8505,3.2383-7.63-.0675.826-.9315L32.86,45.3994l-2.3575,2.6582a1,1,0,0,0,.0537,1.3833l2.5542,2.4654,1.3887-1.44L33.663,49.66l9.2208.0817h.0088A1,1,0,0,0,43.7607,48.2451Z"/>
    </g>
  </g>
</svg>
