<svg id="Layer_2" data-name="Layer 2" xmlns="http://www.w3.org/2000/svg" viewBox="0 0 64 64">
  <defs>
    <style>
      .cls-1 {
        fill: #f4511e;
      }

      .cls-2 {
        fill: #bf360c;
      }

      .cls-3 {
        fill: #fbc02d;
      }

      .cls-4 {
        fill: #ff8f00;
      }

      .cls-5 {
        fill: #1a237e;
      }

      .cls-6 {
        fill: #1976d2;
      }

      .cls-7 {
        fill: #1565c0;
      }

      .cls-8 {
        fill: #212121;
      }

      .cls-9 {
        fill: #757575;
      }
    </style>
  </defs>
  <title>21 Cleaning Cart</title>
  <g>
    <path class="cls-1" d="M52.4,3.17a3.0158,3.0158,0,0,0-3.3936,2.5469c-.0355.2493-3.4179,23.9573-3.4443,24.1421A1,1,0,0,0,46.5527,31h4.0411a1,1,0,0,0,.99-.8589L54.9473,6.5645A3.0046,3.0046,0,0,0,52.4,3.17Z"/>
    <path class="cls-2" d="M52.4461,3.1813,49.2269,25.7482a1,1,0,0,1-.99.8589h-2.21c-.2759,1.9343-.4579,3.21-.4639,3.2518A1,1,0,0,0,46.5527,31h4.0411a1,1,0,0,0,.99-.8589L54.9473,6.5645A3.0019,3.0019,0,0,0,52.4461,3.1813Z"/>
    <path class="cls-1" d="M41.9932,5.7163a3,3,0,0,0-5.94.8477L39.416,30.1411a1,1,0,0,0,.99.8589h4.041a1,1,0,0,0,.99-1.1411Z"/>
    <path class="cls-2" d="M41.9932,5.7163A3.0105,3.0105,0,0,0,39.23,3.15l3.2488,22.7718a1,1,0,0,1-.99,1.1411H38.9769l.4391,3.0786a1,1,0,0,0,.99.8589h4.041a1,1,0,0,0,.99-1.1411Z"/>
    <path class="cls-3" d="M54,29H37a1,1,0,0,0-.9922,1.124l2,16A1,1,0,0,0,39,47H52a1,1,0,0,0,.9922-.876l2-16A1,1,0,0,0,54,29Z"/>
    <path class="cls-4" d="M54,29H49.8527l-1.0738,8.59a6.038,6.038,0,0,1-5.9914,5.2891H37.6022l.4056,3.245A1,1,0,0,0,39,47H52a1,1,0,0,0,.9922-.876l2-16A1,1,0,0,0,54,29Z"/>
    <rect class="cls-3" x="10" y="15" width="20" height="32" rx="1"/>
    <path class="cls-4" d="M29,15H23V28.2122A11.0694,11.0694,0,0,1,11.9307,39.2816H10V46a1,1,0,0,0,1,1H29a1,1,0,0,0,1-1V16A1,1,0,0,0,29,15Z"/>
    <rect class="cls-5" x="28" y="15" width="6" height="32" rx="1"/>
    <path class="cls-6" d="M60,45H11a1,1,0,0,0-1,1v4.4189a1.0012,1.0012,0,0,0,.3711.7774l6.8994,5.581A1,1,0,0,0,17.8994,57H60a1,1,0,0,0,1-1V46A1,1,0,0,0,60,45Z"/>
    <rect class="cls-6" x="3" y="11" width="55" height="6" rx="1"/>
    <path class="cls-7" d="M57,11H53.5v2.3838a1,1,0,0,1-1,1H3V16a1,1,0,0,0,1,1H57a1,1,0,0,0,1-1V12A1,1,0,0,0,57,11Z"/>
    <path class="cls-7" d="M60,45H56.0179v2.116A5.884,5.884,0,0,1,50.1339,53H12.6009l4.67,3.7773A1,1,0,0,0,17.8994,57H60a1,1,0,0,0,1-1V46A1,1,0,0,0,60,45Z"/>
    <circle class="cls-8" cx="49.5" cy="56.5" r="4.5"/>
    <circle class="cls-8" cx="13" cy="55" r="6"/>
    <circle class="cls-9" cx="13" cy="55" r="2"/>
  </g>
</svg>
