<svg id="Layer_2" data-name="Layer 2" xmlns="http://www.w3.org/2000/svg" xmlns:xlink="http://www.w3.org/1999/xlink" viewBox="0 0 64 64">
  <defs>
    <style>
      .cls-1 {
        fill: url(#linear-gradient);
      }

      .cls-2 {
        fill: url(#linear-gradient-2);
      }

      .cls-3 {
        fill: #f4511e;
      }

      .cls-4 {
        fill: #bf360c;
      }

      .cls-5 {
        fill: #c62828;
      }

      .cls-6 {
        fill: #b71c1c;
      }

      .cls-7 {
        fill: #e53935;
      }

      .cls-8 {
        fill: #d32f2f;
      }
    </style>
    <linearGradient id="linear-gradient" x1="18" y1="11.3838" x2="18" y2="22.9184" gradientUnits="userSpaceOnUse">
      <stop offset="0" stop-color="#a1dfff"/>
      <stop offset="1" stop-color="#21c1ff"/>
    </linearGradient>
    <linearGradient id="linear-gradient-2" x1="47" y1="39.5967" x2="47" y2="51.1313" xlink:href="#linear-gradient"/>
  </defs>
  <title>22 Sink Plunger</title>
  <g>
    <g>
      <path class="cls-1" d="M22.44,16.2178c-2.1221-.8159-3.2491-2.106-3.4454-3.9449a1,1,0,0,0-1.9882,0c-.1963,1.8389-1.3233,3.129-3.4454,3.9449a1.0009,1.0009,0,0,0,0,1.8672c2.1221.8159,3.2491,2.1059,3.4454,3.9443a1,1,0,0,0,1.9882,0c.1963-1.8384,1.3233-3.1284,3.4454-3.9443A1.0009,1.0009,0,0,0,22.44,16.2178Z"/>
      <path class="cls-2" d="M51.44,44.43c-2.1221-.8155-3.2491-2.1055-3.4454-3.9444a1,1,0,0,0-1.9882,0c-.1963,1.8389-1.3233,3.1289-3.4454,3.9444a1.0009,1.0009,0,0,0,0,1.8672c2.1221.8159,3.2491,2.1059,3.4454,3.9448a1,1,0,0,0,1.9882,0c.1963-1.8389,1.3233-3.1289,3.4454-3.9448A1.0009,1.0009,0,0,0,51.44,44.43Z"/>
    </g>
    <path class="cls-3" d="M60.043,3.957a3.0025,3.0025,0,0,0-4.2422,0L27.998,31.7593a1,1,0,0,0,0,1.414l2.8291,2.8282a1,1,0,0,0,1.4141,0L60.043,8.2A2.9986,2.9986,0,0,0,60.043,3.957Z"/>
    <path class="cls-4" d="M33.2416,31.6362a1,1,0,0,1-1.4141,0L29.974,29.7834l-1.976,1.9759a1,1,0,0,0,0,1.414l2.8291,2.8282a1,1,0,0,0,1.4141,0L60.043,8.2a2.9992,2.9992,0,0,0,.3926-3.7575Z"/>
    <rect class="cls-5" x="25.7058" y="29.2946" width="5.9995" height="11.9999" rx="0.9999" transform="translate(-16.5494 30.6354) rotate(-45)"/>
    <path class="cls-6" d="M33.3869,35.7336l-.8524.8523a.9994.9994,0,0,1-1.414,0L25.0245,30.49l-1.9757,1.9759a1,1,0,0,0,0,1.4141L30.12,40.9512a1,1,0,0,0,1.4141,0l2.8281-2.8282a1,1,0,0,0,0-1.414Z"/>
    <path class="cls-7" d="M31.5342,39.5371l-7.0713-7.0708a12.0139,12.0139,0,0,0-16.9707,0,1,1,0,0,0,0,1.4141L30.12,56.5078a1,1,0,0,0,1.4141,0A12.0139,12.0139,0,0,0,31.5342,39.5371Z"/>
    <path class="cls-8" d="M32.6937,40.9063c-.0329.1469-.0483.2968-.0868.4426a4.7033,4.7033,0,0,1-7.87,2.06L11.256,29.9291a11.9268,11.9268,0,0,0-3.7638,2.5372,1,1,0,0,0,0,1.4141L30.12,56.5078a1,1,0,0,0,1.4141,0A12.0084,12.0084,0,0,0,32.6937,40.9063Z"/>
    <path class="cls-5" d="M32.2412,55.8008,8.1992,31.7593A3,3,0,1,0,3.957,36.0015L27.998,60.043a3,3,0,1,0,4.2432-4.2422Z"/>
    <path class="cls-6" d="M32.2412,55.8008l-.803-.8031a2.9548,2.9548,0,0,1-4.5607.3882L3.64,32.1475a2.9918,2.9918,0,0,0,.3175,3.854L27.998,60.043a3,3,0,1,0,4.2432-4.2422Z"/>
  </g>
</svg>
