<svg id="Layer_2" data-name="Layer 2" xmlns="http://www.w3.org/2000/svg" viewBox="0 0 64 64">
  <defs>
    <style>
      .cls-1 {
        fill: #80deea;
      }

      .cls-2 {
        fill: #78909c;
      }

      .cls-3 {
        fill: #546e7a;
      }

      .cls-4 {
        fill: #212121;
      }

      .cls-5 {
        fill: #f4511e;
      }

      .cls-6 {
        fill: #bf360c;
      }
    </style>
  </defs>
  <title>23 Toilet Brush</title>
  <g>
    <g>
      <path class="cls-1" d="M43.5205,50.0874c-2.1221-.8159-3.249-2.106-3.4453-3.9448a1,1,0,0,0-1.9883-.0005c-.1973,1.8393-1.3242,3.13-3.4453,3.9453a1.0009,1.0009,0,0,0,0,1.8672c2.1211.8149,3.248,2.1055,3.4453,3.9448a1,1,0,0,0,1.9883-.0005c.1963-1.8388,1.3232-3.1289,3.4453-3.9443A1.0009,1.0009,0,0,0,43.5205,50.0874Z"/>
      <path class="cls-1" d="M18.833,22.0664c-2.1221-.8159-3.249-2.106-3.4453-3.9443a1,1,0,0,0-1.9883,0c-.1973,1.8388-1.3242,3.1294-3.4453,3.9448a1.0009,1.0009,0,0,0,0,1.8672c2.1211.8154,3.248,2.106,3.4453,3.9448a1,1,0,0,0,1.9883,0c.1963-1.8383,1.3232-3.1284,3.4453-3.9443A1.0009,1.0009,0,0,0,18.833,22.0664Z"/>
    </g>
    <path class="cls-2" d="M46.6211,20.207,43.793,17.3789a1,1,0,0,0-1.4141,0L10.8584,48.8994a1,1,0,0,0,0,1.4141l2.8281,2.8286a1,1,0,0,0,1.4141,0l31.5205-31.521A1,1,0,0,0,46.6211,20.207Z"/>
    <path class="cls-3" d="M46.6211,20.207,43.793,17.3789a1,1,0,0,0-1.4141,0l-2.3868,2.3868,1.4752,1.4753a1,1,0,0,1,0,1.414L12.3337,51.7891l1.3528,1.353a1,1,0,0,0,1.4141,0l31.5205-31.521A1,1,0,0,0,46.6211,20.207Z"/>
    <g>
      <rect class="cls-4" x="23.2931" y="29.7071" width="1.9998" height="20.0003" transform="translate(-20.962 28.8077) rotate(-45)"/>
      <rect class="cls-4" x="20.4645" y="32.5356" width="1.9998" height="19.9996" transform="translate(-23.79 27.6351) rotate(-44.999)"/>
      <rect class="cls-4" x="17.6363" y="35.3642" width="1.9998" height="19.9996" transform="translate(-26.6184 26.4638) rotate(-44.999)"/>
      <rect class="cls-4" x="14.8077" y="38.1921" width="1.9998" height="20.0006" transform="translate(-29.4472 25.2929) rotate(-45)"/>
      <polygon class="cls-4" points="6.615 43.243 5.201 44.657 9.544 48.999 3.354 47.231 2.806 49.154 9.34 51.021 2.806 52.888 3.354 54.811 9.544 53.042 4.494 58.092 5.908 59.506 10.957 54.457 9.188 60.646 11.112 61.195 12.979 54.662 14.846 61.195 16.77 60.646 15.002 54.458 19.343 58.799 20.757 57.385 6.615 43.243"/>
    </g>
    <path class="cls-5" d="M60.6211,6.207,57.793,3.3789a3.0716,3.0716,0,0,0-4.2422,0L42.3789,14.55a3.0031,3.0031,0,0,0,0,4.2427l2.8281,2.8281a2.9973,2.9973,0,0,0,4.2422,0L60.6211,10.45A3.0031,3.0031,0,0,0,60.6211,6.207Z"/>
    <path class="cls-6" d="M60.035,5.621,49.4492,16.2064a2.9974,2.9974,0,0,1-4.2422,0l-2.242-2.2421-.5861.586a3.0031,3.0031,0,0,0,0,4.2427l2.8281,2.8281a2.9973,2.9973,0,0,0,4.2422,0L60.6211,10.45a3.0031,3.0031,0,0,0,0-4.2427Z"/>
  </g>
</svg>
