<svg id="Layer_2" data-name="Layer 2" xmlns="http://www.w3.org/2000/svg" viewBox="0 0 64 64">
  <defs>
    <style>
      .cls-1 {
        fill: #fbc02d;
      }

      .cls-2 {
        fill: #ff8f00;
      }

      .cls-3 {
        fill: #ef6c00;
      }
    </style>
  </defs>
  <title>24 Rubber Gloves</title>
  <g>
    <path class="cls-1" d="M59.29,34.66,45.98,40.07,43.3,53.47a.999.999,0,0,1-1.3.75l-7.77-2.6a1.006,1.006,0,0,1-.67-.79c-3.82-24.28-3.61-22.78-3.6-22.96l.34-9.18a.4484.4484,0,0,1,.01-.11L32.27,5.42a2.7671,2.7671,0,0,1,4.14-1.97,2.8237,2.8237,0,0,1,1.31,2.84L35.84,18.87a.42.42,0,0,0,.81.18L40.58,5.01a2.78,2.78,0,0,1,5.35,1.51L41.92,20.86c-.13.48.6.67.77.25L48.4,6.41a2.7782,2.7782,0,0,1,5.18,2.01l-5.6,14.43a.3748.3748,0,0,0,.69.29l5.9-12.95a2.7746,2.7746,0,0,1,5.05,2.3L53.36,26.22l-1.69,3.13-.06.1c1.65.06,2.4.79,3.74.49l2.24-.49a2.7471,2.7471,0,0,1,1.7,5.21Z"/>
    <polygon class="cls-2" points="52.85 27.16 51.67 29.35 46.62 30.06 46.34 28.08 52.85 27.16"/>
    <path class="cls-2" d="M47.98,22.85a.3312.3312,0,0,0,.1.4,3.1214,3.1214,0,0,1-1.57-3.92l5.5-14.47a2.7379,2.7379,0,0,1,1.57,3.56Z"/>
    <path class="cls-2" d="M59.62,12.49,53.36,26.22a2.9121,2.9121,0,0,1-1.28-3.84L58.44,8.93A2.7428,2.7428,0,0,1,59.62,12.49Z"/>
    <path class="cls-2" d="M59.29,34.66,45.98,40.07,43.3,53.47a.999.999,0,0,1-1.3.75l-7.77-2.6a1.006,1.006,0,0,1-.67-.79c-.18-1.15-.35-2.25-.52-3.29l2.34.68a4.8857,4.8857,0,0,0,6.07-3.36l1.26-4.43a5.8267,5.8267,0,0,1,3.66-3.9L60.9,31.4A2.7418,2.7418,0,0,1,59.29,34.66Z"/>
    <path class="cls-2" d="M37.72,6.29,35.84,18.87a.3681.3681,0,0,0,.2.39,3.6791,3.6791,0,0,1-2.51-4.08L35.41,3.1a2.9914,2.9914,0,0,1,1,.35A2.8237,2.8237,0,0,1,37.72,6.29Z"/>
    <path class="cls-2" d="M45.93,6.52,41.92,20.86a.3493.3493,0,0,0,.18.42,3.2561,3.2561,0,0,1-2.03-3.94L44.03,3.12a.2353.2353,0,0,1,.08.02A2.77,2.77,0,0,1,45.93,6.52Z"/>
    <path class="cls-3" d="M34.8428,43.228l8.0664-10.563a4.7292,4.7292,0,0,0,.8681-3.8671A4.7828,4.7828,0,0,0,41.37,25.59a4.64,4.64,0,0,0-2.1982-.5522,4.8983,4.8983,0,0,0-3.3272,1.32l-1.6679,1.5581a.8882.8882,0,0,1-.2139.1514l-.0371-1.021-1.5869-15.07a4.7121,4.7121,0,0,0-.7376-2.067L30.31,18.58a.4484.4484,0,0,0-.01.11l-.34,9.18c-.01.18-.22-1.32,3.6,22.96a1.006,1.006,0,0,0,.67.79l4.0082,1.3412Z"/>
    <path class="cls-1" d="M41.32,31.45,32.6,42.87l4.5,12.9a1.0114,1.0114,0,0,1-.74,1.31l-18.33,3.9a1.0036,1.0036,0,0,1-1.2-.9L15.66,46.14,8.24,32.41a.9292.9292,0,0,1-.05-.1L3.2,19.97a2.76,2.76,0,0,1,2.57-3.79h.01a2.8059,2.8059,0,0,1,2.56,1.78L13.1,29.75c.1842.4474.9262.1927.79-.25L10.15,15.41a2.7835,2.7835,0,0,1,5.38-1.43l3.82,14.39c.12.4779.8593.2795.79-.16L17.59,12.64a2.7867,2.7867,0,0,1,5.5-.9l2.49,15.27a.3735.3735,0,0,0,.74-.1L24.84,12.76a2.77,2.77,0,0,1,5.51-.58l1.58,15.01c.0038.1026.1379,3.7646.13,3.55v.12c1.4125-.7877,2.4566-.5265,3.48-1.48l1.67-1.56a2.7956,2.7956,0,0,1,3.21-.47A2.7585,2.7585,0,0,1,41.32,31.45Z"/>
    <polygon class="cls-2" points="32.06 30.74 28.07 33.92 26.82 32.35 31.97 28.25 32.06 30.74"/>
    <g>
      <path class="cls-2" d="M13.67,30.06a2.5718,2.5718,0,0,1-3.61-1.24L4.74,16.38a2.6636,2.6636,0,0,1,1.03-.2h.01a2.8059,2.8059,0,0,1,2.56,1.78L13.1,29.75a.3947.3947,0,0,0,.53.2Z"/>
      <path class="cls-2" d="M19.64,28.64a3.72,3.72,0,0,1-3.82-2.68L11.81,12.13a3.0563,3.0563,0,0,1,.43-.13,2.7771,2.7771,0,0,1,3.29,1.98l3.82,14.39A.3368.3368,0,0,0,19.64,28.64Z"/>
      <path class="cls-2" d="M25.95,27.32a2.7777,2.7777,0,0,1-3.54-2.16L19.6,9.53c.05-.01.09-.02.14-.03a2.7659,2.7659,0,0,1,3.35,2.24l2.49,15.27A.3608.3608,0,0,0,25.95,27.32Z"/>
      <path class="cls-2" d="M31.85,26.44a3.7825,3.7825,0,0,1-3.33-3.43L27.34,9.74a2.7275,2.7275,0,0,1,3.01,2.44Z"/>
      <path class="cls-2" d="M41.32,31.45,32.6,42.87l4.5,12.9a1.0178,1.0178,0,0,1-.74,1.31l-18.33,3.9a1.0046,1.0046,0,0,1-1.2-.9l-.13-1.6L27.21,55.6a5.3818,5.3818,0,0,0,3.85-6.26l-1.1-5.39a5.4611,5.4611,0,0,1,1.14-4.57l9.74-11.75A2.7466,2.7466,0,0,1,41.32,31.45Z"/>
    </g>
  </g>
</svg>
