<svg id="Layer_2" data-name="Layer 2" xmlns="http://www.w3.org/2000/svg" viewBox="0 0 64 64">
  <defs>
    <style>
      .cls-1 {
        fill: #78909c;
      }

      .cls-2 {
        fill: #ffab91;
      }

      .cls-3 {
        fill: #455a64;
      }

      .cls-4 {
        fill: #f4947a;
      }
    </style>
  </defs>
  <title>25 Wiping</title>
  <g>
    <path class="cls-1" d="M57.16,27.23C60.79,32.6,61,32.53,61,33.11V48a1.0029,1.0029,0,0,1-1,1H20.77c-.34,0-3.96-2.08-5.22-2.77l-7.03,2.7c-.31.12-.15.05-4.52.07a1.0029,1.0029,0,0,1-1-1V36.64c0-.45,2.99-3.32,4.67-5.04C2.93,21.29,3,21.72,3,21.3V4A1.0029,1.0029,0,0,1,4,3H16.11a.96.96,0,0,1,.33.06l9.67,3.37C27.03,5.77,30.59,3,31.05,3H60a1.0029,1.0029,0,0,1,1,1V19.12C61,19.46,57.89,25.72,57.16,27.23Z"/>
    <path class="cls-2" d="M50.5356,31.5547a2.6759,2.6759,0,0,0-4.4794-1.3755L44.4409,31.668c-.9522.8782-1.8926.6413-3.269,1.3584l-.104-3.45-1.437-14.3941a2.7009,2.7009,0,0,0-5.3746.54L35.6108,29.29a.316.316,0,0,1-.6264.0806L32.6685,14.7227a2.7084,2.7084,0,0,0-5.35.8481l2.36,14.9307c.06.3781-.57.5435-.6753.1406l-3.59-13.81a2.708,2.708,0,0,0-5.2422,1.36l3.5146,13.52c.1029.3946-.532.5748-.6753.2124l-4.51-11.3227A2.7212,2.7212,0,0,0,16.01,18.8569a2.6876,2.6876,0,0,0-2.5171,3.6792l4.7192,11.8487c.0142.0341.03.0683.0469.1006l7.05,13.2021L26.8555,60.123a1,1,0,0,0,.9922.877H45.0728a1,1,0,0,0,.9594-1.2812L41.6143,44.6377l8.42-10.8984A2.6741,2.6741,0,0,0,50.5356,31.5547Z"/>
    <path class="cls-3" d="M13,39,4.86,35.3l-.64-.29c.69-.65,1.77-1.69,3.45-3.41Z"/>
    <path class="cls-3" d="M35.39,10.59,26.11,6.43c.92-.66,1.64-1.2,2.21-1.62Z"/>
    <path class="cls-3" d="M58.96,23.53c-.48.98-1.07,2.19-1.8,3.7L48,16.6964Z"/>
    <path class="cls-3" d="M20.61,43.54l-2.19,4.29c-.69-.39-1.61-.91-2.87-1.6Z"/>
    <path class="cls-4" d="M23.42,32.11a2.8272,2.8272,0,0,1-3.73-1.47L14.72,19.18a2.7376,2.7376,0,0,1,1.29-.32A2.6974,2.6974,0,0,1,18.5,20.6l4.51,11.32A.3311.3311,0,0,0,23.42,32.11Z"/>
    <path class="cls-4" d="M29.41,30.86a3.0027,3.0027,0,0,1-3.65-2.1L21.89,14.98a2.0246,2.0246,0,0,1,.33-.09,2.6963,2.6963,0,0,1,3.19,1.94L29,30.64A.3194.3194,0,0,0,29.41,30.86Z"/>
    <path class="cls-4" d="M35.25,29.63a2.9166,2.9166,0,0,1-3.27-2.35L29.23,12.57a1.0548,1.0548,0,0,1,.19-.05,2.69,2.69,0,0,1,3.25,2.2l2.31,14.65A.2964.2964,0,0,0,35.25,29.63Z"/>
    <path class="cls-4" d="M41.02,29.14a2.9114,2.9114,0,0,1-3.15-2.6L36.43,12.82a2.6817,2.6817,0,0,1,3.2,2.36l1.38,13.85Z"/>
    <path class="cls-4" d="M50.03,33.74l-8.42,10.9,4.42,15.08A.997.997,0,0,1,45.07,61H41.58L38.44,48.76a8.1855,8.1855,0,0,1,1.74-7.4l9.64-11.14a2.6237,2.6237,0,0,1,.72,1.33A2.6872,2.6872,0,0,1,50.03,33.74Z"/>
  </g>
</svg>
