<svg id="Layer_2" data-name="Layer 2" xmlns="http://www.w3.org/2000/svg" viewBox="0 0 64 64">
  <defs>
    <style>
      .cls-1 {
        fill: #42a5f5;
      }

      .cls-2 {
        fill: #1e88e5;
      }

      .cls-3 {
        fill: #bdbdbd;
      }

      .cls-4 {
        fill: #90a4ae;
      }

      .cls-5 {
        fill: #1a237e;
      }
    </style>
  </defs>
  <title>26 Detergent</title>
  <g>
    <path class="cls-1" d="M30.9951,3.9A1,1,0,0,0,30,3H22a1,1,0,0,0-.9951.9l-1,10A1.0007,1.0007,0,0,0,21,15H31a1.0007,1.0007,0,0,0,.9951-1.1Z"/>
    <path class="cls-2" d="M26,11a2,2,0,0,1-2-2V3H22a1,1,0,0,0-.9951.9l-1,10A1.0007,1.0007,0,0,0,21,15H31a1.0007,1.0007,0,0,0,.9951-1.1l-.29-2.9Z"/>
    <path class="cls-3" d="M32,13H20a5.0059,5.0059,0,0,0-5,5V56a5.0059,5.0059,0,0,0,5,5H44a5.0059,5.0059,0,0,0,5-5V30A17.019,17.019,0,0,0,32,13ZM42,32.2825H38.2353a8,8,0,0,1-8-8V20H32A10,10,0,0,1,42,30Z"/>
    <path class="cls-4" d="M48,58H24a5.0018,5.0018,0,0,1-5-5V15a5.1146,5.1146,0,0,1,.39-1.96A5.0038,5.0038,0,0,0,15,18V56a5.0018,5.0018,0,0,0,5,5H44a5.0288,5.0288,0,0,0,4.61-3.04A4.0775,4.0775,0,0,1,48,58Z"/>
    <path class="cls-5" d="M39,40H34a2.0023,2.0023,0,0,1-2-2,4.0042,4.0042,0,0,0-4-4H25a4.0042,4.0042,0,0,0-4,4V52a4.0042,4.0042,0,0,0,4,4H39a4.0042,4.0042,0,0,0,4-4V44A4.0042,4.0042,0,0,0,39,40Z"/>
  </g>
</svg>
