<svg id="Layer_2" data-name="Layer 2" xmlns="http://www.w3.org/2000/svg" viewBox="0 0 64 64">
  <defs>
    <style>
      .cls-1 {
        fill: #42a5f5;
      }

      .cls-2 {
        fill: #1976d2;
      }

      .cls-3 {
        fill: #fbc02d;
      }

      .cls-4 {
        fill: #ff8f00;
      }

      .cls-5 {
        fill: #e65100;
      }

      .cls-6 {
        fill: #ef6c00;
      }
    </style>
  </defs>
  <title>28 Laundry Basket</title>
  <g>
    <path class="cls-1" d="M54,10.5A3.5042,3.5042,0,0,0,50.5,7H15a5.0059,5.0059,0,0,0-5,5v2a4.9813,4.9813,0,0,0,2.0309,4A4.9813,4.9813,0,0,0,10,22v2a5.0059,5.0059,0,0,0,5,5H50.5a3.499,3.499,0,0,0,1.9553-6.4014A4.9767,4.9767,0,0,0,54,19V17a4.9767,4.9767,0,0,0-1.5447-3.5986A3.5,3.5,0,0,0,54,10.5Z"/>
    <path class="cls-2" d="M53.6548,12H17.8219a6.3351,6.3351,0,0,0-.4147-1.394l-1.8379.788a3.8882,3.8882,0,0,1,0,3.212l1.8379.788A6.3351,6.3351,0,0,0,17.8219,14h35.147a5.1126,5.1126,0,0,0-.5136-.5986A3.5187,3.5187,0,0,0,53.6548,12Z"/>
    <path class="cls-2" d="M47.0811,15.606A6.33,6.33,0,0,0,46.6664,17H11.0282a5.1154,5.1154,0,0,0,1.0027,1,5.1154,5.1154,0,0,0-1.0027,1H46.6664a6.33,6.33,0,0,0,.4147,1.394l1.8378-.788a3.889,3.889,0,0,1,0-3.212Z"/>
    <path class="cls-2" d="M17.8219,22a6.3351,6.3351,0,0,0-.4147-1.394l-1.8379.788a3.8882,3.8882,0,0,1,0,3.212l1.8379.788A6.3351,6.3351,0,0,0,17.8219,24H53.6548a3.5187,3.5187,0,0,0-1.2-1.4014A5.1126,5.1126,0,0,0,52.9689,22Z"/>
    <path class="cls-3" d="M56.7705,34.3623A1,1,0,0,0,56,34H8a1,1,0,0,0-.9824,1.1875l3.3808,17.748A5.0059,5.0059,0,0,0,15.31,57H48.69a5.0059,5.0059,0,0,0,4.9117-4.0645l3.3808-17.748A1.0013,1.0013,0,0,0,56.7705,34.3623Z"/>
    <path class="cls-4" d="M56.7705,34.3623A1,1,0,0,0,56,34H48.59L46.6016,44.4355A5.0058,5.0058,0,0,1,41.69,48.5H9.5535l.8449,4.4355A5.0059,5.0059,0,0,0,15.31,57H48.69a5.0059,5.0059,0,0,0,4.9117-4.0645l3.3808-17.748A1.0013,1.0013,0,0,0,56.7705,34.3623Z"/>
    <g>
      <path class="cls-5" d="M18.5,38A3.5042,3.5042,0,0,0,15,41.5v7a3.5,3.5,0,0,0,7,0v-7A3.5042,3.5042,0,0,0,18.5,38Z"/>
      <path class="cls-5" d="M27.5,38A3.5042,3.5042,0,0,0,24,41.5v7a3.5,3.5,0,0,0,7,0v-7A3.5042,3.5042,0,0,0,27.5,38Z"/>
      <path class="cls-5" d="M36.5,38A3.5042,3.5042,0,0,0,33,41.5v7a3.5,3.5,0,0,0,7,0v-7A3.5042,3.5042,0,0,0,36.5,38Z"/>
      <path class="cls-5" d="M45.5,38A3.5042,3.5042,0,0,0,42,41.5v7a3.5,3.5,0,0,0,7,0v-7A3.5042,3.5042,0,0,0,45.5,38Z"/>
    </g>
    <rect class="cls-6" x="3" y="27" width="58" height="9" rx="3"/>
    <path class="cls-5" d="M58,27H56.5v1.697a3.0033,3.0033,0,0,1-3,3H3V33a3.0033,3.0033,0,0,0,3,3H58a3.0033,3.0033,0,0,0,3-3V30A3.0033,3.0033,0,0,0,58,27Z"/>
  </g>
</svg>
