<svg id="Layer_2" data-name="Layer 2" xmlns="http://www.w3.org/2000/svg" viewBox="0 0 64 64">
  <defs>
    <style>
      .cls-1 {
        fill: #ffab91;
      }

      .cls-2 {
        fill: #bdbdbd;
      }

      .cls-3 {
        fill: #90a4ae;
      }

      .cls-4 {
        fill: #ea7760;
      }

      .cls-5 {
        fill: #212121;
      }

      .cls-6 {
        fill: #f4947a;
      }

      .cls-7 {
        fill: #111;
      }
    </style>
  </defs>
  <title>30 Maid</title>
  <g>
    <path class="cls-1" d="M56.9,47.3184a9.0387,9.0387,0,0,0-7.1665-7.3564L37,37.4962v-2.251a1,1,0,0,0-1-1l-8-.002a1,1,0,0,0-1,1v2.253L14.2661,39.962A9.0388,9.0388,0,0,0,7.1,47.3184L5.0137,59.836A1,1,0,0,0,6,61H58a1,1,0,0,0,.9863-1.1641Z"/>
    <path class="cls-2" d="M56.8965,47.3155a9.0528,9.0528,0,0,0-7.166-7.3565l-9.55-1.8505c-.0107-.0022-.0211.0019-.0318,0-.0132-.0034-.0243-.0129-.0376-.0158a.9984.9984,0,0,0-.7885.1612l-7.4986,5.3017-7.1284-5.2881a1.19,1.19,0,0,0-.8635-.1591c-.0043.0008-.0086-.0009-.013,0l-.0189.0036-.0021,0-.0006,0L14.2686,39.959a9.0529,9.0529,0,0,0-7.1651,7.3565l-2.09,12.52A1,1,0,0,0,6,61H58a1,1,0,0,0,.9863-1.1651Z"/>
    <path class="cls-3" d="M56.8965,47.3155A9.0408,9.0408,0,0,0,50.68,40.2224a8.9032,8.9032,0,0,1,1.2163,3.1795l1.6042,9.61A3.4983,3.4983,0,0,1,50.05,57.0864H5.4725l-.4589,2.749A1,1,0,0,0,6,61H58a1,1,0,0,0,.9864-1.1647Z"/>
    <path class="cls-4" d="M37.9116,37.6727,37,37.4962v-2.251a1,1,0,0,0-1-1l-8-.002a1,1,0,0,0-1,1v2.253l-.9116.1765A13.8251,13.8251,0,0,0,37.9116,37.6727Z"/>
    <path class="cls-5" d="M53.9717,29.7754a1.0074,1.0074,0,0,0-.65-.7227A3.4377,3.4377,0,0,1,51,26c0-4.9336-.7349-16.8223-7.543-20.6475a8.6519,8.6519,0,0,0-6.0776-.5009C36.6616,4.0889,35.0947,3,32,3c-3.7783,0-8.9551.4287-12.16,2.4736C13.8887,9.27,13,19.9629,13,26a3.4393,3.4393,0,0,1-2.3164,3.0518,1,1,0,0,0-.3906,1.6552A11.9856,11.9856,0,0,0,18,34c3.3022,0,4.8652-1.24,5.5127-2H40.4873c.6475.76,2.2105,2,5.5127,2a11.9856,11.9856,0,0,0,7.707-3.293A1,1,0,0,0,53.9717,29.7754Z"/>
    <path class="cls-4" d="M21,16a5,5,0,0,0,0,10,1,1,0,0,0,1-1V17A1,1,0,0,0,21,16Z"/>
    <path class="cls-4" d="M43,16a1,1,0,0,0-1,1v8a1,1,0,0,0,1,1,5,5,0,0,0,0-10Z"/>
    <path class="cls-1" d="M43.02,14.3213l-22-.4287a1.0884,1.0884,0,0,0-.72.2861.9983.9983,0,0,0-.3.7139V25a12,12,0,0,0,24,0V15.3213A1,1,0,0,0,43.02,14.3213Z"/>
    <path class="cls-6" d="M43.02,11.3213l-2.942-.0573A.9939.9939,0,0,1,41,12.2512V24.93A12.0155,12.0155,0,0,1,30.2711,36.8608,11.9114,11.9114,0,0,0,44,25V12.3213A1,1,0,0,0,43.02,11.3213Z"/>
    <path class="cls-5" d="M45.6221,17.1621,43.9814,8.8076A1,1,0,0,0,43,8H21a1,1,0,0,0-.9741.7734l-2,8.5918a1.0006,1.0006,0,0,0,1.2578,1.1856L20,18.3389V19a1,1,0,0,0,1,1,44.4625,44.4625,0,0,0,9.2427-1.03,11.8957,11.8957,0,0,0,5.4692-3.1064c1.9985,3.28,6.82,4.3828,7.0542,4.4346a1,1,0,0,0,.8423-.1973c.5678-.4562.31-1.0935.373-1.8652.2264.0138.8417.3412,1.3594-.167A1.0006,1.0006,0,0,0,45.6221,17.1621Z"/>
    <path class="cls-5" d="M17,61H47a1,1,0,0,0,1-1V39.6237L42,38.461V47a3.0033,3.0033,0,0,1-3,3H25a3.0033,3.0033,0,0,1-3-3V38.461l-6,1.1625V60A1,1,0,0,0,17,61Z"/>
    <path class="cls-2" d="M42.6406,12.9331A27.9289,27.9289,0,0,0,21.38,12.9248l-.76-1.85a29.862,29.862,0,0,1,22.7393-.0083Z"/>
    <path class="cls-7" d="M45,52.311a4.7754,4.7754,0,0,1-4.7753,4.7754H16V60a1,1,0,0,0,1,1H47a1,1,0,0,0,1-1V39.6237l-3-.5813Z"/>
    <path class="cls-7" d="M22,47V38.461l-3,.5812V46.243a3.8377,3.8377,0,0,0,3.9861,3.8349L25,50A3.0033,3.0033,0,0,1,22,47Z"/>
  </g>
</svg>
