<svg id="Layer_2" data-name="Layer 2" xmlns="http://www.w3.org/2000/svg" viewBox="0 0 64 64">
  <defs>
    <style>
      .cls-1 {
        fill: #ffab91;
      }

      .cls-2 {
        fill: #fbc02d;
      }

      .cls-3 {
        fill: #ff8f00;
      }

      .cls-4 {
        fill: #ea7760;
      }

      .cls-5 {
        fill: #f4947a;
      }

      .cls-6 {
        fill: #42a5f5;
      }

      .cls-7 {
        fill: #1e88e5;
      }

      .cls-8 {
        fill: #1976d2;
      }

      .cls-9 {
        fill: #1565c0;
      }

      .cls-10 {
        fill: #1a237e;
      }
    </style>
  </defs>
  <title>31 Janitor</title>
  <g>
    <path class="cls-1" d="M56.9,47.3184a9.0387,9.0387,0,0,0-7.1665-7.3564L37,37.4962v-2.251a1,1,0,0,0-1-1l-8-.002a1,1,0,0,0-1,1v2.253L14.2661,39.962A9.0388,9.0388,0,0,0,7.1,47.3184L5.0137,59.836A1,1,0,0,0,6,61H58a1,1,0,0,0,.9863-1.1641Z"/>
    <path class="cls-2" d="M56.8965,47.3155a9.0528,9.0528,0,0,0-7.166-7.3565l-9.55-1.8505c-.0107-.0022-.0211.0019-.0318,0-.0132-.0034-.0243-.0129-.0376-.0158a.9984.9984,0,0,0-.7885.1612l-7.4986,5.3017-7.1284-5.2881a1.19,1.19,0,0,0-.8635-.1591c-.0043.0008-.0086-.0009-.013,0l-.0189.0036-.0021,0-.0006,0L14.2686,39.959a9.0529,9.0529,0,0,0-7.1651,7.3565l-2.09,12.52A1,1,0,0,0,6,61H58a1,1,0,0,0,.9863-1.1651Z"/>
    <path class="cls-3" d="M56.8965,47.3155A9.0408,9.0408,0,0,0,50.68,40.2224a8.9032,8.9032,0,0,1,1.2163,3.1795l1.6042,9.61A3.4983,3.4983,0,0,1,50.05,57.0864H5.4725l-.4589,2.749A1,1,0,0,0,6,61H58a1,1,0,0,0,.9864-1.1647Z"/>
    <path class="cls-4" d="M37.9116,37.6727,37,37.4962v-2.251a1,1,0,0,0-1-1l-8-.002a1,1,0,0,0-1,1v2.253l-.9116.1765A13.8251,13.8251,0,0,0,37.9116,37.6727Z"/>
    <path class="cls-4" d="M21,16a5,5,0,0,0,0,10,1,1,0,0,0,1-1V17A1,1,0,0,0,21,16Z"/>
    <path class="cls-4" d="M43,16a1,1,0,0,0-1,1v8a1,1,0,0,0,1,1,5,5,0,0,0,0-10Z"/>
    <path class="cls-1" d="M43.02,11.3213l-22-.4287a1.1273,1.1273,0,0,0-.72.2861.9983.9983,0,0,0-.3.7139V25a12,12,0,0,0,24,0V12.3213A1,1,0,0,0,43.02,11.3213Z"/>
    <path class="cls-5" d="M43.02,11.3213l-2.942-.0573A.9939.9939,0,0,1,41,12.2512V24.93A12.0155,12.0155,0,0,1,30.2711,36.8608,11.9114,11.9114,0,0,0,44,25V12.3213A1,1,0,0,0,43.02,11.3213Z"/>
    <path class="cls-6" d="M37,3H27a7.0081,7.0081,0,0,0-7,7v3.3247a1,1,0,0,0,1,1l22-.0005a1,1,0,0,0,1-1V10A7.0081,7.0081,0,0,0,37,3Z"/>
    <path class="cls-7" d="M38.9185,3.2739A6.958,6.958,0,0,1,40,7v.7872a1.77,1.77,0,0,1-2.0281,1.7555A41.5112,41.5112,0,0,0,32,9a63.5812,63.5812,0,0,0-12,1.6868v2.6379a1,1,0,0,0,1,1l22-.0005a1,1,0,0,0,1-1V10A7.0078,7.0078,0,0,0,38.9185,3.2739Z"/>
    <path class="cls-8" d="M43.6982,12.6685A62.24,62.24,0,0,0,32,11a62.24,62.24,0,0,0-11.6982,1.6685,2.9535,2.9535,0,0,0,1.2666,5.7695A57.9663,57.9663,0,0,1,32,17a57.9908,57.9908,0,0,1,10.4326,1.438,2.9534,2.9534,0,0,0,1.2656-5.7695Z"/>
    <path class="cls-9" d="M44.24,12.85a2.9952,2.9952,0,0,1,.0307.3615A2.9505,2.9505,0,0,1,40.7037,16.1a57.9912,57.9912,0,0,0-10.4326-1.4379A57.9679,57.9679,0,0,0,19.8394,16.1a2.9052,2.9052,0,0,1-1.7984-.1931,2.9371,2.9371,0,0,0,3.5274,2.5308A57.9663,57.9663,0,0,1,32,17a57.9908,57.9908,0,0,1,10.4326,1.438A2.9521,2.9521,0,0,0,44.24,12.85Z"/>
    <path class="cls-6" d="M17,61H47a1,1,0,0,0,1-1V39.6237L42,38.461V48.5635L41.3535,50H22.6465L22,48.5635V38.461l-6,1.1625V60A1,1,0,0,0,17,61Z"/>
    <path class="cls-7" d="M17,61H47a1,1,0,0,0,1-1V39.6237l-4-.7751V52.2218a4.8646,4.8646,0,0,1-4.8646,4.8646H16V60A1,1,0,0,0,17,61Z"/>
    <polygon class="cls-7" points="22 48.563 22 38.461 19 39.042 19 50.611 22.646 50 22 48.563"/>
    <g>
      <circle class="cls-10" cx="19" cy="51" r="4"/>
      <circle class="cls-10" cx="45" cy="51" r="4"/>
    </g>
  </g>
</svg>
